<?xml version="1.0" encoding="UTF-8" standalone="no"?>
<!-- Created with Inkscape (http://www.inkscape.org/) -->

<svg
   width="19.165722mm"
   height="7.895174mm"
   viewBox="0 0 19.165722 7.895174"
   version="1.1"
   id="svg1"
   xmlns:inkscape="http://www.inkscape.org/namespaces/inkscape"
   xmlns:sodipodi="http://sodipodi.sourceforge.net/DTD/sodipodi-0.dtd"
   xmlns="http://www.w3.org/2000/svg"
   xmlns:svg="http://www.w3.org/2000/svg">
  <sodipodi:namedview
     id="namedview1"
     pagecolor="#ffffff"
     bordercolor="#000000"
     borderopacity="0.25"
     inkscape:showpageshadow="2"
     inkscape:pageopacity="0.0"
     inkscape:pagecheckerboard="0"
     inkscape:deskcolor="#d1d1d1"
     inkscape:document-units="mm"
     inkscape:zoom="1.4627806"
     inkscape:cx="378.73076"
     inkscape:cy="223.88867"
     inkscape:window-width="1920"
     inkscape:window-height="1017"
     inkscape:window-x="1912"
     inkscape:window-y="455"
     inkscape:window-maximized="1"
     inkscape:current-layer="layer1" />
  <defs
     id="defs1">
    <clipPath
       clipPathUnits="userSpaceOnUse"
       id="clipPath1905">
      <path
         d="M 0,793.2 H 613.2 V 0 H 0 Z"
         transform="translate(-361.92968,-539.71481)"
         id="path1905" />
    </clipPath>
    <clipPath
       clipPathUnits="userSpaceOnUse"
       id="clipPath1907">
      <path
         d="M 0,793.2 H 613.2 V 0 H 0 Z"
         transform="translate(-402.47274,-535.88872)"
         id="path1907" />
    </clipPath>
    <clipPath
       clipPathUnits="userSpaceOnUse"
       id="clipPath1935">
      <path
         d="M 0,793.2 H 613.2 V 0 H 0 Z"
         transform="translate(-368.39843,-542.43262)"
         id="path1935" />
    </clipPath>
    <clipPath
       clipPathUnits="userSpaceOnUse"
       id="clipPath1937">
      <path
         d="M 0,793.2 H 613.2 V 0 H 0 Z"
         transform="translate(-368.98343,-545.90722)"
         id="path1937" />
    </clipPath>
    <clipPath
       clipPathUnits="userSpaceOnUse"
       id="clipPath1939">
      <path
         d="M 0,793.2 H 613.2 V 0 H 0 Z"
         transform="translate(-369.48931,-545.55712)"
         id="path1939" />
    </clipPath>
    <clipPath
       clipPathUnits="userSpaceOnUse"
       id="clipPath1941">
      <path
         d="M 0,793.2 H 613.2 V 0 H 0 Z"
         transform="translate(-370.08008,-547.95172)"
         id="path1941" />
    </clipPath>
    <clipPath
       clipPathUnits="userSpaceOnUse"
       id="clipPath1943">
      <path
         d="M 0,793.2 H 613.2 V 0 H 0 Z"
         transform="translate(-375.78421,-536.46341)"
         id="path1943" />
    </clipPath>
    <clipPath
       clipPathUnits="userSpaceOnUse"
       id="clipPath1945">
      <path
         d="M 0,793.2 H 613.2 V 0 H 0 Z"
         transform="translate(-385.47458,-536.62301)"
         id="path1945" />
    </clipPath>
    <clipPath
       clipPathUnits="userSpaceOnUse"
       id="clipPath1947">
      <path
         d="M 0,793.2 H 613.2 V 0 H 0 Z"
         transform="translate(-406.14361,-542.43262)"
         id="path1947" />
    </clipPath>
    <clipPath
       clipPathUnits="userSpaceOnUse"
       id="clipPath1949">
      <path
         d="M 0,793.2 H 613.2 V 0 H 0 Z"
         transform="translate(-405.56454,-545.90722)"
         id="path1949" />
    </clipPath>
    <clipPath
       clipPathUnits="userSpaceOnUse"
       id="clipPath1951">
      <path
         d="M 0,793.2 H 613.2 V 0 H 0 Z"
         transform="translate(-405.05664,-545.55712)"
         id="path1951" />
    </clipPath>
    <clipPath
       clipPathUnits="userSpaceOnUse"
       id="clipPath1953">
      <path
         d="M 0,793.2 H 613.2 V 0 H 0 Z"
         transform="translate(-404.46781,-547.95172)"
         id="path1953" />
    </clipPath>
    <clipPath
       clipPathUnits="userSpaceOnUse"
       id="clipPath1955">
      <path
         d="M 0,793.2 H 613.2 V 0 H 0 Z"
         transform="translate(-398.76271,-536.46341)"
         id="path1955" />
    </clipPath>
    <clipPath
       clipPathUnits="userSpaceOnUse"
       id="clipPath1957">
      <path
         d="M 0,793.2 H 613.2 V 0 H 0 Z"
         transform="translate(-389.07233,-536.62301)"
         id="path1957" />
    </clipPath>
    <clipPath
       clipPathUnits="userSpaceOnUse"
       id="clipPath1959">
      <path
         d="M 0,793.2 H 613.2 V 0 H 0 Z"
         transform="translate(-372.83498,-554.82571)"
         id="path1959" />
    </clipPath>
    <clipPath
       clipPathUnits="userSpaceOnUse"
       id="clipPath1961">
      <path
         d="M 0,793.2 H 613.2 V 0 H 0 Z"
         transform="translate(-401.71194,-554.82571)"
         id="path1961" />
    </clipPath>
  </defs>
  <g
     inkscape:label="Layer 1"
     inkscape:groupmode="layer"
     id="layer1"
     transform="translate(-138.6417,-200.83892)">
    <path
       id="path1904"
       d="M 0,0 H 8.045 C 7.822,0.311 7.631,0.646 7.474,0.997 H 1.194 C 1.183,1.59 0.946,2.164 0.522,2.584 -0.242,3.354 -1.521,3.47 -2.403,2.882 l -3.574,3.016 v 2.931 l 3.574,3.017 c 0.883,-0.588 2.163,-0.471 2.924,0.295 0.432,0.43 0.667,0.998 0.676,1.59 h 6.094 c 0.197,0.34 0.438,0.673 0.726,0.997 H 0 l 0.157,-0.621 c 0.117,-0.461 -0.011,-0.931 -0.342,-1.261 -0.498,-0.5 -1.373,-0.501 -1.874,-10e-4 L -2.382,13.169 -6.974,9.292 V 5.435 l 4.592,-3.877 0.323,0.325 c 0.501,0.5 1.372,0.503 1.876,-0.003 0.329,-0.327 0.457,-0.798 0.34,-1.259 z"
       style="fill:#231f20;fill-opacity:1;fill-rule:nonzero;stroke:none"
       transform="matrix(0.35277776,0,0,-0.35277776,141.10197,207.38433)"
       clip-path="url(#clipPath1905)"
       inkscape:export-filename="fundsPP.svg"
       inkscape:export-xdpi="96"
       inkscape:export-ydpi="96" />
    <path
       id="path1906"
       d="m 0,0 h -29.969 l -6.81,8.572 0.002,5.24 6.806,8.568 H 0.004 L 6.81,13.812 6.811,8.572 Z m -29.427,1.122 h 28.886 l 6.23,7.841 -0.001,4.458 -6.225,7.838 h -28.892 l -6.227,-7.838 -10e-4,-4.458"
       style="fill:#231f20;fill-opacity:1;fill-rule:nonzero;stroke:none"
       transform="matrix(0.35277776,0,0,-0.35277776,155.40465,208.73409)"
       clip-path="url(#clipPath1907)" />
    <path
       id="path1934"
       d="m 0,0 -0.479,0.338 c 0.884,1.256 1.352,2.734 1.352,4.276 0,1.558 -0.476,3.05 -1.375,4.315 l 0.478,0.34 C 0.945,7.904 1.458,6.293 1.458,4.614 1.458,2.951 0.954,1.355 0,0"
       style="fill:#231f20;fill-opacity:1;fill-rule:nonzero;stroke:none"
       transform="matrix(0.35277776,0,0,-0.35277776,143.384,206.42554)"
       clip-path="url(#clipPath1935)" />
    <path
       id="path1936"
       d="m 0,0 v 0.001 c 0.153,-0.067 0.325,-0.106 0.507,-0.106 0.698,0 1.264,0.566 1.264,1.264 0,0.699 -0.566,1.266 -1.264,1.266 C 0.325,2.425 0.153,2.386 0,2.318 L -0.09,2.269 C -0.13,2.248 -0.17,2.229 -0.206,2.206 L -2.095,1.159 -0.206,0.113 C -0.17,0.089 -0.13,0.071 -0.09,0.051"
       style="fill:#ffffff;fill-opacity:1;fill-rule:nonzero;stroke:none"
       transform="matrix(0.35277776,0,0,-0.35277776,143.59037,205.19978)"
       clip-path="url(#clipPath1937)" />
    <path
       id="path1938"
       d="m 0,0 c -0.209,0 -0.413,0.043 -0.604,0.128 l -0.11,0.059 c -0.063,0.032 -0.101,0.05 -0.137,0.075 l -2.253,1.247 2.273,1.26 c 0.019,0.013 0.055,0.031 0.092,0.051 l 0.114,0.061 C 0.433,3.354 1.509,2.55 1.51,1.509 1.51,0.677 0.832,0 0,0 M -2.098,1.509 -0.387,0.562 C -0.278,0.516 -0.141,0.488 0,0.488 c 0.563,0 1.021,0.458 1.021,1.021 0,0.563 -0.458,1.022 -1.021,1.022 -0.142,0 -0.278,-0.029 -0.409,-0.086 l -0.07,-0.04 C -0.539,2.374 -0.56,2.364 -0.578,2.352"
       style="fill:#231f20;fill-opacity:1;fill-rule:nonzero;stroke:none"
       transform="matrix(0.35277776,0,0,-0.35277776,143.76883,205.32329)"
       clip-path="url(#clipPath1939)" />
    <path
       id="path1940"
       d="M 0,0 C -0.017,0.058 -0.398,1.421 0.119,3.315 0.593,5.048 1.947,7.57 5.705,9.743 L 5.948,9.32 C -0.924,5.346 0.408,0.345 0.468,0.136"
       style="fill:#231f20;fill-opacity:1;fill-rule:nonzero;stroke:none"
       transform="matrix(0.35277776,0,0,-0.35277776,143.97725,204.47853)"
       clip-path="url(#clipPath1941)" />
    <path
       id="path1942"
       d="M 0,0 C -3.758,2.174 -5.111,4.695 -5.586,6.427 -6.104,8.321 -5.721,9.686 -5.705,9.743 L -5.236,9.608 C -5.297,9.397 -6.629,4.397 0.243,0.423"
       style="fill:#231f20;fill-opacity:1;fill-rule:nonzero;stroke:none"
       transform="matrix(0.35277776,0,0,-0.35277776,145.98953,208.53135)"
       clip-path="url(#clipPath1943)" />
    <path
       id="path1944"
       d="m 0,0 -0.476,0.103 c 0.005,0.025 0.127,0.65 -0.338,1.091 -0.422,0.401 -1.436,0.745 -3.875,0.105 -5.177,-1.356 -8.132,0.93 -8.255,1.028 l 0.304,0.382 C -12.612,2.687 -9.749,0.478 -4.813,1.771 -2.676,2.33 -1.216,2.255 -0.472,1.543 0.187,0.911 0.009,0.037 0,0"
       style="fill:#231f20;fill-opacity:1;fill-rule:nonzero;stroke:none"
       transform="matrix(0.35277776,0,0,-0.35277776,149.40808,208.47504)"
       clip-path="url(#clipPath1945)" />
    <path
       id="path1946"
       d="m 0,0 c -0.953,1.354 -1.456,2.95 -1.456,4.614 0,1.68 0.511,3.29 1.48,4.655 L 0.502,8.929 C -0.396,7.664 -0.872,6.172 -0.872,4.614 c 0,-1.543 0.468,-3.021 1.351,-4.276"
       style="fill:#231f20;fill-opacity:1;fill-rule:nonzero;stroke:none"
       transform="matrix(0.35277776,0,0,-0.35277776,156.69966,206.42554)"
       clip-path="url(#clipPath1947)" />
    <path
       id="path1948"
       d="m 0,0 v 0.001 c -0.154,-0.067 -0.326,-0.106 -0.508,-0.106 -0.698,0 -1.264,0.566 -1.264,1.264 0,0.699 0.566,1.266 1.264,1.266 0.182,0 0.354,-0.039 0.508,-0.107 L 0.09,2.269 C 0.13,2.248 0.17,2.229 0.206,2.206 L 2.094,1.159 0.206,0.113 C 0.17,0.089 0.13,0.071 0.09,0.051"
       style="fill:#ffffff;fill-opacity:1;fill-rule:nonzero;stroke:none"
       transform="matrix(0.35277776,0,0,-0.35277776,156.49537,205.19978)"
       clip-path="url(#clipPath1949)" />
    <path
       id="path1950"
       d="m 0,0 c -0.832,0 -1.509,0.677 -1.509,1.509 0,0.832 0.677,1.51 1.509,1.51 0.209,0 0.413,-0.043 0.605,-0.128 L 0.715,2.832 C 0.777,2.8 0.813,2.782 0.848,2.759 L 3.105,1.509 0.832,0.25 C 0.816,0.237 0.778,0.219 0.74,0.199 L 0.628,0.138 C 0.411,0.042 0.208,0 0,0 m 0,2.531 c -0.562,0 -1.021,-0.459 -1.021,-1.022 0,-0.563 0.459,-1.021 1.021,-1.021 0.142,0 0.278,0.028 0.409,0.086 L 2.099,1.509 0.595,2.342 C 0.561,2.364 0.54,2.374 0.52,2.384 L 0.389,2.455 C 0.278,2.502 0.142,2.531 0,2.531"
       style="fill:#231f20;fill-opacity:1;fill-rule:nonzero;stroke:none"
       transform="matrix(0.35277776,0,0,-0.35277776,156.3162,205.32329)"
       clip-path="url(#clipPath1951)" />
    <path
       id="path1952"
       d="m 0,0 -0.469,0.136 c 0.06,0.209 1.392,5.21 -5.48,9.184 l 0.244,0.423 C -1.947,7.57 -0.594,5.048 -0.12,3.315 0.398,1.421 0.017,0.058 0,0"
       style="fill:#231f20;fill-opacity:1;fill-rule:nonzero;stroke:none"
       transform="matrix(0.35277776,0,0,-0.35277776,156.10847,204.47853)"
       clip-path="url(#clipPath1953)" />
    <path
       id="path1954"
       d="m 0,0 -0.244,0.423 c 6.872,3.974 5.54,8.974 5.479,9.185 l 0.47,0.135 C 5.721,9.686 6.103,8.321 5.585,6.427 5.11,4.695 3.758,2.174 0,0"
       style="fill:#231f20;fill-opacity:1;fill-rule:nonzero;stroke:none"
       transform="matrix(0.35277776,0,0,-0.35277776,154.09584,208.53135)"
       clip-path="url(#clipPath1955)" />
    <path
       id="path1956"
       d="M 0,0 C -0.009,0.037 -0.187,0.911 0.473,1.543 1.217,2.255 2.676,2.33 4.813,1.771 9.745,0.478 12.611,2.687 12.64,2.709 L 12.944,2.327 C 12.821,2.228 9.868,-0.059 4.689,1.299 2.244,1.94 1.231,1.593 0.81,1.19 0.346,0.745 0.476,0.109 0.477,0.103"
       style="fill:#231f20;fill-opacity:1;fill-rule:nonzero;stroke:none"
       transform="matrix(0.35277776,0,0,-0.35277776,150.67729,208.47504)"
       clip-path="url(#clipPath1957)" />
    <path
       id="path1958"
       d="m 0,0 -0.305,0.382 c 0.124,0.099 3.076,2.385 8.255,1.028 2.447,-0.642 3.46,-0.294 3.88,0.109 0.466,0.446 0.335,1.08 0.335,1.08 L 12.64,2.708 C 12.648,2.671 12.827,1.799 12.168,1.166 11.424,0.456 9.964,0.379 7.826,0.937 2.895,2.234 0.027,0.023 0,0"
       style="fill:#231f20;fill-opacity:1;fill-rule:nonzero;stroke:none"
       transform="matrix(0.35277776,0,0,-0.35277776,144.94911,202.05353)"
       clip-path="url(#clipPath1959)" />
    <path
       id="path1960"
       d="m 0,0 c -0.028,0.023 -2.891,2.234 -7.826,0.937 -2.138,-0.558 -3.597,-0.481 -4.341,0.229 -0.66,0.633 -0.481,1.505 -0.473,1.542 l 0.477,-0.102 c -0.005,-0.024 -0.127,-0.65 0.338,-1.091 0.421,-0.4 1.436,-0.745 3.875,-0.105 5.18,1.355 8.131,-0.93 8.255,-1.028"
       style="fill:#231f20;fill-opacity:1;fill-rule:nonzero;stroke:none"
       transform="matrix(0.35277776,0,0,-0.35277776,155.13626,202.05353)"
       clip-path="url(#clipPath1961)" />
    <path
       style="fill:#ffffff;fill-rule:evenodd;stroke-width:0.170907"
       d="m 534.86402,781.72017 c -0.14474,-0.7715 -1.13415,-1.87691 -1.90878,-2.13256 -0.58562,-0.19327 -1.86186,-0.15235 -2.55697,0.082 -0.28522,0.0962 -0.80356,-0.26067 -2.64906,-1.82359 l -2.29446,-1.94313 -0.0498,-1.87166 c -0.0481,-1.80427 -0.0349,-1.88397 0.36624,-2.21348 0.22884,-0.188 1.29531,-1.08731 2.36993,-1.99847 l 1.95384,-1.65666 0.75625,0.26344 c 0.89272,0.31098 2.08921,0.11833 2.91439,-0.46925 0.54458,-0.38777 1.17456,-1.4758 1.17456,-2.02856 0,-0.33955 0.0911,-0.34862 3.5036,-0.34862 1.92698,0 3.5036,0.0423 3.5036,0.0939 0,0.0517 -0.84599,1.15961 -1.87998,2.46211 l -1.87998,2.36818 v 3.5017 3.5017 l 1.41742,1.76975 c 0.77959,0.97336 1.63471,2.05815 1.90027,2.41065 l 0.48284,0.6409 h -3.50487 -3.50486 z"
       id="path4"
       transform="scale(0.26458333)" />
  </g>
</svg>
