<?xml version="1.0" encoding="UTF-8" standalone="no"?>
<!-- Created with Inkscape (http://www.inkscape.org/) -->

<svg
   width="19.165722mm"
   height="7.8951578mm"
   viewBox="0 0 19.165722 7.8951578"
   version="1.1"
   id="svg1"
   xmlns:inkscape="http://www.inkscape.org/namespaces/inkscape"
   xmlns:sodipodi="http://sodipodi.sourceforge.net/DTD/sodipodi-0.dtd"
   xmlns="http://www.w3.org/2000/svg"
   xmlns:svg="http://www.w3.org/2000/svg">
  <sodipodi:namedview
     id="namedview1"
     pagecolor="#ffffff"
     bordercolor="#000000"
     borderopacity="0.25"
     inkscape:showpageshadow="2"
     inkscape:pageopacity="0.0"
     inkscape:pagecheckerboard="0"
     inkscape:deskcolor="#d1d1d1"
     inkscape:document-units="mm"
     inkscape:zoom="1.4627806"
     inkscape:cx="378.73076"
     inkscape:cy="223.88867"
     inkscape:window-width="1920"
     inkscape:window-height="1017"
     inkscape:window-x="1912"
     inkscape:window-y="455"
     inkscape:window-maximized="1"
     inkscape:current-layer="layer1" />
  <defs
     id="defs1">
    <clipPath
       clipPathUnits="userSpaceOnUse"
       id="clipPath1891">
      <path
         d="M 0,793.2 H 613.2 V 0 H 0 Z"
         transform="translate(-401.93161,-642.81691)"
         id="path1891" />
    </clipPath>
  </defs>
  <g
     inkscape:label="Layer 1"
     inkscape:groupmode="layer"
     id="layer1"
     transform="translate(-138.64167,-173.0375)">
    <path
       id="path1890"
       d="M 0,0 H -1.047 L 6.229,8.912 6.23,7.841 Z m -26.876,0 -8.223,10.071 8.226,10.066 H -1.82 L 6.229,10.284 V 9.857 L -1.818,0 Z m -2.01,0 -6.23,7.841 V 9.146 L -27.648,0 Z m -9.922,3.702 c -0.011,0.592 -0.248,1.167 -0.671,1.588 -0.765,0.768 -2.044,0.886 -2.926,0.296 l -3.574,3.017 v 2.931 l 3.574,3.017 c 0.884,-0.588 2.163,-0.471 2.924,0.295 0.432,0.43 0.668,0.998 0.676,1.59 h 5.544 l -2.976,-3.745 -10e-4,-5.24 2.979,-3.749 z m 9.92,16.435 h 1.242 l -7.469,-9.142 V 12.3 Z m 28.892,0 6.225,-7.837 v -1.071 l -7.278,8.908 z M 7.351,12.691 0.545,21.259 H -29.43 l -3.039,-3.826 h -7.533 l 0.157,-0.621 c 0.117,-0.461 -0.01,-0.931 -0.342,-1.261 -0.498,-0.501 -1.373,-0.502 -1.874,-10e-4 l -0.323,0.324 -4.592,-3.877 V 8.139 l 4.592,-3.876 0.323,0.324 c 0.501,0.501 1.373,0.504 1.876,-0.003 0.33,-0.326 0.457,-0.798 0.34,-1.258 l -0.157,-0.621 h 7.535 l 3.039,-3.826 H 0.541 l 6.811,8.572 z"
       style="fill:#231f20;fill-opacity:1;fill-rule:nonzero;stroke:none"
       transform="matrix(0.35277776,0,0,-0.35277776,155.21376,180.5372)"
       clip-path="url(#clipPath1891)"
       inkscape:export-filename="fundsCP.svg"
       inkscape:export-xdpi="96"
       inkscape:export-ydpi="96" />
    <path
       style="fill:#ffffff;fill-rule:evenodd;stroke-width:0.170907"
       d="m 534.88518,676.77735 c -0.28685,-1.76765 -2.29652,-2.84679 -4.22533,-2.26891 l -0.6454,0.19337 -2.31217,-1.94517 -2.31217,-1.94516 -0.006,-1.87999 -0.006,-1.87998 2.34587,-1.96651 2.34587,-1.96651 0.73324,0.23308 c 0.91598,0.29118 2.03371,0.14227 2.79796,-0.37276 0.63304,-0.4266 1.33257,-1.53734 1.33685,-2.12269 l 0.003,-0.38454 h 3.5897 3.58971 l -1.96609,2.4737 -1.96608,2.47369 v 3.51651 3.5165 l 1.7365,2.17063 c 0.95507,1.19384 1.85144,2.30521 1.99192,2.46971 0.24208,0.28346 0.0677,0.29909 -3.33776,0.29909 h -3.59318 z"
       id="path1"
       transform="scale(0.26458333)" />
  </g>
</svg>
