<?xml version="1.0" encoding="UTF-8" standalone="no"?>
<!-- Created with Inkscape (http://www.inkscape.org/) -->

<svg
   width="207.23669mm"
   height="41.863209mm"
   viewBox="0 0 207.23669 41.863209"
   version="1.1"
   id="svg1"
   inkscape:export-filename="headerspellcastingpage.svg"
   inkscape:export-xdpi="96"
   inkscape:export-ydpi="96"
   xmlns:inkscape="http://www.inkscape.org/namespaces/inkscape"
   xmlns:sodipodi="http://sodipodi.sourceforge.net/DTD/sodipodi-0.dtd"
   xmlns="http://www.w3.org/2000/svg"
   xmlns:svg="http://www.w3.org/2000/svg">
  <sodipodi:namedview
     id="namedview1"
     pagecolor="#ffffff"
     bordercolor="#000000"
     borderopacity="0.25"
     inkscape:showpageshadow="2"
     inkscape:pageopacity="0.0"
     inkscape:pagecheckerboard="0"
     inkscape:deskcolor="#d1d1d1"
     inkscape:document-units="mm" />
  <defs
     id="defs1">
    <clipPath
       clipPathUnits="userSpaceOnUse"
       id="clipPath2747-1">
      <path
         d="M 0,0 H 612 V 792 H 0 Z"
         transform="translate(-55.000726,-733.91502)"
         id="path2747-8" />
    </clipPath>
    <clipPath
       clipPathUnits="userSpaceOnUse"
       id="clipPath2749-6">
      <path
         d="M 0,0 H 612 V 792 H 0 Z"
         transform="translate(-149.72048,-735.35442)"
         id="path2749-6" />
    </clipPath>
    <clipPath
       clipPathUnits="userSpaceOnUse"
       id="clipPath2751-7">
      <path
         d="M 0,0 H 612 V 792 H 0 Z"
         transform="translate(-188.74733,-728.44902)"
         id="path2751-4" />
    </clipPath>
    <clipPath
       clipPathUnits="userSpaceOnUse"
       id="clipPath2753-1">
      <path
         d="M 0,0 H 612 V 792 H 0 Z"
         transform="translate(-66.756977,-746.64012)"
         id="path2753-1" />
    </clipPath>
    <clipPath
       clipPathUnits="userSpaceOnUse"
       id="clipPath2755-9">
      <path
         d="M 0,0 H 612 V 792 H 0 Z"
         transform="translate(-90.283877,-738.71952)"
         id="path2755-5" />
    </clipPath>
    <clipPath
       clipPathUnits="userSpaceOnUse"
       id="clipPath2757-7">
      <path
         d="M 0,0 H 612 V 792 H 0 Z"
         transform="translate(-61.754177,-740.79862)"
         id="path2757-9" />
    </clipPath>
    <clipPath
       clipPathUnits="userSpaceOnUse"
       id="clipPath2760-3">
      <path
         d="M 0,0 H 612 V 792 H 0 Z"
         transform="translate(-259.41601,-753.06132)"
         id="path2760-3" />
    </clipPath>
    <clipPath
       clipPathUnits="userSpaceOnUse"
       id="clipPath2762-5">
      <path
         d="M 0,0 H 612 V 792 H 0 Z"
         transform="translate(-259.41601,-753.06132)"
         id="path2762-3" />
    </clipPath>
    <clipPath
       clipPathUnits="userSpaceOnUse"
       id="clipPath2768-1">
      <path
         d="M 0,0 H 612 V 792 H 0 Z"
         transform="translate(-261.60781,-697.71922)"
         id="path2768-9" />
    </clipPath>
    <clipPath
       clipPathUnits="userSpaceOnUse"
       id="clipPath2770-1">
      <path
         d="M 0,0 H 612 V 792 H 0 Z"
         transform="translate(-262.48568,-701.34232)"
         id="path2770-2" />
    </clipPath>
    <clipPath
       clipPathUnits="userSpaceOnUse"
       id="clipPath2772-1">
      <path
         d="M 0,0 H 612 V 792 H 0 Z"
         transform="translate(-261.60781,-697.71922)"
         id="path2772-2" />
    </clipPath>
    <clipPath
       clipPathUnits="userSpaceOnUse"
       id="clipPath2774-1">
      <path
         d="M 0,0 H 612 V 792 H 0 Z"
         transform="translate(-575.12754,-733.71072)"
         id="path2774-3" />
    </clipPath>
    <clipPath
       clipPathUnits="userSpaceOnUse"
       id="clipPath2776-0">
      <path
         d="M 0,0 H 612 V 792 H 0 Z"
         transform="translate(-574.52251,-730.87572)"
         id="path2776-4" />
    </clipPath>
    <clipPath
       clipPathUnits="userSpaceOnUse"
       id="clipPath2779-4">
      <path
         d="M 0,0 H 612 V 792 H 0 Z"
         transform="translate(-261.51368,-738.86502)"
         id="path2779-5" />
    </clipPath>
    <clipPath
       clipPathUnits="userSpaceOnUse"
       id="clipPath2781-3">
      <path
         d="M 0,0 H 612 V 792 H 0 Z"
         transform="translate(-575.40774,-738.86502)"
         id="path2781-6" />
    </clipPath>
    <clipPath
       clipPathUnits="userSpaceOnUse"
       id="clipPath2783-6">
      <path
         d="M 0,0 H 612 V 792 H 0 Z"
         transform="translate(-553.50931,-746.75172)"
         id="path2783-7" />
    </clipPath>
    <clipPath
       clipPathUnits="userSpaceOnUse"
       id="clipPath2785-9">
      <path
         d="M 0,0 H 612 V 792 H 0 Z"
         transform="translate(-577.50541,-753.06132)"
         id="path2785-2" />
    </clipPath>
    <clipPath
       clipPathUnits="userSpaceOnUse"
       id="clipPath2787-9">
      <path
         d="M 0,0 H 612 V 792 H 0 Z"
         transform="translate(-577.50541,-753.06132)"
         id="path2787-5" />
    </clipPath>
    <clipPath
       clipPathUnits="userSpaceOnUse"
       id="clipPath2791-3">
      <path
         d="M 0,0 H 612 V 792 H 0 Z"
         transform="translate(-280.05953,-723.75322)"
         id="path2791-0" />
    </clipPath>
    <clipPath
       clipPathUnits="userSpaceOnUse"
       id="clipPath2793-2">
      <path
         d="M 0,0 H 612 V 792 H 0 Z"
         transform="translate(-352.35203,-723.75322)"
         id="path2793-2" />
    </clipPath>
    <clipPath
       clipPathUnits="userSpaceOnUse"
       id="clipPath2798-3">
      <path
         d="M 0,0 H 612 V 792 H 0 Z"
         transform="translate(-380.77068,-723.75322)"
         id="path2798-0" />
    </clipPath>
    <clipPath
       clipPathUnits="userSpaceOnUse"
       id="clipPath2800-2">
      <path
         d="M 0,0 H 612 V 792 H 0 Z"
         transform="translate(-453.06319,-723.75322)"
         id="path2800-7" />
    </clipPath>
    <clipPath
       clipPathUnits="userSpaceOnUse"
       id="clipPath2805-7">
      <path
         d="M 0,0 H 612 V 792 H 0 Z"
         transform="translate(-484.56921,-723.75322)"
         id="path2805-6" />
    </clipPath>
    <clipPath
       clipPathUnits="userSpaceOnUse"
       id="clipPath2807-8">
      <path
         d="M 0,0 H 612 V 792 H 0 Z"
         transform="translate(-556.86171,-723.75322)"
         id="path2807-5" />
    </clipPath>
    <clipPath
       clipPathUnits="userSpaceOnUse"
       id="clipPath3272-5">
      <path
         d="m 182.16,747.72 h 50.849 v 23.4 H 182.16 Z"
         transform="translate(-231.40591,-753.00182)"
         id="path3272-0" />
    </clipPath>
    <clipPath
       clipPathUnits="userSpaceOnUse"
       id="clipPath3274-1">
      <path
         d="m 182.16,747.72 h 50.849 v 23.4 H 182.16 Z"
         transform="translate(-226.38391,-767.17822)"
         id="path3274-2" />
    </clipPath>
    <clipPath
       clipPathUnits="userSpaceOnUse"
       id="clipPath3276-9">
      <path
         d="m 182.16,747.72 h 50.849 v 23.4 H 182.16 Z"
         transform="translate(-217.92571,-754.81522)"
         id="path3276-6" />
    </clipPath>
    <clipPath
       clipPathUnits="userSpaceOnUse"
       id="clipPath3282">
      <path
         d="M 0,0 H 612 V 792 H 0 Z"
         transform="translate(-61.754229,-740.79862)"
         id="path3282" />
    </clipPath>
    <clipPath
       clipPathUnits="userSpaceOnUse"
       id="clipPath3286-9">
      <path
         d="M 0,0 H 612 V 792 H 0 Z"
         transform="translate(-280.05953,-723.75322)"
         id="path3286-3" />
    </clipPath>
    <clipPath
       clipPathUnits="userSpaceOnUse"
       id="clipPath3288-0">
      <path
         d="M 0,0 H 612 V 792 H 0 Z"
         transform="translate(-352.35203,-723.75322)"
         id="path3288-2" />
    </clipPath>
  </defs>
  <g
     inkscape:label="Layer 1"
     inkscape:groupmode="layer"
     id="layer1"
     transform="translate(2.4478024,-6.2286738)">
    <path
       id="path2679"
       d="m 27.286424,27.994024 8.203847,0.613833 -8.203847,0.613481 -8.202788,-0.613481 z m 49.106312,2.299758 8.203494,0.613481 8.204199,-0.613481 -8.204199,-0.613833 z m 40.320024,-5.994047 7.86201,-0.587727 -9.69433,-0.724959 14.8336,-1.10878 -13.21047,-0.988131 18.30105,-1.36772 -31.16368,-2.331155 8.37353,-0.625475 -15.28833,-1.143705 -13.583707,1.015999 -6.109406,-0.795513 14.988822,-1.119717 -12.01173,-0.898525 -8.371416,0.625475 -9.718675,-0.726722 -9.08438,0.679803 9.230077,0.690738 -10.169877,0.760589 -10.168114,-0.760589 5.893859,-0.440972 -7.041445,-0.526697 -22.51357,1.683103 7.977715,0.596547 L 0.74660059,18.096491 15.644758,19.210563 7.7827526,19.798291 17.47638,20.523249 2.6434866,21.631677 15.85325,22.62016 -2.4478024,23.98788 22.703136,25.869244 11.187058,26.730727 23.34378,27.63913 l 3.143955,-0.23495 9.142588,0.684036 13.584061,-1.016 6.102703,0.794455 -15.829844,1.183922 21.730405,1.624189 4.751563,-0.354894 -8.553802,-0.639939 12.21493,-0.913694 8.561211,0.640291 5.60458,-0.4191 7.980538,0.596547 22.513572,-1.68275 -7.97701,-0.596547 25.29734,-1.890536 z"
       style="fill:#dedfdf;fill-opacity:1;fill-rule:nonzero;stroke:none;stroke-width:0.352778" />
    <path
       id="path2680"
       d="m 62.113819,45.725446 6.664325,0.498475 -6.664325,0.498475 -6.663266,-0.498475 z m 39.889291,1.867958 6.66397,0.498475 6.66432,-0.498475 -6.66432,-0.498475 z m 32.75224,-4.868686 6.38633,-0.477661 -7.8747,-0.588786 12.04947,-0.900641 -10.73114,-0.80257 14.86605,-1.11125 -25.31427,-1.893358 6.80191,-0.508353 -12.41884,-0.928864 -11.03418,0.825148 -4.96253,-0.645936 12.17542,-0.909814 -9.75748,-0.729898 -6.799789,0.508353 -7.894814,-0.59055 -7.379052,0.552097 7.497233,0.56127 -8.260644,0.617714 -8.259586,-0.617714 4.787547,-0.35807 -5.719939,-0.427919 -18.287646,1.367014 6.480175,0.484716 -20.549658,1.535995 12.102041,0.904875 -6.386335,0.477308 7.874352,0.589139 -12.049125,0.900289 10.730442,0.802922 -14.866056,1.11125 20.430067,1.52788 -9.354256,0.699911 9.874955,0.738012 2.553759,-0.190853 7.426677,0.555625 11.034183,-0.8255 4.957233,0.645583 -12.858397,0.961672 17.651588,1.319389 3.859742,-0.288572 -6.948311,-0.519642 9.922227,-0.742244 6.954307,0.519994 4.5526,-0.340077 6.48264,0.484363 18.288,-1.367013 -6.47982,-0.484364 20.5493,-1.535995 z"
       style="fill:#dedfdf;fill-opacity:1;fill-rule:nonzero;stroke:none;stroke-width:0.352778" />
    <path
       id="path2681"
       d="m 132.75767,28.970407 5.49628,0.411339 -5.49628,0.410633 -5.49557,-0.410633 z m 32.89865,1.54058 5.49592,0.410987 5.49628,-0.410987 -5.49628,-0.411338 z m 27.01219,-4.015669 5.26697,-0.3937 -6.49464,-0.485422 9.93775,-0.74295 -8.85013,-0.662164 12.26044,-0.916164 -20.87775,-1.561747 5.60988,-0.4191 -10.24255,-0.766233 -9.10026,0.680508 -4.09293,-0.532695 10.04182,-0.750358 -8.04756,-0.601839 -5.60811,0.4191 -6.51122,-0.486833 -6.08612,0.455436 6.18384,0.462844 -6.8132,0.509412 -6.81214,-0.509412 3.94865,-0.295627 -4.71735,-0.352778 -15.08301,1.127478 5.34458,0.399697 -16.94815,1.266825 9.98114,0.746478 -5.26732,0.3937 6.49428,0.485422 -9.93704,0.74295 8.84978,0.662164 -12.26079,0.916164 16.84973,1.260475 -7.7149,0.577144 8.14423,0.608542 2.10608,-0.157339 6.12528,0.458258 9.10026,-0.680861 4.08869,0.532342 -10.60521,0.793397 14.55844,1.087967 3.18311,-0.237773 -5.73087,-0.428977 8.18338,-0.61207 5.73582,0.428978 3.75461,-0.280458 5.3467,0.399697 15.08266,-1.127478 -5.34388,-0.399697 16.9478,-1.266825 z"
       style="fill:#dedfdf;fill-opacity:1;fill-rule:nonzero;stroke:none;stroke-width:0.352778" />
    <path
       id="path2746"
       d="m 0,0 v 12.239 h 7.56 c 0,0 3.8,-1.8 9.64,6.481 h 12.68 l 5.04,3.548 c 0,0 4.32,6.171 8.28,6.171 3.96,0 19.72,7.201 19.72,7.201 l 17,3.724 20.16,-5.885 10.72,-4.32 c 0,0 16.37,-6.088 14.12,-15.959 0,0 1.96,8.22 -14.12,13.8 0,0 8.72,-6.361 6.92,-10.08 0,0 9.36,-6.451 10.8,-11.687 0,0 20.88,-6.191 29.16,7.967 0,0 -2.95,-6.691 -5.76,-7.967 0,0 19.44,-11.591 38.16,7.967 0,0 -13.48,-11.761 -12.6,-16.621 l -53.28,1.62 c 0,0 0.552,23.517 -32.664,25.561 C 58.32,25.804 54.72,9.18 57.42,2.88 Z"
       style="fill:#ffffff;fill-opacity:1;fill-rule:nonzero;stroke:none"
       transform="matrix(0.35277776,0,0,-0.35277776,13.62604,26.873954)"
       clip-path="url(#clipPath2747-1)" />
    <path
       id="path2748"
       d="m 0,0 c 0,0 6.08,22.32 26.96,-3.24 0,0 -14.569,28.44 -30.144,3.96 z"
       style="fill:#ffffff;fill-opacity:1;fill-rule:nonzero;stroke:none"
       transform="matrix(0.35277776,0,0,-0.35277776,47.041062,26.366166)"
       clip-path="url(#clipPath2749-6)" />
    <path
       id="path2750"
       d="m 0,0 c 0.793,-3.441 1.211,-7.177 1.159,-11.244 0,0 0.629,4.801 -1.159,11.244 m -98.202,15.517 -0.168,-0.317 -0.312,-0.177 0.318,-0.168 0.178,-0.311 0.166,0.317 0.313,0.176 -0.318,0.169 z m -20.039,-13.435 -0.301,-0.572 -0.562,-0.32 0.572,-0.301 0.319,-0.563 0.301,0.572 0.563,0.32 -0.572,0.302 z m 21.964,15.613 -0.418,-0.795 -0.78,-0.442 0.794,-0.418 0.444,-0.78 0.417,0.794 0.779,0.443 -0.793,0.418 z m -2.998,-3.2 -0.158,-0.303 -0.296,-0.167 0.301,-0.159 0.168,-0.295 0.159,0.301 0.295,0.169 -0.3,0.158 z m -24.405,-12.702 -0.27,-0.512 -0.504,-0.286 0.513,-0.269 0.285,-0.503 0.269,0.511 0.504,0.287 -0.512,0.269 z m 1.865,-0.931 -0.2,-0.383 -0.377,-0.212 0.383,-0.201 0.213,-0.378 0.201,0.384 0.376,0.213 -0.383,0.201 z m -0.304,-1.464 -0.148,-0.282 -0.279,-0.159 0.284,-0.149 0.157,-0.28 0.151,0.284 0.279,0.159 -0.284,0.15 z M 23.62,4.293 C 23.625,3.991 23.874,3.749 24.177,3.755 24.479,3.759 24.72,4.009 24.715,4.311 24.71,4.613 24.461,4.855 24.158,4.849 23.856,4.845 23.615,4.595 23.62,4.293 m 5.675,4.655 c 0.252,0.004 0.453,0.211 0.449,0.463 C 29.74,9.663 29.532,9.865 29.28,9.859 29.028,9.856 28.827,9.648 28.831,9.396 28.835,9.144 29.043,8.944 29.295,8.948 M 25.954,6.703 C 26.458,6.711 26.86,7.126 26.852,7.63 26.844,8.134 26.429,8.537 25.924,8.528 25.42,8.52 25.019,8.105 25.027,7.601 25.035,7.097 25.45,6.695 25.954,6.703 m 29.388,17.084 c 0.251,0.004 0.452,0.212 0.448,0.464 -0.004,0.252 -0.212,0.452 -0.463,0.448 -0.253,-0.003 -0.454,-0.211 -0.449,-0.463 0.003,-0.253 0.211,-0.453 0.464,-0.449 m -3.591,-3.708 c 0.554,0.009 0.995,0.466 0.986,1.019 -0.008,0.555 -0.465,0.997 -1.019,0.988 -0.555,-0.009 -0.996,-0.465 -0.987,-1.02 0.008,-0.554 0.465,-0.996 1.02,-0.987 m -3.508,-3.251 c 0.003,-0.252 0.212,-0.453 0.463,-0.449 0.253,0.005 0.454,0.212 0.45,0.463 -0.004,0.253 -0.212,0.454 -0.464,0.449 -0.252,-0.004 -0.453,-0.211 -0.449,-0.463 m 0.706,1.477 0.281,0.532 0.522,0.297 -0.532,0.28 -0.297,0.523 -0.281,-0.532 -0.522,-0.298 0.532,-0.28 z m 2.583,-1.697 0.313,0.595 0.585,0.331 -0.595,0.313 -0.332,0.585 -0.313,-0.595 -0.584,-0.332 0.594,-0.313 z m 21.601,16.185 -0.332,0.585 -0.313,-0.595 -0.584,-0.332 0.595,-0.313 0.332,-0.584 0.312,0.594 0.585,0.332 z m -4.675,-1.77 -0.531,-1.009 -0.992,-0.564 1.009,-0.531 0.564,-0.992 0.531,1.009 0.993,0.564 -1.01,0.531 z m 2.236,-2.821 -0.177,-0.337 -0.331,-0.188 0.337,-0.176 0.188,-0.332 0.177,0.337 0.331,0.188 -0.337,0.176 z m -2.172,-1.129 -0.365,-0.695 -0.683,-0.387 0.695,-0.365 0.387,-0.684 0.366,0.696 0.681,0.386 -0.694,0.366 z M 36.372,4.794 C 30.034,5.608 21.599,6.221 15.715,4.862 14.285,4.17 11.87,2.668 13.088,0.838 c 1.152,-1.73 16.85,0.106 23.284,3.956 m 28.385,29.367 c 0,0 2.313,-7.629 1.124,-13.124 0,0 0.1,5.111 -1.887,3.802 -1.986,-1.309 -10.085,-8.559 -3.82,-12.108 0,0 -14.049,-0.409 -14.999,-9.369 0,0 -3.184,0.665 -7.668,1.28 C 36.922,4.231 36.205,3.811 35.317,3.386 26.989,-0.594 5.795,-5.107 11.896,3.467 9.105,1.897 7.84,-0.665 9.345,-4.698 c 0,0 -4.883,8.5 7.852,11.078 0,0 -2.94,1.231 -1.316,2.351 0,0 11.85,-4.3 22.581,-2.212 1.09,1.412 0.875,3.01 -1.447,4.743 0,0 3.604,-1.916 2.423,-4.535 2.93,0.684 5.746,1.869 8.176,3.793 0,0 -3.815,-1.156 -5.633,-1.55 0,0 3.401,1.283 7.666,4.343 l -0.283,0.498 -1.388,0.731 1.363,0.774 0.732,1.389 0.774,-1.364 0.861,-0.453 c 4.899,3.976 10.357,10.176 13.051,19.273 M -10.33,1.664 c -0.01,-0.029 -0.019,-0.056 -0.03,-0.082 0.012,0.026 0.02,0.055 0.03,0.082 m 0.007,0.019 c -0.003,-0.007 -0.004,-0.013 -0.007,-0.019 0.003,0.006 0.005,0.012 0.007,0.019 M -10.36,1.582 c -0.081,-0.194 -0.175,-0.387 -0.284,-0.579 0,0 0.146,0.206 0.284,0.579 m -66.024,4.784 -0.319,-0.606 -0.596,-0.339 0.607,-0.319 0.338,-0.596 0.319,0.606 0.595,0.339 -0.605,0.32 z m -2.66,2.897 -0.282,-0.536 -0.527,-0.298 0.535,-0.282 0.3,-0.527 0.282,0.537 0.526,0.298 -0.535,0.282 z m -3.031,-1.169 -0.445,-0.847 -0.833,-0.474 0.848,-0.443 0.471,-0.833 0.446,0.848 0.832,0.471 -0.847,0.446 z m 77.244,9.083 0.353,0.669 0.657,0.374 -0.669,0.352 -0.374,0.658 -0.352,-0.67 -0.657,-0.373 0.669,-0.353 z m 26.631,-3.736 -0.212,-0.402 -0.394,-0.224 0.402,-0.212 0.224,-0.395 0.211,0.403 0.395,0.224 -0.402,0.211 z m -6.557,1.489 0.536,1.019 1.002,0.57 -1.019,0.536 -0.569,1.002 -0.537,-1.019 -1.001,-0.569 1.019,-0.538 z m -5.325,-2.933 0.268,0.51 0.501,0.284 -0.51,0.268 -0.284,0.501 -0.269,-0.51 -0.5,-0.285 0.509,-0.267 z m -3.15,0.877 0.34,-0.18 0.19,-0.336 0.18,0.341 0.335,0.191 -0.341,0.18 -0.191,0.335 -0.179,-0.341 z M 6.108,14.16 6.51,14.923 7.259,15.349 6.496,15.751 6.07,16.501 5.669,15.738 4.918,15.311 5.682,14.909 Z m -3.164,-1.896 0.537,1.019 1.001,0.569 -1.019,0.537 -0.57,1.002 -0.536,-1.019 -1.001,-0.57 1.019,-0.536 z m -32.708,11.459 0.459,0.873 0.857,0.487 -0.873,0.46 -0.487,0.856 -0.459,-0.871 -0.858,-0.489 0.873,-0.458 z m -2.138,3.876 -0.335,-0.635 -0.624,-0.356 0.635,-0.334 0.355,-0.624 0.334,0.636 0.624,0.355 -0.635,0.335 z m 15.805,-3.3 c -1.538,4.643 -8.805,11.889 -38.168,14.541 0,0 7.663,-0.716 17.288,-3.885 -0.071,-0.165 -0.114,-0.346 -0.111,-0.537 0.011,-0.722 0.605,-1.297 1.327,-1.285 0.599,0.01 1.075,0.428 1.221,0.98 6.023,-2.182 12.596,-5.321 18.443,-9.814 m -16.589,7.25 c -0.002,0.12 -0.101,0.216 -0.221,0.214 -0.121,-0.002 -0.217,-0.101 -0.215,-0.221 0.002,-0.121 0.102,-0.217 0.222,-0.215 0.12,0.002 0.216,0.101 0.214,0.222 m -1.103,0.853 c -0.002,0.18 -0.151,0.324 -0.331,0.322 -0.181,-0.003 -0.325,-0.153 -0.322,-0.333 0.003,-0.18 0.151,-0.324 0.332,-0.32 0.181,0.003 0.325,0.151 0.321,0.331 m -5.151,2.096 c -0.005,0.299 -0.253,0.54 -0.554,0.534 -0.301,-0.004 -0.54,-0.252 -0.535,-0.552 0.005,-0.301 0.252,-0.541 0.552,-0.536 0.302,0.005 0.542,0.252 0.537,0.554 m -1.179,-1.217 c -0.004,0.3 -0.252,0.54 -0.553,0.535 -0.301,-0.004 -0.54,-0.253 -0.535,-0.552 0.004,-0.302 0.252,-0.541 0.552,-0.537 0.301,0.005 0.541,0.253 0.536,0.554 m -2.534,1.81 c -0.004,0.3 -0.252,0.541 -0.553,0.536 -0.301,-0.005 -0.541,-0.253 -0.536,-0.554 0.005,-0.301 0.253,-0.54 0.554,-0.535 0.3,0.004 0.541,0.252 0.535,0.553 m -2.543,0.176 -0.474,0.25 -0.264,0.465 -0.249,-0.473 -0.465,-0.265 0.473,-0.25 0.264,-0.464 0.249,0.472 z m -2.459,-0.619 -0.473,0.248 -0.264,0.465 -0.249,-0.474 -0.465,-0.262 0.473,-0.249 0.264,-0.465 0.249,0.472 z m 10.304,2.597 c 0,0 -10.868,5.379 -28.158,3.793 0,0 -3.866,-3.328 -9.522,-3.746 0,0 -11.477,-4.105 -17.156,-9.859 0,0 2.576,2.327 5.093,1.605 0,0 24.311,18.578 49.743,8.207 M -90.998,21.932 c 1.096,1.096 7.929,7.839 7.929,7.839 0,0 -7.582,-5.673 -12.498,-6.353 -2.181,-0.303 -6.391,-0.024 -11.465,-0.659 -3.118,-1.563 -7.855,-3.814 -8.048,-3.176 -0.113,0.372 0.294,1.004 0.83,1.635 -4.533,-1.416 -9.29,-3.861 -13.663,-8.134 0,0 -2.412,-1.533 -1.822,-1.871 0.591,-0.337 1.18,-0.675 1.18,-0.675 0,0 -3.036,-2.022 -2.194,-3.287 0.845,-1.264 8.113,4.162 8.113,4.162 0,0 -3.257,-3.557 -5.903,-5.394 -2.648,-1.837 -2.565,-4.703 -2.077,-6.423 0,0 0.978,-4.034 5.918,-2.92 l -0.299,0.525 -0.955,0.503 0.938,0.533 0.504,0.954 0.533,-0.937 0.955,-0.502 -0.939,-0.534 -0.216,-0.411 c 0.279,0.08 0.559,0.162 0.861,0.273 6.157,2.275 13.778,0.484 17.016,-0.208 3.236,-0.693 7.302,4.061 9.31,8.832 0,0 0.978,-0.151 2.277,1.516 0,0 -1.046,-2.596 -0.373,-3.608 0.675,-1.012 2.226,-0.271 2.547,0.454 l -0.724,1.417 c 0,0 2.445,1.265 3.981,4.333 1.535,3.069 0.044,6.239 -1.145,7.529 0,0 1.164,-1.088 1.585,-1.721 0,0 0.686,5.498 3.604,7.917 0,0 -5.339,-3.338 -6.182,-3.716 -0.844,-0.38 -0.675,1.011 0.422,2.107 m -5.689,-22.315 c -5.784,-6.391 -11.164,-3.875 -11.164,-3.875 5.417,-4.843 11.164,3.875 11.164,3.875 m -2.129,26.945 c 0.004,-0.24 0.202,-0.43 0.443,-0.427 0.24,0.004 0.432,0.201 0.428,0.442 -0.004,0.24 -0.201,0.433 -0.442,0.429 -0.241,-0.004 -0.433,-0.202 -0.429,-0.444 m 3.008,2.555 c 0.006,-0.361 0.304,-0.649 0.664,-0.643 0.361,0.005 0.648,0.303 0.642,0.663 -0.006,0.361 -0.302,0.649 -0.663,0.643 -0.361,-0.006 -0.648,-0.303 -0.643,-0.663 m 1.327,-1.286 c 0.004,-0.241 0.203,-0.433 0.443,-0.427 0.241,0.003 0.432,0.2 0.429,0.441 -0.004,0.241 -0.202,0.433 -0.443,0.428 -0.24,-0.003 -0.433,-0.201 -0.429,-0.442 m 2.038,1.993 c -0.361,-0.007 -0.649,-0.302 -0.643,-0.663 0.006,-0.361 0.303,-0.65 0.664,-0.643 0.361,0.005 0.649,0.303 0.642,0.664 -0.005,0.36 -0.303,0.648 -0.663,0.642 m -1.22,1.76 0.682,-0.36 0.381,-0.671 0.358,0.683 0.672,0.381 -0.683,0.359 -0.381,0.672 -0.359,-0.683 z M 0.435,6.521 C 0.162,6.773 -1.05,7.328 -2.823,8.171 -1.642,5.653 -0.678,2.94 0,0 c -0.736,2.652 -1.893,5.583 -3.663,8.571 -3.21,1.542 -7.823,3.883 -12.185,6.981 4.938,-3.846 12.618,-10.32 11.877,-12.856 0,0 -0.377,1.004 -1.099,0.678 -0.642,-0.289 -2.731,-2.847 -5.184,-1.491 -0.023,-0.067 -0.043,-0.134 -0.069,-0.2 0.021,0.064 0.043,0.132 0.062,0.204 -0.298,0.166 -0.601,0.378 -0.908,0.672 0,0 0.409,-0.225 0.972,-0.396 0.363,1.807 -0.186,5.52 -8.287,9.666 0,0 -2.744,0.32 -2.892,-1.872 0,0 -8.65,4.424 -9.144,1.131 -0.495,-3.294 4.27,-4.495 4.27,-4.495 l -9.121,-0.33 c 0,0 -0.803,4.551 2.237,8.433 0,0 -0.15,-2.01 1.666,-1.434 1.816,0.577 5.767,4.657 4.63,7.194 0,0 4.038,-1.394 6.26,-3.367 2.089,-1.853 12.155,-8.897 10.418,-14.936 1.14,-0.337 2.891,-0.431 3.296,1.968 0.496,2.949 -7.222,9.89 -11.075,12.994 -0.109,0.087 -0.218,0.174 -0.327,0.262 -0.179,0.142 -0.348,0.276 -0.505,0.396 0.07,-0.051 0.148,-0.109 0.224,-0.166 -2.451,2.002 -4.697,4.26 -6.399,6.772 0,0 7.873,-7.719 18.279,-11.485 -2.26,2.798 -5.147,5.558 -8.849,8.097 -0.136,-0.299 -0.307,-0.574 -0.529,-0.815 0,0 0.161,0.37 0.254,1.007 -8.24,5.564 -20.418,10.037 -38.391,11.502 0,0 -15.936,0.344 -15.079,-7.633 0,0 -0.27,-2.225 3.135,-3.172 0,0 -3.575,0.103 -5.699,0.66 0,0 0.422,1.013 -0.539,1.029 -0.961,0.017 -14.016,-8.458 -13.394,-14.546 0,0 3.287,-10e-4 6.36,6.135 0,0 -1.504,-4.433 -2.347,-6.457 0,0 -4.201,-1.482 -5.128,-5.023 -0.929,-3.541 -1.84,-5.025 -1.84,-5.025 0,0 -15.342,-12.837 -28.659,-14.445 0,0 -5.943,-0.741 -10.103,1.959 l 2.402,0.1 c 0,0 -9.236,1.464 -13.171,7.209 -3.935,5.747 -8.091,18.104 -6.652,25.93 0,0 0.89,-7.133 3.587,-11.02 0,0 2.583,22.853 21.879,35.922 0,0 -5.253,-6.287 -5.13,-8.89 0,0 -2.08,0.546 -4.507,-4.182 -2.429,-4.728 -2.209,-12.949 4.329,-12.135 6.537,0.815 8.099,7.649 7.036,11.34 0,0 1.142,-2.927 3.812,-2.08 2.668,0.847 5.159,3.109 5.159,3.109 0,0 -1.532,-5.842 8.638,-3.341 l -2.921,0.354 c 0,0 14.737,11.189 23.25,14.612 0,0 -7.198,-4.082 -11.853,-7.951 0,0 23.09,13.7 46.342,8.515 0.661,-0.147 1.287,-0.318 1.927,-0.479 l -0.084,0.043 c 0,0 0.191,-0.058 0.534,-0.156 0.614,-0.158 1.22,-0.32 1.814,-0.491 3.922,-1.022 11.772,-2.808 15.773,-1.908 0,0 -3.434,-1.24 -2.987,-2.427 0.448,-1.187 7.588,-3.712 7.588,-3.712 0,0 -2.069,-0.614 -0.148,-2.553 l -0.039,0.02 c 3.247,-2.99 5.132,-5.962 5.588,-8.32 3.892,-3.11 7.423,-6.842 10.211,-11.313 8.504,-2.673 18.456,-2.454 27.137,6.614 0,0 -4.356,-5.856 -4.021,-7.085 0.336,-1.23 3.352,-1.399 3.352,-1.399 l 0.861,-1.799 c 0,0 -7.275,3.724 -14.083,-0.665 0,0 0.525,-1.297 4.336,-0.551 0,0 -0.581,-0.435 -2.985,-0.825 C 7.097,6.262 5.051,5.916 7.956,3.01 c 0,0 -3.163,0.604 -8.471,2.395 0,0 2.079,0.078 0.95,1.116 m -20.271,12.032 c 0.217,-0.14 0.587,-0.409 1.065,-0.78 -0.666,0.494 -1.065,0.78 -1.065,0.78"
       style="fill:#000000;fill-opacity:1;fill-rule:nonzero;stroke:none"
       transform="matrix(0.35277776,0,0,-0.35277776,60.808868,28.802238)"
       clip-path="url(#clipPath2751-7)" />
    <path
       id="path2752"
       d="m 0,0 c 0,0 -6.538,-4.643 -4.737,-6.253 1.8,-1.61 4.642,1.421 4.642,1.421 0,0 -0.852,-2.179 0,-2.463 0.853,-0.284 3.979,3.126 9.19,1.61 0,0 -4.737,-0.189 -3.695,-3.126 l -16.769,-1.042 0.19,4.358 c 0,0 6.537,5.305 11.179,5.495"
       style="fill:#000000;fill-opacity:1;fill-rule:nonzero;stroke:none"
       transform="matrix(0.35277776,0,0,-0.35277776,17.773384,22.384822)"
       clip-path="url(#clipPath2753-1)" />
    <path
       id="path2754"
       d="m 0,0 c 0,0 3.655,-0.086 5.047,2.61 0,0 0.347,-1.13 1.479,-0.782 1.131,0.347 2.523,2.088 1.827,3.828 0,0 1.305,-2.002 0.261,-4.003 0,0 -1.654,-0.87 -1.566,-1.914 z"
       style="fill:#000000;fill-opacity:1;fill-rule:nonzero;stroke:none"
       transform="matrix(0.35277776,0,0,-0.35277776,26.073151,25.179033)"
       clip-path="url(#clipPath2755-9)" />
    <path
       id="path2756"
       d="m 0,0 c 0,0 -0.97,1.973 0.78,5.035 0,0 -1.048,-2.912 0.375,-3.562 z"
       style="fill:#ffffff;fill-opacity:1;fill-rule:nonzero;stroke:none"
       transform="matrix(0.35277776,0,0,-0.35277776,16.008507,24.445573)"
       clip-path="url(#clipPath2757-7)" />
    <path
       id="path2758"
       d="m 23.050419,20.773403 1.655586,-1.058686 -1.432983,1.21285 z"
       style="fill:#ffffff;fill-opacity:1;fill-rule:nonzero;stroke:none;stroke-width:0.352778" />
    <path
       id="path2759"
       d="m 0,0 -0.001,-73.258 c 1.048,2.516 2.098,3.565 2.098,3.565 l 10e-4,66.129 c 0,0 -1.05,1.046 -2.098,3.564"
       style="fill:#ffffff;fill-opacity:1;fill-rule:nonzero;stroke:none"
       transform="matrix(0.35277776,0,0,-0.35277776,85.739205,20.119565)"
       clip-path="url(#clipPath2760-3)" />
    <path
       id="path2761"
       d="m 0,0 -0.001,-73.258 c 1.048,2.516 2.098,3.565 2.098,3.565 l 10e-4,66.129 c 0,0 -1.05,1.046 -2.098,3.564 z"
       style="fill:none;stroke:#000000;stroke-width:1.25;stroke-linecap:butt;stroke-linejoin:miter;stroke-miterlimit:10;stroke-dasharray:none;stroke-opacity:1"
       transform="matrix(0.35277776,0,0,-0.35277776,85.739205,20.119565)"
       clip-path="url(#clipPath2762-5)" />
    <path
       id="path2763"
       d="M 5.2605496,29.314259 V 42.543425 L 17.78416,40.906889 V 27.67737 Z"
       style="fill:#ffffff;fill-opacity:1;fill-rule:nonzero;stroke:none;stroke-width:0.352778" />
    <path
       id="path2764"
       d="M 5.2605496,29.314259 V 42.543425 L 17.78416,40.906889 V 27.677723 Z"
       style="fill:none;stroke:#000000;stroke-width:0.485069;stroke-linecap:butt;stroke-linejoin:miter;stroke-miterlimit:10;stroke-dasharray:none;stroke-opacity:1" />
    <path
       id="path2765"
       d="M 5.5343936,41.561256 17.784249,39.823826 M 5.5343936,30.199343 17.784249,28.640771"
       style="fill:none;stroke:#000000;stroke-width:0.264583;stroke-linecap:butt;stroke-linejoin:miter;stroke-miterlimit:10;stroke-dasharray:none;stroke-opacity:1" />
    <path
       id="path2766"
       d="M 17.784152,27.677864 9.2402266,26.413861 v 13.229166 l 8.5439254,1.264003 z"
       style="fill:#c3c4c6;fill-opacity:1;fill-rule:nonzero;stroke:#000000;stroke-width:0.485069;stroke-linecap:butt;stroke-linejoin:miter;stroke-miterlimit:10;stroke-dasharray:none;stroke-opacity:1" />
    <path
       id="path2767"
       d="M 0,0 C -61.753,-11.25 -157.286,11.25 -219.039,0 V 37.5 C -157.286,48.75 -61.753,26.25 0,37.5 Z"
       style="fill:#ffffff;fill-opacity:1;fill-rule:nonzero;stroke:none"
       transform="matrix(0.35277776,0,0,-0.35277776,86.512424,39.643027)"
       clip-path="url(#clipPath2768-1)" />
    <path
       id="path2769"
       d="m 0,0 c 0,0 -20.5,-8.666 -114.666,-0.333 -66.51,5.886 -99.718,0.727 -104.856,-0.173 M -0.878,30.955 c 0,0 -19.872,-8.038 -114.038,0.295 -66.51,5.886 -99.718,0.726 -104.856,-0.173"
       style="fill:none;stroke:#000000;stroke-width:0.75;stroke-linecap:butt;stroke-linejoin:miter;stroke-miterlimit:10;stroke-dasharray:none;stroke-opacity:1"
       transform="matrix(0.35277776,0,0,-0.35277776,86.822119,38.364878)"
       clip-path="url(#clipPath2770-1)" />
    <path
       id="path2771"
       d="M 0,0 C -61.753,-11.25 -157.286,11.25 -219.039,0 V 37.5 C -157.286,48.75 -61.753,26.25 0,37.5 Z"
       style="fill:none;stroke:#000000;stroke-width:1.375;stroke-linecap:butt;stroke-linejoin:miter;stroke-miterlimit:10;stroke-dasharray:none;stroke-opacity:1"
       transform="matrix(0.35277776,0,0,-0.35277776,86.512424,39.643027)"
       clip-path="url(#clipPath2772-1)" />
    <path
       id="path2773"
       d="m 0,0 v -38.142 c 14.567,0.085 16.462,0 18.946,3.228 v 37.5 C 14.287,0.112 9.473,0.037 0,0 Z"
       style="fill:none;stroke:#000000;stroke-width:1.375;stroke-linecap:butt;stroke-linejoin:miter;stroke-miterlimit:10;stroke-dasharray:none;stroke-opacity:1"
       transform="matrix(0.35277776,0,0,-0.35277776,197.11521,26.946027)"
       clip-path="url(#clipPath2774-1)" />
    <path
       id="path2775"
       d="M 0,0 C 16.235,0.054 17.687,1.176 19.157,2.303 M 0.603,-32.193 c 19.602,-2.231 17.932,3.579 18.804,3.754"
       style="fill:none;stroke:#000000;stroke-width:0.75;stroke-linecap:butt;stroke-linejoin:miter;stroke-miterlimit:10;stroke-dasharray:none;stroke-opacity:1"
       transform="matrix(0.35277776,0,0,-0.35277776,196.90177,27.946152)"
       clip-path="url(#clipPath2776-0)" />
    <path
       id="path2777"
       d="M 197.21415,43.738149 H 86.47933 V 22.345 h 110.73482 z"
       style="fill:#e0e1e1;fill-opacity:1;fill-rule:nonzero;stroke:#000000;stroke-width:0.440972;stroke-linecap:butt;stroke-linejoin:miter;stroke-miterlimit:10;stroke-dasharray:none;stroke-opacity:1" />
    <path
       id="path2778"
       d="m 0,0 c 0,0 1.067,10.333 8.401,10.333 h 22 c 0,0 7.166,-2.445 20.5,-2.445 M -0.001,-44.866 c 0,0 1.067,-10.333 8.401,-10.333 h 22 c 0,0 7.166,2.445 20.5,2.445"
       style="fill:none;stroke:#000000;stroke-width:1.25;stroke-linecap:butt;stroke-linejoin:miter;stroke-miterlimit:10;stroke-dasharray:none;stroke-opacity:1"
       transform="matrix(0.35277776,0,0,-0.35277776,86.479219,25.127704)"
       clip-path="url(#clipPath2779-4)" />
    <path
       id="path2780"
       d="m 0,0 c 0,0 -1.067,10.333 -8.401,10.333 h -22 c 0,0 -7.166,-2.445 -20.5,-2.445 M 0.001,-44.866 c 0,0 -1.067,-10.333 -8.401,-10.333 h -22 c 0,0 -7.166,2.445 -20.5,2.445"
       style="fill:none;stroke:#000000;stroke-width:1.25;stroke-linecap:butt;stroke-linejoin:miter;stroke-miterlimit:10;stroke-dasharray:none;stroke-opacity:1"
       transform="matrix(0.35277776,0,0,-0.35277776,197.21406,25.127704)"
       clip-path="url(#clipPath2781-3)" />
    <path
       id="path2782"
       d="m 0,0 c -5.202,-0.907 -11.465,-1.923 -17.206,-1.923 h -235.685 c -5.741,0 -12.004,1.016 -17.206,1.923 m 0,-60.641 c 5.202,0.908 11.465,1.923 17.206,1.923 h 235.685 c 5.741,0 12.004,-1.015 17.206,-1.923"
       style="fill:none;stroke:#000000;stroke-width:0.75;stroke-linecap:butt;stroke-linejoin:miter;stroke-miterlimit:10;stroke-dasharray:none;stroke-opacity:1"
       transform="matrix(0.35277776,0,0,-0.35277776,189.48878,22.345452)"
       clip-path="url(#clipPath2783-6)" />
    <path
       id="path2784"
       d="m 0,0 0.001,-73.258 c -1.048,2.516 -2.098,3.565 -2.098,3.565 l -10e-4,66.129 c 0,0 1.05,1.046 2.098,3.564"
       style="fill:#ffffff;fill-opacity:1;fill-rule:nonzero;stroke:none"
       transform="matrix(0.35277776,0,0,-0.35277776,197.95408,20.119565)"
       clip-path="url(#clipPath2785-9)" />
    <path
       id="path2786"
       d="m 0,0 0.001,-73.258 c -1.048,2.516 -2.098,3.565 -2.098,3.565 l -10e-4,66.129 c 0,0 1.05,1.046 2.098,3.564 z"
       style="fill:none;stroke:#000000;stroke-width:1.25;stroke-linecap:butt;stroke-linejoin:miter;stroke-miterlimit:10;stroke-dasharray:none;stroke-opacity:1"
       transform="matrix(0.35277776,0,0,-0.35277776,197.95408,20.119565)"
       clip-path="url(#clipPath2787-9)" />
    <path
       id="path2788"
       d="m 139.91108,24.717919 h -21.70889 l -2.23555,2.814108 v 5.8547 l 2.23485,2.813755 h 21.7103 l 2.2352,-2.813755 v -5.8547 z"
       style="fill:#ffffff;fill-opacity:1;fill-rule:nonzero;stroke:#000000;stroke-width:0.485069;stroke-linecap:butt;stroke-linejoin:miter;stroke-miterlimit:10;stroke-dasharray:none;stroke-opacity:1" />
    <path
       id="path2789"
       d="m 116.64032,26.683313 v 7.663744 m 0,-1.0795 2.36925,2.932994 m -3.5e-4,-11.482563 -2.36926,2.932642"
       style="fill:none;stroke:#000000;stroke-width:0.211667;stroke-linecap:butt;stroke-linejoin:miter;stroke-miterlimit:10;stroke-dasharray:none;stroke-opacity:1" />
    <path
       id="path2790"
       d="M 0,0 C 0,-0.525 0.426,-0.951 0.95,-0.951 1.475,-0.951 1.9,-0.525 1.9,0 1.9,0.523 1.475,0.949 0.95,0.949 0.426,0.949 0,0.523 0,0"
       style="fill:#000000;fill-opacity:1;fill-rule:nonzero;stroke:none"
       transform="matrix(0.35277776,0,0,-0.35277776,116.30511,30.45881)"
       clip-path="url(#clipPath2791-3)" />
    <path
       id="path2792"
       d="m 0,0 c 0,-0.525 -0.426,-0.951 -0.95,-0.951 -0.525,0 -0.95,0.426 -0.95,0.951 0,0.523 0.425,0.949 0.95,0.949 C -0.426,0.949 0,0.523 0,0"
       style="fill:#000000;fill-opacity:1;fill-rule:nonzero;stroke:none"
       transform="matrix(0.35277776,0,0,-0.35277776,141.8083,30.45881)"
       clip-path="url(#clipPath2793-2)" />
    <path
       id="path2794"
       d="m 141.47308,26.683313 v 7.663744 m 0,-1.0795 -2.36926,2.932994 m 3.6e-4,-11.482563 2.36925,2.932642"
       style="fill:none;stroke:#000000;stroke-width:0.211667;stroke-linecap:butt;stroke-linejoin:miter;stroke-miterlimit:10;stroke-dasharray:none;stroke-opacity:1" />
    <path
       id="path2795"
       d="M 166.62029,24.717919 H 144.9114 l -2.23555,2.814108 v 5.8547 l 2.23485,2.813755 h 21.7103 l 2.2352,-2.813755 v -5.8547 z"
       style="fill:#ffffff;fill-opacity:1;fill-rule:nonzero;stroke:#000000;stroke-width:0.485069;stroke-linecap:butt;stroke-linejoin:miter;stroke-miterlimit:10;stroke-dasharray:none;stroke-opacity:1" />
    <path
       id="path2796"
       d="m 143.34955,26.683313 v 7.663744 m 0,-1.0795 2.36926,2.932994 m -3.6e-4,-11.482563 -2.36925,2.932642"
       style="fill:none;stroke:#000000;stroke-width:0.211667;stroke-linecap:butt;stroke-linejoin:miter;stroke-miterlimit:10;stroke-dasharray:none;stroke-opacity:1" />
    <path
       id="path2797"
       d="M 0,0 C 0,-0.525 0.426,-0.951 0.95,-0.951 1.475,-0.951 1.9,-0.525 1.9,0 1.9,0.523 1.475,0.949 0.95,0.949 0.426,0.949 0,0.523 0,0"
       style="fill:#000000;fill-opacity:1;fill-rule:nonzero;stroke:none"
       transform="matrix(0.35277776,0,0,-0.35277776,143.01433,30.45881)"
       clip-path="url(#clipPath2798-3)" />
    <path
       id="path2799"
       d="m 0,0 c 0,-0.525 -0.426,-0.951 -0.95,-0.951 -0.525,0 -0.95,0.426 -0.95,0.951 0,0.523 0.425,0.949 0.95,0.949 C -0.426,0.949 0,0.523 0,0"
       style="fill:#000000;fill-opacity:1;fill-rule:nonzero;stroke:none"
       transform="matrix(0.35277776,0,0,-0.35277776,168.51751,30.45881)"
       clip-path="url(#clipPath2800-2)" />
    <path
       id="path2801"
       d="m 168.18229,26.683313 v 7.663744 m 0,-1.0795 -2.36926,2.932994 m 3.6e-4,-11.482563 2.36925,2.932642"
       style="fill:none;stroke:#000000;stroke-width:0.211667;stroke-linecap:butt;stroke-linejoin:miter;stroke-miterlimit:10;stroke-dasharray:none;stroke-opacity:1" />
    <path
       id="path2802"
       d="m 193.36035,24.717919 h -21.70889 l -2.23555,2.814108 v 5.8547 l 2.23485,2.813755 h 21.7103 l 2.2352,-2.813755 v -5.8547 z"
       style="fill:#ffffff;fill-opacity:1;fill-rule:nonzero;stroke:#000000;stroke-width:0.485069;stroke-linecap:butt;stroke-linejoin:miter;stroke-miterlimit:10;stroke-dasharray:none;stroke-opacity:1" />
    <path
       id="path2803"
       d="m 170.08956,26.683313 v 7.663744 m 0,-1.0795 2.36926,2.932994 m -3.6e-4,-11.482563 -2.36925,2.932642"
       style="fill:none;stroke:#000000;stroke-width:0.211667;stroke-linecap:butt;stroke-linejoin:miter;stroke-miterlimit:10;stroke-dasharray:none;stroke-opacity:1" />
    <path
       id="path2804"
       d="M 0,0 C 0,-0.525 0.426,-0.951 0.95,-0.951 1.475,-0.951 1.9,-0.525 1.9,0 1.9,0.523 1.475,0.949 0.95,0.949 0.426,0.949 0,0.523 0,0"
       style="fill:#000000;fill-opacity:1;fill-rule:nonzero;stroke:none"
       transform="matrix(0.35277776,0,0,-0.35277776,169.75436,30.45881)"
       clip-path="url(#clipPath2805-7)" />
    <path
       id="path2806"
       d="m 0,0 c 0,-0.525 -0.426,-0.951 -0.95,-0.951 -0.525,0 -0.95,0.426 -0.95,0.951 0,0.523 0.425,0.949 0.95,0.949 C -0.426,0.949 0,0.523 0,0"
       style="fill:#000000;fill-opacity:1;fill-rule:nonzero;stroke:none"
       transform="matrix(0.35277776,0,0,-0.35277776,195.25755,30.45881)"
       clip-path="url(#clipPath2807-8)" />
    <path
       id="path2808"
       d="m 194.92235,26.683313 v 7.663744 m 0,-1.0795 -2.36926,2.932994 m 3.6e-4,-11.482563 2.36925,2.932642"
       style="fill:none;stroke:#000000;stroke-width:0.211667;stroke-linecap:butt;stroke-linejoin:miter;stroke-miterlimit:10;stroke-dasharray:none;stroke-opacity:1" />
    <g
       id="g3269"
       transform="matrix(0.26458333,0,0,0.26458333,-1333.3503,6.3828568)">
      <g
         id="g3992">
        <path
           id="path3271"
           d="M 0,0 C 0.28,0 0.28,-0.412 0,-0.412 H -0.384 V 0 Z M 0.276,-0.723 C 0.93,-0.575 0.796,0.427 0,0.427 h -0.86 v -1.804 h 0.476 v 0.561 h 0.167 l 0.429,-0.561 h 0.511 v 0.104 z m -0.429,-1.162 c 0.849,0 1.329,0.622 1.329,1.409 0,0.785 -0.48,1.406 -1.329,1.406 -0.844,0 -1.324,-0.621 -1.328,-1.406 0.004,-0.787 0.484,-1.409 1.328,-1.409 m 1.756,1.409 c 0,-0.961 -0.63,-1.77 -1.755,-1.77 -1.121,0 -1.751,0.809 -1.751,1.77 0,0.958 0.63,1.769 1.751,1.769 1.125,0 1.755,-0.811 1.755,-1.769"
           style="fill:#000000;fill-opacity:1;fill-rule:nonzero;stroke:none"
           transform="matrix(1.3333333,0,0,-1.3333333,5326.1412,51.9976)"
           clip-path="url(#clipPath3272-5)" />
        <path
           id="path3273"
           d="m 0,0 c -1.261,0.662 -2.546,0.982 -4.298,1.052 v 0.014 h -3.514 c -2.781,0 -4.099,0.037 -5.064,0.258 -0.833,0.192 -1.579,0.676 -1.587,0.679 l -0.213,0.14 0.023,-0.252 c 0.005,-0.081 0.197,-1.966 2.451,-3.61 0.434,-0.314 0.739,-0.622 0.739,-1.728 v -0.731 c 0.482,0.298 1.014,0.561 1.603,0.784 -0.198,-0.172 -0.44,-0.43 -0.644,-0.709 0.391,0.257 0.88,0.474 1.679,0.616 1.057,0.187 1.829,0.105 2.237,0.027 v 0.277 h 1.965 c 2.573,0 4.051,-1.644 4.051,-4.513 0,-2.849 -1.478,-4.481 -4.051,-4.481 h -0.769 c 0.679,-0.619 1.105,-1.471 1.105,-2.413 0,-0.678 -0.226,-1.304 -0.599,-1.835 2.442,0.022 4.006,0.458 5.695,1.584 0.737,0.497 1.368,1.074 1.877,1.716 1.158,1.445 1.822,3.443 1.822,5.477 C 4.508,-4.338 2.822,-1.479 0,0 m -10.569,-12.24 c 0.111,0.159 0.133,0.362 0.062,0.558 l -0.563,1.55 1.419,-0.842 c 0.134,-0.08 0.257,-0.178 0.373,-0.284 l 0.864,0.064 c 0.65,0.061 1.27,-0.037 1.826,-0.249 v 4.417 c -0.315,-0.109 -0.561,-0.23 -0.674,-0.332 l -0.363,-0.329 -0.39,0.297 c -0.252,0.192 -0.628,0.302 -1.03,0.302 -0.66,0 -1.303,-0.285 -1.719,-0.761 -0.256,-0.294 -0.487,-0.598 -0.699,-0.899 v -3.505 c 0.346,-0.264 0.707,-0.255 0.894,0.013 m -17.499,0.242 -0.547,-0.763 0.195,2.155 c 0.159,1.753 1.237,3.019 1.991,3.707 -0.152,-0.015 -0.315,-0.038 -0.497,-0.075 l -1.931,-0.399 1.393,1.395 c 0.478,0.477 1.144,0.831 1.731,1.144 0.065,0.035 0.137,0.073 0.208,0.112 -0.685,2.025 -2.08,3.703 -4.023,4.722 -1.262,0.662 -2.547,0.982 -4.298,1.052 v 0.014 h -3.514 c -2.781,0 -4.1,0.037 -5.065,0.258 -0.831,0.192 -1.579,0.676 -1.586,0.679 l -0.213,0.14 0.022,-0.252 c 0.007,-0.081 0.196,-1.966 2.451,-3.61 0.434,-0.314 0.74,-0.622 0.74,-1.728 v -10.089 c 0,-1.08 -0.211,-1.381 -0.715,-1.685 -0.527,-0.316 -1.657,-0.979 -1.657,-0.98 l -0.392,-0.229 h 9.142 c 2.561,0 4.159,0.431 5.892,1.589 0.245,0.163 0.466,0.346 0.687,0.528 -0.127,0.784 -0.119,1.572 -0.014,2.315 m 21.48,7.871 v 0.483 c -0.31,-0.101 -0.753,-0.255 -0.949,-0.37 0.325,0 0.641,-0.046 0.949,-0.113 m -27.586,-8.05 h -1.963 v 8.994 h 1.963 c 2.575,0 4.052,-1.644 4.052,-4.513 0,-2.849 -1.477,-4.481 -4.052,-4.481"
           style="fill:#000000;fill-opacity:1;fill-rule:nonzero;stroke:none"
           transform="matrix(1.3333333,0,0,-1.3333333,5319.4452,33.095733)"
           clip-path="url(#clipPath3274-1)" />
        <path
           id="path3275"
           d="M 0,0 C 0.272,-0.046 0.779,-0.388 0.779,-0.876 0.779,-1.168 0.644,-1.395 0.366,-1.57 0.245,-1.647 0.101,-1.709 -0.055,-1.756 0.028,-1.479 0.068,-1.177 0.057,-0.86 0.037,-0.303 0,0 0,0 M -0.434,6.631 C -3.036,6.506 -5.276,4.29 -6.423,2.733 -6.218,2.664 -6.008,2.57 -5.803,2.405 -5.562,2.211 -5.206,1.92 -4.826,1.606 -4.524,2.275 -3.828,3.666 -2.75,4.902 -1.781,6.014 -0.088,6.119 0.8,5.443 1.373,5.96 3.344,6.445 4.382,6.15 3.749,6.838 2.406,7.759 0.92,7.759 c -1.223,0 -1.915,-0.6 -2.091,-0.331 -0.226,0.347 0.829,0.858 0.829,0.858 -1.446,-0.059 -2.498,-1.76 -2.936,-1.548 -0.26,0.125 0.391,0.947 0.391,0.947 -1.322,-0.768 -2.43,-2.395 -2.661,-3.386 1.217,1.49 3.578,2.557 5.114,2.332 m -6.013,-8.423 c -0.515,0.453 -1.285,1.093 -1.868,1.557 -0.659,-1.13 -2.066,-2.603 -3.492,-2.603 -2.625,0 -3.94,3.715 -0.997,6.752 -0.171,0.056 -0.34,0.063 -0.397,0.063 -0.251,0 -0.498,-0.067 -0.66,-0.179 l -1.157,-0.799 0.262,1.473 c 0.026,0.079 0.057,0.156 0.092,0.232 -0.668,-0.332 -1.325,-0.805 -1.573,-1.076 l -1.138,-1.248 0.122,1.752 c 0.025,0.136 0.053,0.269 0.079,0.395 0.06,0.284 0.133,0.636 0.088,0.754 -0.015,0.036 -0.046,0.067 -0.082,0.093 -0.543,-0.418 -2.032,-1.735 -2.206,-3.67 0,0 0.288,0.406 0.538,0.501 0.165,0.064 0.31,-0.018 0.152,-0.501 -0.062,-0.189 -1.496,-4.073 1.325,-6.759 0,0 -0.309,0.79 -0.122,1.03 0.09,0.116 0.209,0.126 0.372,-0.083 0.121,-0.16 0.249,-0.315 0.384,-0.469 l 0.001,-0.002 c 0.234,-0.264 0.491,-0.514 0.77,-0.729 0.845,-0.592 1.991,-1.067 3.295,-1.067 3.491,0 5.34,2.407 6.366,4.428 -0.045,0.053 -0.096,0.104 -0.154,0.155 M 3.582,-2.227 c 0,1.68 -1.629,2.982 -3.483,2.809 0.529,-0.091 1.27,-0.654 1.27,-1.458 0,-1.311 -1.636,-1.715 -2.541,-1.511 0.96,0.666 0.833,2.583 -0.322,3.269 0.39,-1.074 -0.782,-2.142 -1.923,-1.206 -0.634,0.521 -2.101,1.744 -2.756,2.27 -0.653,0.526 -1.42,0.22 -1.723,0.449 -0.344,0.262 -0.124,0.998 -0.594,1.271 -0.394,0.228 -0.781,0.101 -1.24,0.253 -0.415,0.138 -0.726,0.461 -0.672,0.897 -0.177,-0.311 -0.188,-0.853 0.127,-1.219 0.313,-0.363 0.835,-0.586 1.051,-0.984 0.279,-0.516 -0.191,-1.232 1.051,-2.206 0.594,-0.465 1.514,-1.228 2.115,-1.755 1.011,-0.887 0.472,-1.995 0.604,-2.961 0.153,-1.128 1.062,-1.753 1.665,-1.912 -0.52,0.475 -0.718,1.666 0.014,2.397 0.038,-0.942 0.718,-2.418 2.269,-2.832 1.65,-0.439 3.403,0.496 3.768,1.154 -0.636,-0.288 -1.835,0.022 -2.329,0.485 1.936,-0.274 3.649,1.069 3.649,2.79 m -12.769,8.08 c 0,0 -0.246,0.8 -1.087,1.11 0.165,-0.58 0.387,-1.11 1.087,-1.11 m -9.4,0.114 c 0.831,0.832 2.533,1.348 2.649,1.801 0.111,0.446 -0.771,1.206 -1.1,1.349 1.211,0.048 1.815,-0.18 1.815,-0.18 -0.317,0.466 -0.419,1.178 -0.239,1.744 0.659,-1.584 3.02,-1.839 3.605,-3.151 -0.084,0.565 -0.62,1.203 -1.241,1.574 -0.334,0.862 -0.084,2.451 0.324,2.889 -0.143,-2.284 3.117,-3.591 3.793,-5.251 -0.397,1.421 -1.916,2.323 -2.637,3.174 -0.238,0.565 -0.055,1.523 0.203,1.85 -0.076,-1.53 1.575,-2.724 2.458,-3.58 1.04,-1.006 1.335,-1.897 1.194,-2.625 0.228,-0.06 0.541,-0.282 0.489,-0.657 0.332,0.077 0.67,0.458 0.752,0.692 0.163,-1.135 -0.505,-2.338 -1.254,-2.696 0,0 0.201,0.542 -0.14,0.957 -0.336,0.409 -1.292,0.414 -1.614,0.391 0,0 0.396,0.585 0.239,0.884 -0.196,0.368 -2.064,0.205 -2.899,-0.096 0.284,0.03 0.957,-0.046 1.192,-0.143 -0.13,-0.195 -0.473,-1.018 -0.227,-1.265 0.227,-0.227 0.525,0.166 0.525,0.166 0,0 -0.292,-0.9 -0.082,-1.109 0.208,-0.209 0.655,-0.06 0.655,-0.06 -0.278,-0.707 -1.364,-1.193 -2.124,-1.193 0.272,0.086 0.719,0.568 0.787,0.859 -0.199,-0.1 -0.718,-0.157 -0.918,-0.12 0.245,0.1 0.739,0.733 0.586,1.445 -0.226,1.038 -1.673,1.17 -2.401,0.668 0.236,0.697 0.941,1.349 1.491,1.562 -0.322,0.114 -0.699,0.209 -1.105,0.282 0.463,0.38 1.625,0.689 2.219,0.657 -0.905,0.232 -2.56,-0.058 -3.318,-0.953 0.241,0 0.866,-0.118 1.106,-0.195 -1.038,-0.188 -2.452,-1.155 -2.869,-1.611 0.11,0.601 0.278,1.109 0.136,1.471 -0.2,0.51 -0.819,0.724 -2.05,0.47 m 1.916,5.34 c -0.179,1.964 0.756,3.05 1.178,3.48 0.928,0.946 2.178,1.518 4.024,1.419 2.915,-0.156 4.314,-2.157 4.314,-4.313 0,-1.04 -0.529,-2.431 -1.262,-3.418 -0.044,0.045 -0.082,0.089 -0.129,0.134 -0.145,0.14 -0.31,0.29 -0.485,0.449 -0.479,0.433 -1.02,0.93 -1.383,1.467 0.798,1.453 0.342,3.512 -1.345,3.512 -0.987,0 -1.811,-0.905 -1.741,-2.106 -0.257,-0.568 -0.383,-1.391 -0.334,-2.122 -0.483,0.304 -0.892,0.637 -1.083,1.099 l -0.62,1.486 -0.488,-1.534 c -0.116,-0.365 -0.142,-0.774 -0.088,-1.169 -0.003,0 -0.007,0 -0.01,10e-4 -0.221,0.333 -0.48,0.864 -0.548,1.615"
           style="fill:#000000;fill-opacity:1;fill-rule:nonzero;stroke:none"
           transform="matrix(1.3333333,0,0,-1.3333333,5308.1676,49.579733)"
           clip-path="url(#clipPath3276-9)" />
      </g>
    </g>
    <path
       id="path3281"
       d="m 0,0 c 0,0 -0.97,1.973 0.78,5.035 0,0 -1.048,-2.912 0.375,-3.562 z"
       style="fill:#ffffff;fill-opacity:1;fill-rule:nonzero;stroke:none"
       transform="matrix(0.35277776,0,0,-0.35277776,113.17472,8.00491)"
       clip-path="url(#clipPath3282)" />
    <path
       id="path3283"
       d="M 113.29088,24.652548 H 91.581991 l -2.235553,2.814108 v 5.8547 l 2.234847,2.813755 h 21.710295 l 2.2352,-2.813755 v -5.8547 z"
       style="fill:#ffffff;fill-opacity:1;fill-rule:nonzero;stroke:none;stroke-width:0.352778" />
    <path
       id="path3284"
       d="m 90.020111,26.617943 v 7.663744 m 0,-1.0795 2.369255,2.932994 m -3.52e-4,-11.482563 -2.369256,2.932642"
       style="fill:none;stroke:#000000;stroke-width:0.211667;stroke-linecap:butt;stroke-linejoin:miter;stroke-miterlimit:10;stroke-dasharray:none;stroke-opacity:1" />
    <path
       id="path3285"
       d="M 0,0 C 0,-0.525 0.426,-0.951 0.95,-0.951 1.475,-0.951 1.9,-0.525 1.9,0 1.9,0.523 1.475,0.949 0.95,0.949 0.426,0.949 0,0.523 0,0"
       style="fill:#000000;fill-opacity:1;fill-rule:nonzero;stroke:none"
       transform="matrix(0.35277776,0,0,-0.35277776,89.68491,30.393445)"
       clip-path="url(#clipPath3286-9)" />
    <path
       id="path3287"
       d="m 0,0 c 0,-0.525 -0.426,-0.951 -0.95,-0.951 -0.525,0 -0.95,0.426 -0.95,0.951 0,0.523 0.425,0.949 0.95,0.949 C -0.426,0.949 0,0.523 0,0"
       style="fill:#000000;fill-opacity:1;fill-rule:nonzero;stroke:none"
       transform="matrix(0.35277776,0,0,-0.35277776,115.1881,30.393445)"
       clip-path="url(#clipPath3288-0)" />
    <path
       id="path3289"
       d="m 114.8529,26.617943 v 7.663744 m 0,-1.0795 -2.36926,2.932994 m 3.5e-4,-11.482563 2.36926,2.932642"
       style="fill:none;stroke:#000000;stroke-width:0.211667;stroke-linecap:butt;stroke-linejoin:miter;stroke-miterlimit:10;stroke-dasharray:none;stroke-opacity:1" />
    <path
       id="path3292"
       d="M 113.29088,24.652548 H 91.581991 l -2.235553,2.814108 v 5.8547 l 2.234847,2.813755 h 21.710295 l 2.2352,-2.813755 v -5.8547 z"
       style="fill:none;stroke:#000000;stroke-width:0.485069;stroke-linecap:butt;stroke-linejoin:miter;stroke-miterlimit:10;stroke-dasharray:none;stroke-opacity:1" />
  </g>
</svg>
