<?xml version="1.0" encoding="UTF-8" standalone="no"?>
<!-- Created with Inkscape (http://www.inkscape.org/) -->

<svg
   width="207.23669mm"
   height="35.012608mm"
   viewBox="0 0 207.23669 35.012608"
   version="1.1"
   id="svg1"
   inkscape:export-filename="headerspellcastingpage.svg"
   inkscape:export-xdpi="96"
   inkscape:export-ydpi="96"
   xmlns:inkscape="http://www.inkscape.org/namespaces/inkscape"
   xmlns:sodipodi="http://sodipodi.sourceforge.net/DTD/sodipodi-0.dtd"
   xmlns="http://www.w3.org/2000/svg"
   xmlns:svg="http://www.w3.org/2000/svg">
  <sodipodi:namedview
     id="namedview1"
     pagecolor="#ffffff"
     bordercolor="#000000"
     borderopacity="0.25"
     inkscape:showpageshadow="2"
     inkscape:pageopacity="0.0"
     inkscape:pagecheckerboard="0"
     inkscape:deskcolor="#d1d1d1"
     inkscape:document-units="mm" />
  <defs
     id="defs1">
    <clipPath
       clipPathUnits="userSpaceOnUse"
       id="clipPath87">
      <path
         d="M 0,0 H 612 V 792 H 0 Z"
         transform="translate(-87.0604,-771.18982)"
         id="path87" />
    </clipPath>
    <clipPath
       clipPathUnits="userSpaceOnUse"
       id="clipPath89">
      <path
         d="M 0,0 H 612 V 792 H 0 Z"
         transform="translate(-574.24751,-737.14262)"
         id="path89" />
    </clipPath>
    <clipPath
       clipPathUnits="userSpaceOnUse"
       id="clipPath91">
      <path
         d="M 0,0 H 612 V 792 H 0 Z"
         transform="translate(-573.64252,-734.30762)"
         id="path91" />
    </clipPath>
    <clipPath
       clipPathUnits="userSpaceOnUse"
       id="clipPath93">
      <path
         d="M 0,0 H 612 V 792 H 0 Z"
         transform="translate(-197.6205,-706.19682)"
         id="path93" />
    </clipPath>
    <clipPath
       clipPathUnits="userSpaceOnUse"
       id="clipPath99">
      <path
         d="M 0,0 H 612 V 792 H 0 Z"
         transform="translate(-260.72781,-701.15142)"
         id="path99" />
    </clipPath>
    <clipPath
       clipPathUnits="userSpaceOnUse"
       id="clipPath101">
      <path
         d="M 0,0 H 612 V 792 H 0 Z"
         transform="translate(-261.60571,-704.77442)"
         id="path101" />
    </clipPath>
    <clipPath
       clipPathUnits="userSpaceOnUse"
       id="clipPath104">
      <path
         d="M 0,0 H 612 V 792 H 0 Z"
         transform="translate(-258.5359,-756.49322)"
         id="path104" />
    </clipPath>
    <clipPath
       clipPathUnits="userSpaceOnUse"
       id="clipPath106">
      <path
         d="M 0,0 H 612 V 792 H 0 Z"
         transform="translate(-258.5359,-756.49322)"
         id="path106" />
    </clipPath>
    <clipPath
       clipPathUnits="userSpaceOnUse"
       id="clipPath108">
      <path
         d="M 0,0 H 612 V 792 H 0 Z"
         transform="translate(-260.6335,-742.29692)"
         id="path108" />
    </clipPath>
    <clipPath
       clipPathUnits="userSpaceOnUse"
       id="clipPath110">
      <path
         d="M 0,0 H 612 V 792 H 0 Z"
         transform="translate(-576.62531,-756.49322)"
         id="path110" />
    </clipPath>
    <clipPath
       clipPathUnits="userSpaceOnUse"
       id="clipPath112">
      <path
         d="M 0,0 H 612 V 792 H 0 Z"
         transform="translate(-576.62531,-756.49322)"
         id="path112" />
    </clipPath>
    <clipPath
       clipPathUnits="userSpaceOnUse"
       id="clipPath114">
      <path
         d="M 0,0 H 612 V 792 H 0 Z"
         transform="translate(-574.52761,-742.29692)"
         id="path114" />
    </clipPath>
    <clipPath
       clipPathUnits="userSpaceOnUse"
       id="clipPath116">
      <path
         d="M 0,0 H 612 V 792 H 0 Z"
         transform="translate(-552.62921,-750.18362)"
         id="path116" />
    </clipPath>
    <clipPath
       clipPathUnits="userSpaceOnUse"
       id="clipPath118">
      <path
         d="M 0,0 H 612 V 792 H 0 Z"
         transform="translate(-99.719402,-755.33972)"
         id="path118" />
    </clipPath>
    <clipPath
       clipPathUnits="userSpaceOnUse"
       id="clipPath120">
      <path
         d="M 0,0 H 612 V 792 H 0 Z"
         transform="translate(-256.02561,-696.12011)"
         id="path120" />
    </clipPath>
    <clipPath
       clipPathUnits="userSpaceOnUse"
       id="clipPath122">
      <path
         d="M 0,0 H 612 V 792 H 0 Z"
         transform="translate(-104.0095,-750.68002)"
         id="path122" />
    </clipPath>
    <clipPath
       clipPathUnits="userSpaceOnUse"
       id="clipPath124">
      <path
         d="M 0,0 H 612 V 792 H 0 Z"
         transform="translate(-76.730199,-759.33972)"
         id="path124" />
    </clipPath>
    <clipPath
       clipPathUnits="userSpaceOnUse"
       id="clipPath126">
      <path
         d="M 0,0 H 612 V 792 H 0 Z"
         transform="translate(-48.700001,-742.82372)"
         id="path126" />
    </clipPath>
    <clipPath
       clipPathUnits="userSpaceOnUse"
       id="clipPath128">
      <path
         d="M 0,0 H 612 V 792 H 0 Z"
         transform="translate(-41.079801,-743.74372)"
         id="path128" />
    </clipPath>
    <clipPath
       clipPathUnits="userSpaceOnUse"
       id="clipPath130">
      <path
         d="M 0,0 H 612 V 792 H 0 Z"
         transform="translate(-39.239901,-741.62412)"
         id="path130" />
    </clipPath>
    <clipPath
       clipPathUnits="userSpaceOnUse"
       id="clipPath356">
      <path
         d="m 111.56,748.005 h 144 v 15.484 h -144 z"
         transform="translate(-253.3531,-757.90742)"
         id="path356" />
    </clipPath>
    <clipPath
       clipPathUnits="userSpaceOnUse"
       id="clipPath358">
      <path
         d="m 111.56,748.005 h 144 v 15.484 h -144 z"
         transform="translate(-180.76821,-759.12882)"
         id="path358" />
    </clipPath>
  </defs>
  <g
     inkscape:label="Layer 1"
     inkscape:groupmode="layer"
     id="layer1"
     transform="translate(1.3142207,-21.645448)">
    <path
       id="path83"
       d="m 28.400779,36.485799 8.19854,0.629503 -8.19854,0.629141 -8.197485,-0.629141 z m 49.074556,2.358466 8.198194,0.629141 8.19889,-0.629141 -8.19889,-0.629503 z m 40.293955,-6.14706 7.85692,-0.602731 -9.68806,-0.743465 14.82401,-1.137085 -13.20193,-1.013355 18.28922,-1.402633 -31.14353,-2.390664 8.36812,-0.641442 -15.278451,-1.172901 -13.57492,1.041935 -6.105455,-0.815821 14.979125,-1.1483 -12.00396,-0.921462 -8.366003,0.641442 -9.712388,-0.745274 -9.078508,0.697156 9.224111,0.708372 -10.163302,0.780005 -10.16154,-0.780005 5.890048,-0.452229 -7.03689,-0.540142 -22.499014,1.726068 7.972559,0.611775 -25.2813357,1.939159 14.8885237,1.142511 -7.8569207,0.602731 9.6873587,0.743465 -14.8233017,1.136723 13.2012207,1.013717 -18.2892177,1.402633 25.1346727,1.929391 -11.508629,0.883474 12.14886,0.931592 3.141922,-0.240947 9.136676,0.701498 13.575279,-1.041936 6.098754,0.814736 -15.819607,1.214144 21.716354,1.665651 4.748491,-0.363954 -8.548272,-0.656275 12.207031,-0.937019 8.555675,0.656637 5.600953,-0.429799 7.97538,0.611776 22.499011,-1.725707 -7.97185,-0.611775 25.28099,-1.938797 z"
       style="fill:#dedfdf;fill-opacity:1;fill-rule:nonzero;stroke:none;stroke-width:0.357137" />
    <path
       id="path84"
       d="m 63.247356,54.291624 6.664325,0.498475 -6.664325,0.498475 -6.663266,-0.498475 z m 39.889284,1.867958 6.66398,0.498475 6.66432,-0.498475 -6.66432,-0.498475 z m 32.75224,-4.868686 6.38634,-0.477661 -7.87471,-0.588786 12.04948,-0.900641 -10.73114,-0.80257 14.86605,-1.11125 -25.31427,-1.893358 6.8019,-0.508353 -12.41883,-0.928864 -11.03418,0.825148 -4.96253,-0.645936 12.17542,-0.909814 -9.75748,-0.729898 -6.799791,0.508353 -7.89481,-0.59055 -7.37906,0.552097 7.49724,0.56127 -8.26065,0.617714 -8.259584,-0.617714 4.787547,-0.35807 -5.719939,-0.427919 -18.287646,1.367014 6.480175,0.484716 -20.549658,1.535995 12.102041,0.904875 -6.386335,0.477308 7.874352,0.589139 -12.049124,0.900289 10.730441,0.802922 -14.866055,1.11125 20.430066,1.52788 -9.354256,0.699911 9.874955,0.738012 2.553759,-0.190853 7.426677,0.555625 11.034183,-0.8255 4.957231,0.645583 -12.858395,0.961672 17.651585,1.319389 3.85974,-0.288572 -6.94831,-0.519642 9.92223,-0.742244 6.954311,0.519994 4.5526,-0.340077 6.48264,0.484363 18.288,-1.367013 -6.47982,-0.484364 20.5493,-1.535995 z"
       style="fill:#dedfdf;fill-opacity:1;fill-rule:nonzero;stroke:none;stroke-width:0.352778" />
    <path
       id="path85"
       d="m 133.89125,37.53662 5.49628,0.411339 -5.49628,0.410633 -5.49557,-0.410633 z m 32.89864,1.54058 5.49593,0.410987 5.49628,-0.410987 -5.49628,-0.411338 z m 27.0122,-4.015669 5.26697,-0.3937 -6.49464,-0.485422 9.93775,-0.74295 -8.85014,-0.662164 12.26044,-0.916164 -20.87774,-1.561747 5.60987,-0.4191 -10.24255,-0.766233 -9.10025,0.680508 -4.09293,-0.532694 10.04182,-0.750358 -8.04757,-0.601839 -5.6081,0.4191 -6.51122,-0.486834 -6.08613,0.455436 6.18385,0.462845 -6.8132,0.509411 -6.81214,-0.509411 3.94864,-0.295628 -4.71734,-0.352778 -15.08302,1.127478 5.34459,0.399697 -16.94815,1.266825 9.98114,0.746478 -5.26733,0.3937 6.49429,0.485422 -9.93704,0.74295 8.84978,0.662164 -12.26079,0.916164 16.84972,1.260475 -7.71489,0.577144 8.14422,0.608542 2.10609,-0.157339 6.12528,0.458258 9.10025,-0.680861 4.0887,0.532342 -10.60521,0.793397 14.55843,1.087967 3.18312,-0.237773 -5.73088,-0.428977 8.18339,-0.61207 5.73581,0.428978 3.75462,-0.280458 5.3467,0.399697 15.08266,-1.127478 -5.34388,-0.399697 16.94779,-1.266825 z"
       style="fill:#dedfdf;fill-opacity:1;fill-rule:nonzero;stroke:none;stroke-width:0.352778" />
    <path
       id="path86"
       d="m 0,0 c -0.431,-2.8 0.22,-6.34 0.22,-6.34 0,0 -2.05,1.5 -4.29,2.77 -1.33,0.75 -2.46,2.42 -3.161,3.65 -0.479,0.85 -0.759,1.48 -0.759,1.48 -3.111,-3.34 -1.101,-7.27 -1.101,-7.27 -4.849,1.06 -7.88,-0.19 -7.88,-0.19 9.181,-6.01 4.301,-6.5 -1,-9.01 -5.29,-2.51 -5.679,-5.63 -5.679,-5.63 6.33,2.08 8.849,-0.58 8.849,-0.58 -3.409,-3.26 -0.369,-8.35 -0.369,-8.35 3.31,-6.34 11.51,-9.04 18.85,-10.15 7.269,-1.11 13.7,-0.67 13.7,-0.67 l -16.721,-5.2 -15.019,-3.79 c 0,0 -14.911,1.6 -20.39,14.22 -5.471,12.63 4.09,22.57 3.13,23.22 -0.91,0.62 -2.07,-0.76 -2.191,-0.91 4.161,11.91 16.691,11.78 17.191,13.04 0.51,1.27 -2.471,1.35 -2.471,1.35 C -6.42,5.81 0,0 0,0"
       style="fill:#000000;fill-opacity:1;fill-rule:nonzero;stroke:none"
       transform="matrix(0.35277776,0,0,-0.35277776,26.379997,23.501145)"
       clip-path="url(#clipPath87)" />
    <path
       id="path88"
       d="m 0,0 v -38.142 c 14.567,0.085 16.462,0 18.946,3.228 v 37.5 C 14.287,0.112 9.473,0.037 0,0"
       style="fill:#ffffff;fill-opacity:1;fill-rule:nonzero;stroke:#000000;stroke-width:1.375;stroke-linecap:butt;stroke-linejoin:miter;stroke-miterlimit:10;stroke-dasharray:none;stroke-opacity:1"
       transform="matrix(0.35277776,0,0,-0.35277776,198.24878,35.51224)"
       clip-path="url(#clipPath89)" />
    <path
       id="path90"
       d="M 0,0 C 16.235,0.054 17.687,1.176 19.157,2.303 M 0.603,-32.193 c 19.602,-2.231 17.932,3.579 18.804,3.754"
       style="fill:none;stroke:#000000;stroke-width:0.75;stroke-linecap:butt;stroke-linejoin:miter;stroke-miterlimit:10;stroke-dasharray:none;stroke-opacity:1"
       transform="matrix(0.35277776,0,0,-0.35277776,198.03535,36.512365)"
       clip-path="url(#clipPath91)" />
    <path
       id="path92"
       d="m 0,0 c -0.004,-0.014 -0.015,-0.023 -0.019,-0.036 -0.088,-0.307 -0.036,-0.636 0.143,-0.901 0.218,-0.324 5.426,-7.942 12.223,-7.942 1.513,0 2.994,0.383 4.469,1.177 0.591,0.375 1.159,0.755 1.649,1.098 3.578,2.192 7.058,5.399 8.319,6.604 z"
       style="fill:#ffffff;fill-opacity:1;fill-rule:nonzero;stroke:none"
       transform="matrix(0.35277776,0,0,-0.35277776,65.383144,46.429232)"
       clip-path="url(#clipPath93)" />
    <path
       id="path94"
       d="M 6.3941143,37.880402 V 51.109568 L 18.917724,49.473032 V 36.243513 Z"
       style="fill:#ffffff;fill-opacity:1;fill-rule:nonzero;stroke:none;stroke-width:0.352778" />
    <path
       id="path95"
       d="M 6.3941143,37.880402 V 51.109568 L 18.917724,49.473032 V 36.243866 Z"
       style="fill:none;stroke:#000000;stroke-width:0.485069;stroke-linecap:butt;stroke-linejoin:miter;stroke-miterlimit:10;stroke-dasharray:none;stroke-opacity:1" />
    <path
       id="path96"
       d="M 6.6679763,50.127366 18.917831,48.389936 M 6.6679763,38.765453 18.917831,37.206881"
       style="fill:none;stroke:#000000;stroke-width:0.264583;stroke-linecap:butt;stroke-linejoin:miter;stroke-miterlimit:10;stroke-dasharray:none;stroke-opacity:1" />
    <path
       id="path97"
       d="M 18.917725,36.243972 10.3738,34.979969 v 13.229166 l 8.543925,1.264003 z"
       style="fill:#c3c4c6;fill-opacity:1;fill-rule:nonzero;stroke:#000000;stroke-width:0.485069;stroke-linecap:butt;stroke-linejoin:miter;stroke-miterlimit:10;stroke-dasharray:none;stroke-opacity:1" />
    <path
       id="path98"
       d="M 0,0 C -61.753,-11.25 -157.286,11.25 -219.039,0 V 37.5 C -157.286,48.75 -61.753,26.25 0,37.5 Z"
       style="fill:#ffffff;fill-opacity:1;fill-rule:nonzero;stroke:#000000;stroke-width:1.375;stroke-linecap:butt;stroke-linejoin:miter;stroke-miterlimit:10;stroke-dasharray:none;stroke-opacity:1"
       transform="matrix(0.35277776,0,0,-0.35277776,87.645999,48.209137)"
       clip-path="url(#clipPath99)" />
    <path
       id="path100"
       d="m 0,0 c 0,0 -20.5,-8.666 -114.666,-0.333 -66.51,5.886 -99.718,0.727 -104.856,-0.173 M -0.878,30.955 c 0,0 -19.872,-8.038 -114.038,0.295 -66.51,5.886 -99.718,0.726 -104.856,-0.173"
       style="fill:none;stroke:#000000;stroke-width:0.75;stroke-linecap:butt;stroke-linejoin:miter;stroke-miterlimit:10;stroke-dasharray:none;stroke-opacity:1"
       transform="matrix(0.35277776,0,0,-0.35277776,87.955699,46.931022)"
       clip-path="url(#clipPath101)" />
    <path
       id="path102"
       d="M 198.34773,52.304331 H 87.612899 V 30.911182 H 198.34773 Z"
       style="fill:#ffffff;fill-opacity:1;fill-rule:nonzero;stroke:#000000;stroke-width:0.440972;stroke-linecap:butt;stroke-linejoin:miter;stroke-miterlimit:10;stroke-dasharray:none;stroke-opacity:1" />
    <path
       id="path103"
       d="m 0,0 -0.001,-73.258 c 1.048,2.516 2.098,3.565 2.098,3.565 l 10e-4,66.129 c 0,0 -1.05,1.046 -2.098,3.564"
       style="fill:#ffffff;fill-opacity:1;fill-rule:nonzero;stroke:none"
       transform="matrix(0.35277776,0,0,-0.35277776,86.872739,28.685779)"
       clip-path="url(#clipPath104)" />
    <path
       id="path105"
       d="m 0,0 -0.001,-73.258 c 1.048,2.516 2.098,3.565 2.098,3.565 l 10e-4,66.129 c 0,0 -1.05,1.046 -2.098,3.564 z"
       style="fill:none;stroke:#000000;stroke-width:1.25;stroke-linecap:butt;stroke-linejoin:miter;stroke-miterlimit:10;stroke-dasharray:none;stroke-opacity:1"
       transform="matrix(0.35277776,0,0,-0.35277776,86.872739,28.685779)"
       clip-path="url(#clipPath106)" />
    <path
       id="path107"
       d="m 0,0 c 0,0 1.067,10.333 8.401,10.333 h 22 c 0,0 7.166,-2.445 20.5,-2.445 M -0.001,-44.866 c 0,0 1.067,-10.333 8.401,-10.333 h 22 c 0,0 7.166,2.445 20.5,2.445"
       style="fill:none;stroke:#000000;stroke-width:1.25;stroke-linecap:butt;stroke-linejoin:miter;stroke-miterlimit:10;stroke-dasharray:none;stroke-opacity:1"
       transform="matrix(0.35277776,0,0,-0.35277776,87.612729,33.693918)"
       clip-path="url(#clipPath108)" />
    <path
       id="path109"
       d="m 0,0 0.001,-73.258 c -1.048,2.516 -2.098,3.565 -2.098,3.565 l -10e-4,66.129 c 0,0 1.05,1.046 2.098,3.564"
       style="fill:#ffffff;fill-opacity:1;fill-rule:nonzero;stroke:none"
       transform="matrix(0.35277776,0,0,-0.35277776,199.08761,28.685779)"
       clip-path="url(#clipPath110)" />
    <path
       id="path111"
       d="m 0,0 0.001,-73.258 c -1.048,2.516 -2.098,3.565 -2.098,3.565 l -10e-4,66.129 c 0,0 1.05,1.046 2.098,3.564 z"
       style="fill:none;stroke:#000000;stroke-width:1.25;stroke-linecap:butt;stroke-linejoin:miter;stroke-miterlimit:10;stroke-dasharray:none;stroke-opacity:1"
       transform="matrix(0.35277776,0,0,-0.35277776,199.08761,28.685779)"
       clip-path="url(#clipPath112)" />
    <path
       id="path113"
       d="m 0,0 c 0,0 -1.067,10.333 -8.401,10.333 h -22 c 0,0 -7.166,-2.445 -20.5,-2.445 M 0.001,-44.866 c 0,0 -1.067,-10.333 -8.401,-10.333 h -22 c 0,0 -7.166,2.445 -20.5,2.445"
       style="fill:none;stroke:#000000;stroke-width:1.25;stroke-linecap:butt;stroke-linejoin:miter;stroke-miterlimit:10;stroke-dasharray:none;stroke-opacity:1"
       transform="matrix(0.35277776,0,0,-0.35277776,198.34759,33.693918)"
       clip-path="url(#clipPath114)" />
    <path
       id="path115"
       d="m 0,0 c -5.202,-0.907 -11.465,-1.923 -17.206,-1.923 h -235.685 c -5.741,0 -12.004,1.016 -17.206,1.923 m 0,-60.641 c 5.202,0.908 11.465,1.923 17.206,1.923 h 235.685 c 5.741,0 12.004,-1.015 17.206,-1.923"
       style="fill:none;stroke:#000000;stroke-width:0.75;stroke-linecap:butt;stroke-linejoin:miter;stroke-miterlimit:10;stroke-dasharray:none;stroke-opacity:1"
       transform="matrix(0.35277776,0,0,-0.35277776,190.62232,30.911665)"
       clip-path="url(#clipPath116)" />
    <path
       id="path117"
       d="M 0,0 C 3.391,-1.37 4.29,-4.66 4.29,-4.66 1.441,-4.58 0.601,-2.38 0,0"
       style="fill:#ffffff;fill-opacity:1;fill-rule:nonzero;stroke:none"
       transform="matrix(0.35277776,0,0,-0.35277776,30.845812,29.092708)"
       clip-path="url(#clipPath118)" />
    <path
       id="path119"
       d="m 0,0 c -0.64,3.468 -3.087,9.124 -7.827,12.106 -3.917,2.459 -7.339,1.927 -7.355,3.149 -0.029,1.554 4.362,1.073 4.362,1.073 -4.735,2.712 -11.527,-0.607 -12.498,0.946 -0.573,0.931 3.161,2.238 3.161,2.238 -5.776,0.212 -12.592,-2.765 -15.326,-5.466 6.89,2.313 16.593,0.983 21.05,-2.825 -1.887,1.06 -3.933,1.768 -6.033,2.188 -7.819,1.572 -16.523,-0.755 -21.763,-2.935 C -48.143,8.471 -52.654,5.513 -52.654,5.513 -56.558,3.244 -63.768,1.129 -68.657,3.198 l -0.001,-0.01 c 0,0 7.654,-12.749 17.059,-8.314 0.691,0.384 1.352,0.78 1.973,1.168 5.134,2.785 10.304,7.431 10.304,7.431 1.798,1.257 7.334,4.862 13.999,6.876 1.485,0.443 2.992,0.535 4.424,0.329 3.717,-0.505 6.957,-2.888 8.02,-5.737 C -10.009,5.441 -2.734,3.037 0,0"
       style="fill:#000000;fill-opacity:1;fill-rule:nonzero;stroke:none"
       transform="matrix(0.35277776,0,0,-0.35277776,85.987169,49.984068)"
       clip-path="url(#clipPath120)" />
    <path
       id="path121"
       d="M 0,0 C 0,0 -0.899,3.29 -4.29,4.66 -3.689,2.28 -2.85,0.08 0,0 m -10.92,-8.8 c -0.79,4.26 -6.67,4.99 -9.699,3.03 1.05,2.82 4,5.38 6.279,6.19 -1.3,0.5 -2.83,0.93 -4.479,1.29 1.939,1.48 6.71,2.6 9.13,2.39 -0.441,0.13 -0.92,0.23 -1.441,0.3 l 0.46,2.77 c -0.269,2.32 -2.37,4.98 -4.87,6.58 -1.239,3.55 -0.029,10.01 1.681,11.73 C -14.72,16.19 -1.6,10.45 0.95,3.6 -0.489,9.45 -6.56,13.31 -9.399,16.87 -10.3,19.21 -9.43,23.08 -8.34,24.39 -8.84,18.16 -2.26,13.08 1.23,9.48 5.351,5.25 6.44,1.58 5.771,-1.37 6.69,-1.65 7.94,-2.59 7.681,-4.11 c 1.359,0.27 2.79,1.78 3.149,2.73 0.53,-4.66 -2.35,-9.47 -5.439,-10.84 0,0 0.889,2.18 -0.46,3.92 -1.321,1.71 -5.21,1.85 -6.531,1.8 0,0 1.691,2.34 1.08,3.57 -0.74,1.53 -8.379,1.1 -11.83,-0.03 1.17,0.09 3.911,-0.3 4.85,-0.73 -0.56,-0.78 -2.06,-4.09 -1.079,-5.13 0.829,-0.89 2,0.43 2.149,0.6 -0.11,-0.32 -1.259,-3.66 -0.469,-4.5 0.82,-0.88 2.67,-0.33 2.67,-0.33 -1.231,-2.84 -5.72,-4.69 -8.821,-4.59 1.12,0.31 3.01,2.22 3.321,3.4 -0.831,-0.38 -2.951,-0.55 -3.76,-0.37 1.01,0.38 3.099,2.89 2.569,5.81"
       style="fill:#000000;fill-opacity:1;fill-rule:nonzero;stroke:none"
       transform="matrix(0.35277776,0,0,-0.35277776,32.359263,30.736547)"
       clip-path="url(#clipPath122)" />
    <path
       id="path123"
       d="M 0,0 C 0.51,1.8 -2.99,5.01 -4.311,5.63 0.63,5.68 3.06,4.68 3.06,4.68 1.83,6.61 1.5,9.53 2.31,11.81 4.8,5.28 14.39,3.94 16.609,-1.49 l -0.46,-2.77 C 12.359,-3.77 6.77,-4.9 3.95,-8.03 4.93,-8.06 7.46,-8.61 8.439,-8.96 4.17,-9.6 -1.71,-13.36 -3.471,-15.17 c 0.521,2.44 1.271,4.49 0.741,5.98 -0.75,2.1 -3.25,3.06 -8.3,2.17 C -7.54,-3.73 -0.53,-1.84 0,0"
       style="fill:#000000;fill-opacity:1;fill-rule:nonzero;stroke:none"
       transform="matrix(0.35277776,0,0,-0.35277776,22.735732,27.681597)"
       clip-path="url(#clipPath124)" />
    <path
       id="path125"
       d="M 0,0 1.019,-2.22 C -0.35,-2.45 -1.89,-7.86 -1.89,-7.86 -5.38,-5.84 -2.44,0.62 -2.44,0.62 Z"
       style="fill:#000000;fill-opacity:1;fill-rule:nonzero;stroke:none"
       transform="matrix(0.35277776,0,0,-0.35277776,12.847301,33.508075)"
       clip-path="url(#clipPath126)" />
    <path
       id="path127"
       d="M 0,0 C 0,0 1.82,1.31 2.78,1.55 L 4.37,0.14 3.55,-0.11 c 0,0 -1.529,-5 -0.91,-7.07 l 1,-2.9 c 0,0 -3.26,0.65 -3.76,1.9 0,0 -1.05,5.63 0.12,8.18"
       style="fill:#000000;fill-opacity:1;fill-rule:nonzero;stroke:none"
       transform="matrix(0.35277776,0,0,-0.35277776,10.159064,33.183519)"
       clip-path="url(#clipPath128)" />
    <path
       id="path129"
       d="m 0,0 c 0,0 0.21,-6.42 0.87,-6.99 l 2.42,-1.03 0.07,-2.19 c 0,0 -4.32,1.37 -4.68,3.02 -0.36,1.65 -0.64,5.75 -0.64,5.75 0,0 0.72,1.07 1.96,1.44"
       style="fill:#000000;fill-opacity:1;fill-rule:nonzero;stroke:none"
       transform="matrix(0.35277776,0,0,-0.35277776,9.5099893,33.931267)"
       clip-path="url(#clipPath130)" />
    <path
       id="path350"
       d="M 90.917019,38.674893 H 196.07301"
       style="fill:none;stroke:#b5b6b6;stroke-width:0.0881944;stroke-linecap:butt;stroke-linejoin:miter;stroke-miterlimit:4;stroke-dasharray:none;stroke-opacity:1" />
    <path
       id="path351"
       d="M 90.917019,47.875301 H 196.07301"
       style="fill:none;stroke:#b5b6b6;stroke-width:0.0881944;stroke-linecap:butt;stroke-linejoin:miter;stroke-miterlimit:4;stroke-dasharray:none;stroke-opacity:1" />
    <g
       id="g354"
       transform="matrix(0.26458333,0,0,0.26458333,-4.3329757,16.159769)">
      <g
         id="g918">
        <path
           id="path355"
           d="M 0,0 C 0.386,0 0.386,-0.567 0,-0.567 H -0.526 V 0 Z M 0.379,-0.996 C 1.281,-0.792 1.096,0.587 0,0.587 h -1.182 v -2.481 h 0.656 v 0.771 h 0.23 l 0.59,-0.771 h 0.704 v 0.143 z m -0.587,-1.596 c 1.169,0 1.827,0.854 1.827,1.938 0,1.079 -0.658,1.933 -1.827,1.933 -1.162,0 -1.82,-0.854 -1.826,-1.933 0.006,-1.084 0.664,-1.938 1.826,-1.938 m 2.414,1.938 c 0,-1.322 -0.868,-2.437 -2.413,-2.437 -1.54,0 -2.408,1.115 -2.408,2.437 0,1.319 0.868,2.431 2.408,2.431 1.545,0 2.413,-1.112 2.413,-2.431"
           style="fill:#000000;fill-opacity:1;fill-rule:nonzero;stroke:none"
           transform="matrix(1.3333333,0,0,-1.3333333,337.80413,45.4568)"
           clip-path="url(#clipPath356)" />
        <path
           id="path357"
           d="M 0,0 C -0.033,0.258 -0.015,0.523 0.061,0.761 L 0.397,1.808 0.819,0.794 C 0.942,0.499 1.201,0.284 1.508,0.088 1.481,0.575 1.568,1.116 1.742,1.488 1.706,2.273 2.249,2.86 2.897,2.86 c 1.109,0 1.406,-1.342 0.891,-2.303 0.239,-0.36 0.603,-0.694 0.925,-0.984 0.115,-0.104 0.224,-0.202 0.32,-0.294 0.03,-0.031 0.046,-0.058 0.076,-0.088 0.482,0.653 0.835,1.563 0.835,2.251 0,1.426 -0.927,2.749 -2.855,2.853 C 1.866,4.36 1.04,3.983 0.425,3.356 0.147,3.071 -0.472,2.353 -0.354,1.053 -0.309,0.563 -0.145,0.221 0,0 M 5.169,-6.596 C 4.728,-7.343 3.804,-8.308 2.864,-8.308 c -1.733,0 -2.602,2.448 -0.67,4.456 -0.109,0.035 -0.215,0.04 -0.252,0.04 -0.163,0 -0.323,-0.043 -0.428,-0.115 L 0.659,-4.661 0.9,-3.466 c 0.015,0.041 0.03,0.081 0.047,0.121 -0.429,-0.218 -0.845,-0.519 -1.005,-0.693 l -0.774,-0.843 0.078,1.189 0.053,0.262 c 0.04,0.185 0.088,0.416 0.059,0.491 -0.01,0.023 -0.028,0.041 -0.05,0.057 -0.359,-0.277 -1.335,-1.139 -1.45,-2.42 0,0 0.19,0.269 0.356,0.332 0.109,0.042 0.204,-0.012 0.1,-0.332 -0.04,-0.125 -0.99,-2.694 0.877,-4.472 0,0 -0.205,0.521 -0.081,0.681 0.06,0.076 0.138,0.083 0.248,-0.055 0.079,-0.107 0.162,-0.209 0.253,-0.309 v -0.002 l 0.001,10e-4 c 0.154,-0.176 0.324,-0.342 0.509,-0.485 0.558,-0.39 1.317,-0.705 2.18,-0.705 2.299,0 3.518,1.575 4.198,2.908 -0.031,0.038 -0.054,0.077 -0.096,0.114 -0.348,0.306 -0.852,0.724 -1.234,1.03 m 5.222,4.555 C 8.673,-2.124 7.201,-3.58 6.439,-4.61 6.575,-4.656 6.712,-4.719 6.848,-4.827 7.007,-4.955 7.24,-5.145 7.491,-5.353 c 0.204,0.45 0.663,1.36 1.367,2.167 0.643,0.736 1.763,0.807 2.35,0.358 0.378,0.343 1.682,0.664 2.369,0.469 -0.417,0.455 -1.307,1.065 -2.289,1.065 -0.81,0 -1.268,-0.398 -1.385,-0.219 -0.149,0.228 0.548,0.567 0.548,0.567 -0.957,-0.04 -1.652,-1.164 -1.942,-1.026 -0.173,0.084 0.258,0.628 0.258,0.628 -0.875,-0.508 -1.608,-1.585 -1.76,-2.24 0.805,0.985 2.368,1.692 3.384,1.543 m 35.351,-4.702 c -0.06,0.094 -0.097,0.176 -0.097,0.503 v 2.151 c 0,0.325 0.029,0.386 0.091,0.483 0.067,0.107 0.184,0.265 0.185,0.266 l 0.04,0.053 -0.059,0.031 c -0.007,0.004 -0.156,0.082 -0.322,0.099 V -3.16 c -0.044,0.003 -3.395,0.003 -3.395,0.003 l 0.171,-0.105 c 0,0 0.5,-0.304 0.724,-0.445 0.218,-0.137 0.33,-0.293 0.33,-0.768 v -1.171 c -0.253,-0.08 -0.512,-0.117 -0.821,-0.117 -1.368,0 -2.061,0.74 -2.061,2.195 0,1.388 0.759,2.183 2.083,2.183 0.83,0 1.703,-0.189 2.765,-0.99 l -0.005,0.057 -0.244,2.307 -0.019,0.17 -0.165,0.039 -0.162,0.038 c -0.71,0.164 -0.987,0.207 -1.408,0.261 -0.249,0.03 -0.385,0.045 -0.698,0.045 0,0 -0.088,0.001 -0.134,0.001 -2.495,0 -4.308,-1.746 -4.308,-4.152 0,-2.368 1.822,-4.088 4.331,-4.088 0.439,0 1.284,0.081 1.816,0.192 0.101,0.021 0.159,0.037 0.238,0.056 0.017,0.004 0.034,0.007 0.052,0.011 0.3,0.072 0.605,0.149 0.914,0.243 l 0.39,0.121 -0.046,0.064 c -0.002,0.002 -0.118,0.159 -0.186,0.267 m 18.333,7.168 h -4.519 l 0.17,-0.103 c 0.004,-0.003 0.436,-0.269 0.702,-0.443 0.241,-0.161 0.332,-0.27 0.332,-0.787 V -2.839 L 57.424,0.426 V 0.425 h -2.653 l 0.158,-0.102 c 0.004,-0.003 0.41,-0.268 0.644,-0.438 0.231,-0.169 0.341,-0.34 0.341,-0.858 v -5.255 c 0,-0.515 -0.093,-0.624 -0.324,-0.767 -0.254,-0.156 -0.75,-0.443 -0.756,-0.445 l -0.18,-0.105 h 4.53 l -0.181,0.105 c -0.005,0.003 -0.508,0.292 -0.751,0.445 -0.227,0.143 -0.326,0.26 -0.326,0.767 v 3.17 l 4.845,-4.744 v 6.894 c 0,0.514 0.086,0.619 0.332,0.787 0.268,0.182 0.761,0.438 0.767,0.441 z m -29.056,-4.683 -0.719,1.96 -0.781,-1.96 z m -7.413,2.41 c 0,0.408 -0.266,0.681 -1.034,0.684 l -0.267,-0.002 v -1.858 c 0.112,-0.002 0.224,-0.002 0.264,-0.002 0.506,0 1.037,0.112 1.037,1.178 m 11.091,-5.168 0.674,-0.529 h -4.169 c 0,0 0.354,0.339 0.513,0.506 0.138,0.145 0.209,0.289 0.106,0.535 -0.023,0.06 -0.071,0.19 -0.129,0.355 h -2.889 c -0.058,-0.159 -0.105,-0.287 -0.135,-0.355 -0.117,-0.286 -0.091,-0.367 0.072,-0.521 0.177,-0.171 0.612,-0.519 0.612,-0.519 l -4.373,-0.001 -2.006,2.42 -0.006,0.006 -0.003,0.005 c -0.218,0.299 -0.383,0.469 -0.535,0.549 -0.02,0.011 -0.057,0.024 -0.124,0.039 v -1.701 c 0,-0.5 0.095,-0.591 0.331,-0.771 0.242,-0.185 0.948,-0.547 0.948,-0.547 h -4.662 c 0,0 0.713,0.399 0.934,0.549 0.206,0.139 0.329,0.261 0.329,0.769 v 5.309 c 0,0.492 -0.107,0.645 -0.332,0.785 -0.233,0.145 -0.704,0.442 -0.704,0.442 l -0.165,0.105 c 0,0 3.584,0.001 3.795,0.001 0.729,-0.011 1.02,-0.033 1.425,-0.156 0.976,-0.281 1.581,-1.093 1.581,-2.118 0,-0.477 -0.135,-0.92 -0.388,-1.28 -0.189,-0.281 -0.443,-0.514 -0.733,-0.677 0.834,-1.115 1.493,-1.945 1.899,-2.391 0.027,0.047 2.414,5.812 2.414,5.812 0.008,0.041 0.013,0.078 0.013,0.109 0,0.041 0,0.089 -0.12,0.198 l -0.564,0.514 h 3.142 c 0,0 2.616,-6.635 2.635,-6.675 h -0.002 c 0.073,-0.165 0.094,-0.198 0.169,-0.312 0.112,-0.166 0.151,-0.223 0.447,-0.455 m 14.067,3.464 c 0,1.305 -0.827,2.148 -2.108,2.148 -1.229,0 -1.993,-0.843 -1.993,-2.201 0,-1.312 0.809,-2.16 2.057,-2.16 1.202,0 2.044,0.911 2.044,2.213 m 2.294,0 c 0,-2.353 -1.874,-4.128 -4.359,-4.128 -2.502,0 -4.317,1.714 -4.317,4.075 0,2.398 1.805,4.14 4.295,4.14 2.498,0 4.381,-1.757 4.381,-4.087 m 12.311,1.115 c -0.108,0.027 -0.217,0.053 -0.323,0.079 l -0.029,0.006 c -0.759,0.179 -1.255,0.321 -1.255,0.646 0,0.11 0.032,0.196 0.097,0.26 0.134,0.134 0.411,0.209 0.783,0.209 0.062,0 0.127,-0.003 0.19,-0.008 h 0.025 c 0.013,-0.002 0.025,-0.004 0.038,-0.005 0.686,-0.06 1.505,-0.358 2.344,-0.916 l -0.132,2.353 -0.154,0.052 -0.028,0.01 c -0.012,0.004 -0.101,0.034 -0.361,0.091 -0.158,0.035 -0.969,0.21 -1.454,0.245 -0.158,0.012 -0.314,0.017 -0.461,0.017 -1.776,0 -2.814,-0.842 -2.926,-2.372 -0.056,-0.765 0.321,-1.512 0.956,-1.9 0.568,-0.345 1.417,-0.605 2.036,-0.796 l 0.142,-0.043 c 0.388,-0.119 0.834,-0.359 0.773,-0.823 -0.033,-0.242 -0.127,-0.502 -0.856,-0.502 -0.105,0 -0.22,0.005 -0.348,0.017 -0.502,0.044 -1.089,0.331 -1.74,0.85 -0.026,0.022 -0.047,0.039 -0.062,0.048 l -0.402,0.305 -0.415,0.314 0.165,-2.984 0.154,-0.051 0.03,-0.011 c 0.006,-0.001 0.092,-0.029 0.362,-0.089 0.268,-0.06 1.149,-0.213 1.598,-0.245 0.144,-0.011 0.292,-0.017 0.44,-0.017 1.939,0 3.218,0.965 3.256,2.459 0.037,1.438 -0.786,2.381 -2.443,2.801 M 21.096,-3.562 c 0,1.306 -0.674,2.056 -1.848,2.056 h -0.896 v -4.102 h 0.896 c 1.174,0 1.848,0.747 1.848,2.046 m 2.318,0.021 c 0,-0.927 -0.303,-1.839 -0.832,-2.498 -0.233,-0.293 -0.52,-0.556 -0.856,-0.782 -0.791,-0.528 -1.52,-0.724 -2.688,-0.724 h -4.167 l 0.177,0.103 c 10e-4,0.002 0.516,0.303 0.755,0.448 0.231,0.139 0.327,0.275 0.327,0.768 v 4.6 c 0,0.505 -0.14,0.646 -0.338,0.788 -1.028,0.75 -1.114,1.611 -1.117,1.647 L 14.665,0.924 14.761,0.86 C 14.764,0.858 15.107,0.638 15.485,0.551 15.924,0.45 16.527,0.433 17.794,0.433 h 1.603 V 0.426 c 0.799,-0.032 1.385,-0.178 1.96,-0.479 1.288,-0.675 2.057,-1.978 2.057,-3.488 m -59.351,-3.54 c -0.001,0.002 -0.118,0.161 -0.186,0.268 -0.06,0.094 -0.096,0.174 -0.096,0.502 l -10e-4,2.151 c 0,0.325 0.03,0.386 0.091,0.483 0.068,0.107 0.184,0.266 0.185,0.267 l 0.039,0.052 -0.058,0.031 c -0.006,0.004 -0.155,0.082 -0.321,0.099 V -3.23 c -0.044,0.002 -3.395,0.002 -3.395,0.002 l 0.171,-0.104 c 0,0 0.499,-0.306 0.723,-0.444 0.219,-0.138 0.331,-0.296 0.331,-0.769 v -1.171 c -0.253,-0.08 -0.513,-0.116 -0.823,-0.116 -1.366,0 -2.06,0.737 -2.06,2.194 0,1.387 0.76,2.184 2.084,2.184 0.829,0 1.701,-0.192 2.764,-0.992 l -0.005,0.057 -0.244,2.307 -0.017,0.171 -0.167,0.039 -0.161,0.037 c -0.71,0.164 -0.987,0.208 -1.41,0.261 -0.248,0.03 -0.383,0.046 -0.696,0.046 0,0 -0.089,0.001 -0.134,0.001 -2.496,0 -4.308,-1.747 -4.308,-4.152 0,-2.368 1.821,-4.088 4.331,-4.088 0.438,0 1.284,0.081 1.816,0.191 0.101,0.022 0.158,0.037 0.238,0.054 0.016,0.005 0.034,0.009 0.052,0.013 0.301,0.071 0.605,0.148 0.914,0.243 l 0.39,0.121 z m 25.185,7.506 h -4.518 l 0.169,-0.103 c 0.005,-0.004 0.437,-0.269 0.701,-0.444 0.242,-0.16 0.333,-0.269 0.333,-0.786 V -2.84 l -3.335,3.265 h -2.654 l 0.159,-0.103 c 0.004,-0.002 0.41,-0.267 0.644,-0.437 0.232,-0.169 0.341,-0.34 0.341,-0.858 v -5.255 c 0,-0.515 -0.093,-0.624 -0.325,-0.767 -0.255,-0.156 -0.749,-0.443 -0.754,-0.445 l -0.183,-0.105 h 4.533 l -0.183,0.105 c -0.005,0.002 -0.507,0.292 -0.75,0.445 -0.228,0.143 -0.327,0.26 -0.327,0.767 v 3.17 l 4.845,-4.745 v 6.895 c 0,0.513 0.085,0.619 0.332,0.787 0.268,0.182 0.761,0.438 0.767,0.441 z m -6.65,0.001 V 0.425 Z M -43.067,0.425 h -4.518 l 0.17,-0.103 c 0.004,-0.004 0.437,-0.269 0.701,-0.444 0.242,-0.16 0.333,-0.269 0.333,-0.786 V -2.84 l -3.336,3.266 10e-4,-0.001 -5.245,0.001 c -0.156,0 -0.321,-0.096 -0.329,-0.1 l -0.053,-0.031 0.037,-0.051 c 10e-4,-0.001 0.117,-0.159 0.184,-0.266 0.052,-0.081 0.08,-0.137 0.089,-0.35 0,0 -10e-4,-4.055 -10e-4,-4.063 V -4.44 -4.444 l 0.002,-0.031 c -0.013,-0.857 -0.394,-1.292 -1.2,-1.292 -0.819,0 -1.235,0.45 -1.235,1.332 l -0.002,4.063 c 0.007,0.213 0.037,0.269 0.088,0.35 0.068,0.107 0.184,0.265 0.186,0.266 l 0.037,0.051 -0.054,0.031 c -0.008,0.004 -0.174,0.1 -0.33,0.1 l -3.354,-0.001 0.171,-0.103 c 0.004,-0.003 0.436,-0.267 0.704,-0.444 0.241,-0.159 0.332,-0.268 0.332,-0.786 v -3.289 c 0,-0.724 0.087,-1.307 0.25,-1.684 0.118,-0.269 0.302,-0.527 0.565,-0.79 0.685,-0.675 1.548,-1.002 2.639,-1.002 1.515,0 2.702,0.685 3.176,1.828 0.184,0.444 0.245,0.843 0.245,1.584 v 3.353 c 0,0.518 0.092,0.627 0.333,0.786 0.144,0.095 0.334,0.214 0.48,0.305 0.135,-0.09 0.309,-0.207 0.433,-0.298 0.232,-0.169 0.342,-0.34 0.342,-0.858 v -5.255 c 0,-0.515 -0.093,-0.624 -0.326,-0.767 -0.254,-0.156 -0.75,-0.443 -0.753,-0.445 l -0.182,-0.105 h 4.532 l -0.183,0.105 c -0.005,0.002 -0.508,0.292 -0.751,0.445 -0.226,0.143 -0.326,0.26 -0.326,0.767 v 3.17 l 4.844,-4.745 v 6.895 c 0,0.514 0.087,0.619 0.333,0.787 0.268,0.182 0.761,0.438 0.767,0.441 z m 12.41,-6.034 h -1.808 v 1.167 c 0,0 1.647,0.001 1.693,0.001 0.221,0.003 0.461,0.008 0.598,-0.06 0.159,-0.076 0.27,-0.24 0.272,-0.241 l 0.08,-0.121 -0.003,2.554 -0.067,-0.04 c -0.002,-10e-4 -0.109,-0.067 -0.201,-0.107 -0.081,-0.033 -0.136,-0.049 -0.499,-0.049 h -1.873 v 0.995 h 1.876 c 0.482,0 0.587,-0.043 0.862,-0.237 l 0.464,-0.355 -0.245,2.527 h -6.381 l 0.17,-0.103 c 0.004,-0.004 0.437,-0.269 0.7,-0.444 0.241,-0.161 0.333,-0.271 0.333,-0.786 v -5.319 c 0,-0.523 -0.08,-0.616 -0.325,-0.768 -0.244,-0.151 -0.747,-0.443 -0.751,-0.445 l -0.182,-0.105 h 6.616 l 0.592,2.661 c 0,0 -0.533,-0.385 -0.685,-0.479 -0.295,-0.181 -0.525,-0.246 -1.236,-0.246 m 23.199,3.172 c -0.107,0.027 -0.216,0.053 -0.323,0.079 l -0.03,0.006 c -0.757,0.179 -1.253,0.321 -1.253,0.646 0,0.11 0.03,0.196 0.097,0.259 0.133,0.135 0.412,0.21 0.783,0.21 0.062,0 0.126,-0.003 0.19,-0.008 0.008,0 0.016,0 0.023,-10e-4 0.014,-0.001 0.027,-0.003 0.039,-0.004 0.686,-0.06 1.504,-0.358 2.343,-0.916 l -0.13,2.353 -0.154,0.052 -0.029,0.009 c -0.012,0.005 -0.101,0.035 -0.363,0.092 -0.157,0.035 -0.967,0.21 -1.453,0.244 -0.157,0.012 -0.313,0.018 -0.46,0.018 -1.775,0 -2.815,-0.842 -2.926,-2.372 -0.056,-0.765 0.32,-1.512 0.958,-1.9 0.568,-0.345 1.415,-0.606 2.035,-0.796 l 0.142,-0.043 c 0.386,-0.119 0.833,-0.359 0.772,-0.823 -0.031,-0.242 -0.127,-0.502 -0.855,-0.502 -0.105,0 -0.221,0.005 -0.348,0.017 -0.504,0.044 -1.091,0.331 -1.741,0.85 -0.026,0.021 -0.047,0.039 -0.062,0.048 l -0.403,0.305 -0.414,0.314 0.165,-2.984 0.157,-0.051 0.027,-0.011 c 0.006,-0.001 0.091,-0.029 0.362,-0.09 0.268,-0.059 1.149,-0.212 1.597,-0.244 0.145,-0.011 0.294,-0.017 0.44,-0.017 1.941,0 3.219,0.965 3.257,2.459 0.036,1.438 -0.786,2.381 -2.443,2.801 m -55.32,-1.125 c 0,1.306 -0.673,2.056 -1.847,2.056 h -0.896 v -4.102 h 0.896 c 1.174,0 1.847,0.747 1.847,2.046 m 2.317,0.021 c 0,-0.927 -0.303,-1.839 -0.831,-2.498 -0.233,-0.293 -0.52,-0.556 -0.856,-0.782 -0.791,-0.528 -1.519,-0.724 -2.688,-0.724 h -4.168 l 0.178,0.103 c 0,0.002 0.516,0.303 0.756,0.448 0.231,0.139 0.326,0.275 0.326,0.768 v 4.6 c 0,0.505 -0.139,0.646 -0.337,0.788 -1.028,0.75 -1.116,1.611 -1.118,1.647 l -0.01,0.115 0.096,-0.064 c 0.004,-0.002 0.346,-0.222 0.724,-0.309 0.44,-0.101 1.042,-0.118 2.31,-0.118 h 1.602 V 0.426 c 0.799,-0.032 1.385,-0.178 1.96,-0.479 1.287,-0.675 2.056,-1.978 2.056,-3.488 m 38.398,-0.004 c 0,1.305 -0.827,2.149 -2.107,2.149 -1.228,0 -1.991,-0.844 -1.991,-2.203 0,-1.311 0.806,-2.159 2.054,-2.159 1.203,0 2.044,0.91 2.044,2.213 m 2.295,0 c 0,-2.354 -1.875,-4.129 -4.36,-4.129 -2.502,0 -4.317,1.714 -4.317,4.075 0,2.399 1.806,4.139 4.295,4.139 2.498,0 4.382,-1.756 4.382,-4.085 m 24.622,0.8 -0.075,0.244 C 4.771,-2.475 4.582,-1.879 3.945,-1.645 L 3.597,-1.516 3.698,-1.873 C 3.785,-2.179 3.946,-2.745 4.599,-2.745 Z M 0.13,-1.289 c 0.075,0.295 -0.509,0.798 -0.726,0.892 0.801,0.032 1.2,-0.118 1.2,-0.118 C 0.395,-0.207 0.327,0.265 0.446,0.638 0.883,-0.409 2.444,-0.577 2.831,-1.447 2.776,-1.071 2.422,-0.651 2.011,-0.405 1.79,0.166 1.955,1.218 2.224,1.507 2.13,-0.005 4.287,-0.87 4.736,-1.968 4.473,-1.027 3.467,-0.432 2.989,0.133 2.832,0.506 2.954,1.14 3.124,1.356 3.073,0.344 4.166,-0.446 4.751,-1.012 c 0.687,-0.667 0.883,-1.256 0.79,-1.738 0.15,-0.04 0.358,-0.186 0.323,-0.434 0.22,0.051 0.444,0.304 0.497,0.458 0.108,-0.751 -0.334,-1.547 -0.828,-1.784 0,0 0.134,0.359 -0.093,0.633 -0.223,0.271 -0.854,0.275 -1.069,0.258 0,0 0.263,0.389 0.158,0.586 -0.128,0.243 -1.365,0.137 -1.918,-0.064 0.188,0.02 0.635,-0.03 0.79,-0.095 -0.087,-0.129 -0.314,-0.674 -0.15,-0.837 0.15,-0.149 0.347,0.111 0.347,0.111 0,0 -0.193,-0.597 -0.056,-0.735 0.139,-0.137 0.435,-0.04 0.435,-0.04 -0.184,-0.466 -0.904,-0.789 -1.405,-0.789 0.179,0.057 0.475,0.378 0.52,0.568 -0.132,-0.065 -0.475,-0.103 -0.608,-0.079 0.163,0.066 0.489,0.487 0.386,0.956 -0.147,0.687 -1.106,0.774 -1.586,0.442 0.155,0.462 0.621,0.894 0.987,1.035 -0.213,0.075 -0.464,0.138 -0.733,0.186 0.306,0.251 1.076,0.456 1.468,0.434 -0.598,0.155 -1.693,-0.037 -2.194,-0.63 0.159,0 0.573,-0.078 0.733,-0.128 -0.689,-0.125 -1.624,-0.765 -1.901,-1.067 0.073,0.398 0.185,0.734 0.09,0.974 -0.132,0.335 -0.541,0.478 -1.357,0.31 0.551,0.55 1.677,0.892 1.753,1.192 m 12.918,-6.615 c 0,-1.138 -1.132,-2.026 -2.414,-1.845 0.327,-0.305 1.119,-0.512 1.541,-0.321 -0.241,-0.436 -1.401,-1.054 -2.495,-0.764 -1.024,0.273 -1.474,1.252 -1.5,1.874 -0.484,-0.484 -0.353,-1.273 -0.008,-1.585 -0.4,0.104 -1.002,0.519 -1.104,1.264 -0.086,0.64 0.27,1.371 -0.398,1.959 C 6.271,-6.971 5.664,-6.469 5.271,-6.16 4.447,-5.515 4.759,-5.041 4.574,-4.7 4.432,-4.437 4.086,-4.289 3.879,-4.049 3.67,-3.807 3.678,-3.448 3.795,-3.242 3.76,-3.53 3.966,-3.745 4.24,-3.836 c 0.304,-0.1 0.56,-0.017 0.819,-0.168 0.312,-0.18 0.167,-0.667 0.393,-0.84 0.203,-0.153 0.709,0.05 1.141,-0.298 0.434,-0.348 1.406,-1.157 1.825,-1.502 0.753,-0.62 1.53,0.087 1.272,0.797 0.765,-0.453 0.849,-1.72 0.213,-2.162 0.599,-0.136 1.68,0.132 1.68,1 0,0.531 -0.49,0.906 -0.84,0.965 1.229,0.115 2.305,-0.747 2.305,-1.86"
           style="fill:#000000;fill-opacity:1;fill-rule:nonzero;stroke:none"
           transform="matrix(1.3333333,0,0,-1.3333333,241.02427,43.828267)"
           clip-path="url(#clipPath358)" />
      </g>
    </g>
  </g>
</svg>
