<?xml version="1.0" encoding="UTF-8" standalone="no"?>
<!-- Created with Inkscape (http://www.inkscape.org/) -->

<svg
   width="212.60797mm"
   height="34.114105mm"
   viewBox="0 0 212.60797 34.114105"
   version="1.1"
   id="svg1"
   xmlns:inkscape="http://www.inkscape.org/namespaces/inkscape"
   xmlns:sodipodi="http://sodipodi.sourceforge.net/DTD/sodipodi-0.dtd"
   xmlns="http://www.w3.org/2000/svg"
   xmlns:svg="http://www.w3.org/2000/svg">
  <sodipodi:namedview
     id="namedview1"
     pagecolor="#ffffff"
     bordercolor="#000000"
     borderopacity="0.25"
     inkscape:showpageshadow="2"
     inkscape:pageopacity="0.0"
     inkscape:pagecheckerboard="0"
     inkscape:deskcolor="#d1d1d1"
     inkscape:document-units="mm"
     inkscape:zoom="1.4627806"
     inkscape:cx="378.73076"
     inkscape:cy="223.88867"
     inkscape:window-width="1920"
     inkscape:window-height="1017"
     inkscape:window-x="1912"
     inkscape:window-y="455"
     inkscape:window-maximized="1"
     inkscape:current-layer="layer1" />
  <defs
     id="defs1">
    <clipPath
       clipPathUnits="userSpaceOnUse"
       id="clipPath1789">
      <path
         d="M 0,793.2 H 613.2 V 0 H 0 Z"
         transform="translate(-311.33978,-719.42582)"
         id="path1789" />
    </clipPath>
    <clipPath
       clipPathUnits="userSpaceOnUse"
       id="clipPath1791">
      <path
         d="M 0,793.2 H 613.2 V 0 H 0 Z"
         transform="translate(-282.18601,-681.51902)"
         id="path1791" />
    </clipPath>
    <clipPath
       clipPathUnits="userSpaceOnUse"
       id="clipPath1793">
      <path
         d="M 0,793.2 H 613.2 V 0 H 0 Z"
         transform="translate(-374.96873,-739.72312)"
         id="path1793" />
    </clipPath>
    <clipPath
       clipPathUnits="userSpaceOnUse"
       id="clipPath1801">
      <path
         d="M 0,793.2 H 613.2 V 0 H 0 Z"
         transform="translate(-206.20021,-726.77782)"
         id="path1801" />
    </clipPath>
    <clipPath
       clipPathUnits="userSpaceOnUse"
       id="clipPath1803">
      <path
         d="M 0,793.2 H 613.2 V 0 H 0 Z"
         transform="translate(-206.20021,-699.69821)"
         id="path1803" />
    </clipPath>
    <clipPath
       clipPathUnits="userSpaceOnUse"
       id="clipPath1805">
      <path
         d="M 0,793.2 H 613.2 V 0 H 0 Z"
         transform="translate(-63.290027,-702.73782)"
         id="path1805" />
    </clipPath>
    <clipPath
       clipPathUnits="userSpaceOnUse"
       id="clipPath1810">
      <path
         d="M 0,793.2 H 613.2 V 0 H 0 Z"
         transform="translate(-197.88383,-715.98192)"
         id="path1810" />
    </clipPath>
    <clipPath
       clipPathUnits="userSpaceOnUse"
       id="clipPath1812">
      <path
         d="M 0,793.2 H 613.2 V 0 H 0 Z"
         transform="translate(-584.75979,-680.55371)"
         id="path1812" />
    </clipPath>
    <clipPath
       clipPathUnits="userSpaceOnUse"
       id="clipPath1814">
      <path
         d="M 0,793.2 H 613.2 V 0 H 0 Z"
         transform="translate(-210.63721,-685.02392)"
         id="path1814" />
    </clipPath>
    <clipPath
       clipPathUnits="userSpaceOnUse"
       id="clipPath1817">
      <path
         d="M 0,793.2 H 613.2 V 0 H 0 Z"
         transform="translate(-86.943377,-752.34522)"
         id="path1817" />
    </clipPath>
    <clipPath
       clipPathUnits="userSpaceOnUse"
       id="clipPath1819">
      <path
         d="M 0,793.2 H 613.2 V 0 H 0 Z"
         transform="translate(-235.71578,-697.52692)"
         id="path1819" />
    </clipPath>
    <clipPath
       clipPathUnits="userSpaceOnUse"
       id="clipPath1821">
      <path
         d="M 0,793.2 H 613.2 V 0 H 0 Z"
         transform="translate(-103.52933,-731.94382)"
         id="path1821" />
    </clipPath>
    <clipPath
       clipPathUnits="userSpaceOnUse"
       id="clipPath1823">
      <path
         d="M 0,793.2 H 613.2 V 0 H 0 Z"
         transform="translate(-76.281302,-740.60352)"
         id="path1823" />
    </clipPath>
    <clipPath
       clipPathUnits="userSpaceOnUse"
       id="clipPath1825">
      <path
         d="M 0,793.2 H 613.2 V 0 H 0 Z"
         transform="translate(-45.998026,-715.96972)"
         id="path1825" />
    </clipPath>
    <clipPath
       clipPathUnits="userSpaceOnUse"
       id="clipPath1827">
      <path
         d="M 0,793.2 H 613.2 V 0 H 0 Z"
         transform="translate(-40.154326,-710.99372)"
         id="path1827" />
    </clipPath>
    <clipPath
       clipPathUnits="userSpaceOnUse"
       id="clipPath1829">
      <path
         d="M 0,793.2 H 613.2 V 0 H 0 Z"
         transform="translate(-40.463926,-708.20412)"
         id="path1829" />
    </clipPath>
    <clipPath
       clipPathUnits="userSpaceOnUse"
       id="clipPath1831">
      <path
         d="M 0,793.2 H 613.2 V 0 H 0 Z"
         transform="translate(-189.4131,-728.50592)"
         id="path1831" />
    </clipPath>
    <clipPath
       clipPathUnits="userSpaceOnUse"
       id="clipPath1833">
      <path
         d="M 0,793.2 H 613.2 V 0 H 0 Z"
         transform="translate(-193.97123,-736.11822)"
         id="path1833" />
    </clipPath>
    <clipPath
       clipPathUnits="userSpaceOnUse"
       id="clipPath1835">
      <path
         d="M 0,793.2 H 613.2 V 0 H 0 Z"
         transform="translate(-193.82183,-743.24512)"
         id="path1835" />
    </clipPath>
    <clipPath
       clipPathUnits="userSpaceOnUse"
       id="clipPath1837">
      <path
         d="M 0,793.2 H 613.2 V 0 H 0 Z"
         transform="translate(-187.15043,-748.83112)"
         id="path1837" />
    </clipPath>
    <clipPath
       clipPathUnits="userSpaceOnUse"
       id="clipPath1839">
      <path
         d="M 0,793.2 H 613.2 V 0 H 0 Z"
         transform="translate(-190.17038,-754.00592)"
         id="path1839" />
    </clipPath>
    <clipPath
       clipPathUnits="userSpaceOnUse"
       id="clipPath1841">
      <path
         d="M 0,793.2 H 613.2 V 0 H 0 Z"
         transform="translate(-190.53908,-745.82132)"
         id="path1841" />
    </clipPath>
    <clipPath
       clipPathUnits="userSpaceOnUse"
       id="clipPath1843">
      <path
         d="M 0,793.2 H 613.2 V 0 H 0 Z"
         transform="translate(-187.97903,-738.78272)"
         id="path1843" />
    </clipPath>
    <clipPath
       clipPathUnits="userSpaceOnUse"
       id="clipPath1845">
      <path
         d="M 0,793.2 H 613.2 V 0 H 0 Z"
         transform="translate(-192.55658,-733.26272)"
         id="path1845" />
    </clipPath>
    <clipPath
       clipPathUnits="userSpaceOnUse"
       id="clipPath1847">
      <path
         d="M 0,793.2 H 613.2 V 0 H 0 Z"
         transform="translate(-185.10938,-728.76612)"
         id="path1847" />
    </clipPath>
    <clipPath
       clipPathUnits="userSpaceOnUse"
       id="clipPath1849">
      <path
         d="M 0,793.2 H 613.2 V 0 H 0 Z"
         transform="translate(-190.2393,-720.84962)"
         id="path1849" />
    </clipPath>
    <clipPath
       clipPathUnits="userSpaceOnUse"
       id="clipPath1851">
      <path
         d="M 0,793.2 H 613.2 V 0 H 0 Z"
         transform="translate(-182.87843,-722.85602)"
         id="path1851" />
    </clipPath>
    <clipPath
       clipPathUnits="userSpaceOnUse"
       id="clipPath1853">
      <path
         d="M 0,793.2 H 613.2 V 0 H 0 Z"
         transform="translate(-196.51763,-725.79592)"
         id="path1853" />
    </clipPath>
    <clipPath
       clipPathUnits="userSpaceOnUse"
       id="clipPath1855">
      <path
         d="M 0,793.2 H 613.2 V 0 H 0 Z"
         transform="translate(-117.37703,-717.72412)"
         id="path1855" />
    </clipPath>
    <clipPath
       clipPathUnits="userSpaceOnUse"
       id="clipPath1857">
      <path
         d="M 0,793.2 H 613.2 V 0 H 0 Z"
         transform="translate(-115.89503,-740.16602)"
         id="path1857" />
    </clipPath>
    <clipPath
       clipPathUnits="userSpaceOnUse"
       id="clipPath1859">
      <path
         d="M 0,793.2 H 613.2 V 0 H 0 Z"
         transform="translate(-163.7085,-720.64452)"
         id="path1859" />
    </clipPath>
    <clipPath
       clipPathUnits="userSpaceOnUse"
       id="clipPath1861">
      <path
         d="M 0,793.2 H 613.2 V 0 H 0 Z"
         transform="translate(-142.44578,-717.72412)"
         id="path1861" />
    </clipPath>
    <clipPath
       clipPathUnits="userSpaceOnUse"
       id="clipPath1863">
      <path
         d="M 0,793.2 H 613.2 V 0 H 0 Z"
         transform="translate(-177.8628,-730.57762)"
         id="path1863" />
    </clipPath>
    <clipPath
       clipPathUnits="userSpaceOnUse"
       id="clipPath1865">
      <path
         d="M 0,793.2 H 613.2 V 0 H 0 Z"
         transform="translate(-141.24608,-731.06252)"
         id="path1865" />
    </clipPath>
    <clipPath
       clipPathUnits="userSpaceOnUse"
       id="clipPath1867">
      <path
         d="m 139.587,730.938 h 40.472 v 20.806 h -40.472 z"
         transform="translate(-162.48188,-737.02592)"
         id="path1867" />
    </clipPath>
  </defs>
  <g
     inkscape:label="Layer 1"
     inkscape:groupmode="layer"
     id="layer1"
     transform="translate(0.61693789,-13.755414)">
    <path
       id="path1788"
       d="M 0,0 -23.524,-1.76 0,-3.519 23.521,-1.76 Z m -140.808,-6.594 -23.523,-1.759 -23.524,1.759 23.524,1.76 z m -115.614,17.187 -22.543,1.685 27.797,2.079 -42.534,3.179 37.88,2.834 -52.476,3.922 89.358,6.684 -24.01,1.794 43.838,3.279 38.95,-2.913 17.518,2.281 -42.979,3.211 34.443,2.576 24.004,-1.794 27.868,2.084 26.048,-1.949 -26.466,-1.981 29.16,-2.181 29.157,2.181 -16.901,1.265 20.191,1.51 L 26.437,35.513 3.563,33.802 76.102,28.381 33.382,25.186 55.925,23.501 28.129,21.422 70.661,18.243 32.783,15.409 85.26,11.487 13.143,6.093 46.163,3.622 11.305,1.017 2.291,1.691 -23.926,-0.27 l -38.95,2.913 -17.499,-2.277 45.39,-3.396 -62.31,-4.657 -13.625,1.018 24.528,1.835 -35.025,2.62 -24.548,-1.836 -16.071,1.201 -22.884,-1.71 -64.556,4.825 22.874,1.711 -72.538,5.421"
       style="fill:#deddde;fill-opacity:1;fill-rule:nonzero;stroke:none"
       transform="matrix(0.35277776,0,0,-0.35277776,108.14374,31.18768)"
       clip-path="url(#clipPath1789)"
       inkscape:export-filename="headerP5.svg"
       inkscape:export-xdpi="96"
       inkscape:export-ydpi="96" />
    <path
       id="path1790"
       d="M 0,0 18.891,-1.413 0,-2.826 -18.888,-1.413 Z m 113.072,-5.295 18.89,-1.413 18.891,1.413 -18.891,1.413 z m 92.841,13.801 18.103,1.354 -22.322,1.669 34.156,2.553 -30.419,2.275 42.14,3.15 -71.757,5.367 19.281,1.441 -35.203,2.633 -31.278,-2.339 -14.067,1.831 34.513,2.579 -27.659,2.069 L 102.125,31.647 79.747,33.321 58.83,31.756 80.082,30.165 56.666,28.414 33.253,30.165 46.824,31.18 30.61,32.393 -21.229,28.518 -2.86,27.144 -61.111,22.79 l 34.305,-2.565 -18.103,-1.353 22.321,-1.67 -34.155,-2.552 30.417,-2.276 -42.14,-3.15 57.912,-4.331 -26.516,-1.984 27.992,-2.092 7.239,0.541 21.052,-1.575 31.278,2.34 14.051,-1.83 -36.448,-2.726 50.036,-3.74 10.941,0.818 -19.696,1.473 28.125,2.104 19.714,-1.474 12.905,0.964 18.376,-1.373 51.84,3.875 -18.368,1.373 58.25,4.354"
       style="fill:#deddde;fill-opacity:1;fill-rule:nonzero;stroke:none"
       transform="matrix(0.35277776,0,0,-0.35277776,97.858934,44.560356)"
       clip-path="url(#clipPath1791)" />
    <path
       id="path1792"
       d="M 0,0 16.508,-1.235 0,-2.469 -16.505,-1.235 Z m 98.809,-4.627 16.506,-1.235 16.508,1.235 -16.508,1.235 z m 81.129,12.06 15.819,1.183 -19.506,1.458 29.847,2.232 -26.58,1.988 36.822,2.752 -62.705,4.691 16.849,1.258 -30.761,2.302 -27.333,-2.045 -12.292,1.601 30.158,2.253 -24.169,1.808 -16.844,-1.259 -19.555,1.462 -18.28,-1.367 18.572,-1.39 -20.461,-1.531 -20.46,1.531 11.858,0.887 -14.168,1.059 -45.3,-3.386 16.051,-1.2 -50.901,-3.805 29.976,-2.241 -15.819,-1.183 19.506,-1.459 -29.847,-2.23 26.58,-1.989 L -59.829,8.061 -9.222,4.276 -32.394,2.542 -7.933,0.714 -1.606,1.187 16.789,-0.19 44.122,1.855 56.401,0.256 24.55,-2.126 l 43.724,-3.268 9.561,0.714 -17.212,1.288 24.578,1.839 17.227,-1.289 11.277,0.843 16.059,-1.2 45.299,3.386 -16.051,1.2 50.902,3.804"
       style="fill:#deddde;fill-opacity:1;fill-rule:nonzero;stroke:none"
       transform="matrix(0.35277776,0,0,-0.35277776,130.59061,24.027243)"
       clip-path="url(#clipPath1793)" />
    <path
       id="path1800"
       d="M 0,0 H 357.399"
       style="fill:none;stroke:#b2b1b1;stroke-width:0.25;stroke-linecap:butt;stroke-linejoin:miter;stroke-miterlimit:4;stroke-dasharray:none;stroke-opacity:1"
       transform="matrix(0.35277776,0,0,-0.35277776,71.052833,28.594057)"
       clip-path="url(#clipPath1801)" />
    <path
       id="path1802"
       d="M 0,0 H 355.6"
       style="fill:none;stroke:#b2b1b1;stroke-width:0.25;stroke-linecap:butt;stroke-linejoin:miter;stroke-miterlimit:4;stroke-dasharray:none;stroke-opacity:1"
       transform="matrix(0.35277776,0,0,-0.35277776,71.052833,38.147139)"
       clip-path="url(#clipPath1803)" />
    <path
       id="path1804"
       d="M 0,0 -0.001,0.174 0.042,0.141 0.079,-0.042 C 0.052,-0.03 0.026,-0.015 0,0 M -0.002,0.359 0.022,0.24 -0.002,0.268 Z M -0.259,0.264 C -0.265,0.292 -0.274,0.322 -0.284,0.352 -0.291,0.371 -0.298,0.391 -0.305,0.41 -0.298,0.404 -0.29,0.398 -0.282,0.392 -0.27,0.36 -0.258,0.328 -0.245,0.295 L -0.205,0.197 -0.2,0.166 c -0.02,0.033 -0.039,0.066 -0.059,0.098 m -0.075,1.412 c 0,0.004 0.001,0.008 0,0.011 l 0.001,-0.011 z m -0.073,0.249 c 0,0.055 0,0.109 10e-4,0.164 0.006,0.05 0.014,0.1 0.021,0.15 L -0.36,2.112 -0.348,1.917 Z M -0.562,3.082 C -0.577,2.953 -0.589,2.825 -0.6,2.696 -0.608,2.917 -0.613,3.137 -0.613,3.357 L -0.557,3.081 Z M -0.688,1.381 C -0.703,1.388 -0.719,1.392 -0.735,1.393 -0.718,1.449 -0.7,1.505 -0.684,1.562 -0.69,1.502 -0.691,1.441 -0.688,1.381 M -0.715,0.301 -0.773,0.422 C -0.77,0.421 -0.766,0.418 -0.763,0.416 -0.747,0.376 -0.729,0.337 -0.712,0.297 -0.713,0.299 -0.714,0.3 -0.715,0.301 m -0.19,1.288 C -0.906,1.591 -0.908,1.593 -0.91,1.596 -0.908,1.594 -0.906,1.592 -0.904,1.591 -0.905,1.59 -0.905,1.59 -0.905,1.589 M -1.794,1.818 C -1.772,1.792 -1.752,1.764 -1.731,1.737 -1.729,1.728 -1.726,1.72 -1.724,1.711 -1.747,1.747 -1.771,1.783 -1.794,1.818 M -1.743,2.346 -1.739,2.314 -1.84,2.433 C -1.808,2.404 -1.775,2.375 -1.743,2.346 M -2.031,2.549 -2.074,2.592 C -2.058,2.579 -2.042,2.566 -2.025,2.553 Z M -2.562,2.733 C -2.599,2.777 -2.636,2.821 -2.674,2.864 -2.73,2.94 -2.785,3.016 -2.84,3.093 -2.852,3.112 -2.864,3.131 -2.876,3.151 l 0.238,-0.242 0.1,-0.16 z M -3.459,4.11 -3.465,4.124 c 0.046,-0.045 0.093,-0.09 0.14,-0.135 L -3.289,3.942 C -3.347,3.998 -3.403,4.055 -3.459,4.11 M -3.993,3.726 C -3.975,3.711 -3.957,3.695 -3.938,3.68 -3.877,3.601 -3.817,3.521 -3.755,3.442 -3.832,3.535 -3.913,3.631 -3.993,3.726 m 0.026,-1.902 0.005,-0.026 0.009,0.118 c 0.026,0.169 0.046,0.34 0.055,0.511 C -3.895,2.425 -3.893,2.423 -3.89,2.421 -3.885,2.253 -3.895,2.088 -3.927,1.927 -3.945,1.834 -3.971,1.745 -4.001,1.656 c 0.012,0.056 0.024,0.112 0.034,0.168 M -4.151,4.45 c 0,0.002 0,0.004 10e-4,0.006 C -4.149,4.454 -4.147,4.452 -4.146,4.451 -4.142,4.445 -4.139,4.44 -4.135,4.435 -4.14,4.44 -4.146,4.445 -4.151,4.45 M -4.263,4.559 C -4.282,4.577 -4.302,4.596 -4.321,4.615 L -4.427,4.73 -4.434,4.724 C -4.443,4.733 -4.453,4.742 -4.462,4.751 -4.466,4.782 -4.471,4.812 -4.476,4.843 -4.405,4.757 -4.333,4.672 -4.261,4.587 -4.262,4.578 -4.263,4.568 -4.263,4.559 M -4.322,1.238 V 1.206 L -4.334,1.192 C -4.338,1.186 -4.343,1.181 -4.347,1.175 c 0.008,0.031 0.018,0.061 0.025,0.092 V 1.238 m -0.044,0.65 c 0.006,0.024 0.011,0.049 0.018,0.073 10e-4,-0.01 0.003,-0.02 0.004,-0.03 -0.003,-0.053 -0.007,-0.106 -0.012,-0.159 -0.003,0.039 -0.007,0.077 -0.01,0.116 m -0.048,0.386 c -0.008,0.046 -0.014,0.092 -0.022,0.138 -0.001,0.005 -0.002,0.01 -0.003,0.014 l 0.02,0.167 C -4.406,2.587 -4.394,2.581 -4.382,2.576 -4.383,2.509 -4.383,2.442 -4.382,2.375 -4.391,2.341 -4.404,2.308 -4.414,2.274 m -0.05,1.012 C -4.47,3.299 -4.475,3.313 -4.481,3.326 -4.473,3.319 -4.467,3.312 -4.459,3.305 -4.461,3.298 -4.463,3.292 -4.464,3.286 M -4.495,1.859 c 0,0.026 -0.002,0.052 -0.003,0.077 l 0.004,0.035 C -4.491,1.946 -4.488,1.92 -4.486,1.895 -4.489,1.883 -4.492,1.871 -4.495,1.859 m -0.11,-0.81 0.009,0.069 0.01,-0.045 C -4.593,1.065 -4.598,1.057 -4.605,1.049 M -4.646,3.354 C -4.65,3.361 -4.652,3.369 -4.656,3.377 L -4.63,3.344 v -0.01 c -0.005,0.007 -0.011,0.013 -0.016,0.02 M -4.681,5.073 C -4.665,5.057 -4.648,5.042 -4.632,5.025 V 5.022 L -4.679,5.07 c 0,10e-4 -10e-4,0.002 -0.002,0.003 M -4.889,6.027 C -4.904,6.055 -4.922,6.081 -4.938,6.109 L -4.685,5.851 -4.673,5.802 C -4.67,5.79 -4.666,5.777 -4.662,5.764 -4.736,5.853 -4.812,5.941 -4.889,6.027 M -4.928,2.889 C -4.917,2.881 -4.905,2.873 -4.894,2.865 -4.884,2.81 -4.873,2.756 -4.858,2.702 -4.859,2.656 -4.86,2.611 -4.862,2.565 V 2.566 C -4.869,2.59 -4.876,2.614 -4.882,2.638 -4.89,2.674 -4.898,2.71 -4.907,2.746 -4.916,2.793 -4.923,2.841 -4.928,2.889 M -4.949,0.34 c -0.005,-0.009 -0.01,-0.017 -0.016,-0.026 0.003,0.013 0.004,0.025 0.007,0.038 0.034,0.053 0.067,0.108 0.103,0.16 C -4.885,0.454 -4.917,0.397 -4.949,0.34 M -5.047,6.001 C -5.06,6.024 -5.073,6.047 -5.086,6.07 -5.054,6.035 -5.023,5.999 -4.992,5.964 -4.984,5.95 -4.975,5.936 -4.967,5.921 -4.993,5.948 -5.02,5.974 -5.047,6.001 m 0.01,-0.289 0.007,-0.004 c 0.001,-0.002 0.001,-0.004 0.002,-0.007 -0.003,0.004 -0.006,0.008 -0.009,0.011 m -0.222,-5.875 c -0.002,-0.003 -0.004,-0.006 -0.006,-0.009 0.005,0.013 0.01,0.026 0.015,0.039 0.04,0.074 0.084,0.147 0.127,0.219 L -5.107,0.083 C -5.157,0.001 -5.21,-0.079 -5.259,-0.163 m 0.078,3.879 C -5.189,3.719 -5.198,3.723 -5.206,3.726 -5.212,3.738 -5.218,3.75 -5.223,3.762 -5.209,3.75 -5.195,3.738 -5.181,3.726 v -0.01 m -0.043,-0.418 0.01,-0.01 C -5.21,3.277 -5.205,3.267 -5.201,3.257 -5.208,3.271 -5.216,3.284 -5.224,3.298 m -0.169,2.859 c -0.006,0.014 -0.011,0.028 -0.017,0.042 0.003,-0.003 0.006,-0.006 0.009,-0.01 0.02,-0.031 0.04,-0.064 0.059,-0.096 -0.017,0.021 -0.034,0.042 -0.051,0.064 M -5.408,4.385 -5.384,4.383 C -5.376,4.371 -5.369,4.359 -5.361,4.348 -5.358,4.34 -5.354,4.333 -5.35,4.326 -5.37,4.344 -5.388,4.366 -5.408,4.385 M -5.458,3.707 C -5.445,3.7 -5.431,3.695 -5.418,3.689 -5.417,3.68 -5.415,3.671 -5.414,3.662 -5.429,3.677 -5.443,3.692 -5.458,3.707 m 0.01,0.233 0.004,-0.033 c -0.052,0.049 -0.102,0.098 -0.153,0.147 0.05,-0.038 0.1,-0.075 0.149,-0.114 m -0.287,2.435 0.01,0.009 C -5.693,6.343 -5.66,6.303 -5.628,6.262 -5.585,6.187 -5.537,6.115 -5.48,6.05 -5.476,6.041 -5.473,6.032 -5.469,6.022 -5.491,6.045 -5.513,6.066 -5.535,6.089 -5.602,6.184 -5.668,6.28 -5.735,6.375 M -5.86,7.38 C -5.302,6.931 -4.743,6.479 -4.189,6.019 -4.713,6.426 -5.233,6.838 -5.75,7.253 -5.785,7.297 -5.823,7.338 -5.86,7.38 M -6.465,7.828 -6.64,8.006 C -6.517,7.908 -6.394,7.808 -6.272,7.71 L -6.251,7.656 C -6.322,7.713 -6.394,7.77 -6.465,7.828 m 0.094,-0.315 c -0.033,0.029 -0.066,0.058 -0.1,0.086 L -6.546,7.662 -6.548,7.653 c -0.057,0.076 -0.115,0.152 -0.171,0.228 0.058,-0.047 0.115,-0.095 0.174,-0.142 l 0.201,-0.204 z m 0.575,-3.814 c -0.011,0.013 -0.023,0.025 -0.035,0.037 0.01,-0.003 0.02,-0.007 0.029,-0.011 L -5.8,3.729 c 0.017,-0.023 0.033,-0.047 0.051,-0.069 0,-0.001 10e-4,-0.002 0.002,-0.003 -0.017,0.014 -0.033,0.028 -0.049,0.042 m 0.038,1.357 0.005,-0.008 c -0.028,0.023 -0.056,0.046 -0.085,0.069 0.027,-0.021 0.054,-0.04 0.08,-0.061 M -5.893,3.615 C -5.9,3.626 -5.908,3.637 -5.915,3.648 -5.903,3.637 -5.892,3.625 -5.88,3.614 -5.872,3.606 -5.865,3.597 -5.857,3.588 -5.868,3.598 -5.881,3.606 -5.893,3.615 M -5.917,3.125 C -5.989,3.208 -6.065,3.287 -6.14,3.366 -6.105,3.34 -6.069,3.314 -6.033,3.288 -5.986,3.228 -5.937,3.169 -5.892,3.107 -5.9,3.113 -5.909,3.119 -5.917,3.125 M -6.131,3.86 c 0.017,-0.017 0.034,-0.033 0.05,-0.049 L -6.117,3.789 C -6.152,3.827 -6.191,3.862 -6.226,3.899 -6.194,3.886 -6.162,3.872 -6.131,3.86 M -6.154,5.344 C -6.12,5.322 -6.087,5.298 -6.053,5.275 L -6.052,5.271 C -6.09,5.296 -6.126,5.323 -6.165,5.345 Z M -5.973,5.22 c -0.02,0.013 -0.04,0.026 -0.06,0.039 L -6.047,5.27 c 0.025,-0.016 0.05,-0.033 0.074,-0.05 M -6.311,5.475 -6.318,5.479 C -6.363,5.504 -6.409,5.527 -6.454,5.552 -6.406,5.526 -6.358,5.502 -6.31,5.476 Z M -6.434,3.752 C -6.421,3.745 -6.408,3.738 -6.396,3.732 -6.387,3.721 -6.377,3.71 -6.368,3.7 -6.389,3.717 -6.412,3.734 -6.434,3.752 m -0.051,1.182 -0.084,0.059 c 0.058,-0.029 0.117,-0.056 0.174,-0.086 -0.015,0.004 -0.031,0.007 -0.046,0.011 -0.015,0.005 -0.03,0.011 -0.044,0.016 m -0.294,0.121 c -0.002,0.014 -0.007,0.027 -0.013,0.038 -0.004,0.006 -0.009,0.011 -0.013,0.016 0.007,-0.003 0.014,-0.007 0.021,-0.01 L -6.716,5.027 C -6.737,5.036 -6.758,5.046 -6.779,5.055 M -7.323,4.93 v 0.006 c -0.007,0 -0.014,0.001 -0.021,0.001 -0.015,0.006 -0.029,0.012 -0.044,0.017 0.057,-0.009 0.113,-0.017 0.17,-0.026 l 0.001,0.006 C -7.085,4.878 -6.952,4.827 -6.816,4.781 -6.811,4.774 -6.805,4.768 -6.8,4.761 -6.976,4.811 -7.151,4.867 -7.323,4.93 m 0.226,-0.881 c 0.038,-0.016 0.075,-0.031 0.112,-0.047 l 0.008,-0.01 c -0.04,0.019 -0.08,0.039 -0.12,0.057 M -8.054,4.592 C -7.896,4.555 -7.738,4.515 -7.58,4.474 -7.523,4.442 -7.466,4.41 -7.409,4.377 -7.625,4.446 -7.841,4.518 -8.054,4.592 m 0.395,0.787 c -0.129,0.048 -0.26,0.094 -0.39,0.138 -0.044,0.03 -0.086,0.061 -0.128,0.092 0.176,-0.069 0.349,-0.146 0.518,-0.23 m -0.82,0.762 h 0.103 C -8.338,6.114 -8.299,6.088 -8.26,6.062 -8.333,6.089 -8.406,6.116 -8.479,6.141 M -8.885,6.274 C -8.911,6.282 -8.936,6.289 -8.962,6.297 -8.849,6.294 -8.736,6.294 -8.623,6.296 -8.607,6.292 -8.591,6.289 -8.575,6.285 L -8.543,6.262 C -8.657,6.264 -8.771,6.268 -8.885,6.274 M -7.65,5.729 -7.666,5.718 -7.652,5.694 C -7.657,5.695 -7.661,5.697 -7.666,5.698 -7.686,5.719 -7.705,5.741 -7.724,5.762 -7.7,5.75 -7.675,5.74 -7.65,5.729 m 0.553,-0.21 V 5.5 c -0.125,0.051 -0.252,0.096 -0.38,0.138 -0.004,0.007 -0.009,0.013 -0.014,0.021 0.129,-0.053 0.26,-0.1 0.394,-0.14 M -7.216,5.8 C -7.233,5.804 -7.249,5.809 -7.267,5.812 -7.293,5.828 -7.32,5.843 -7.346,5.859 -7.303,5.839 -7.259,5.82 -7.216,5.8 m 0.173,-0.604 c -0.036,0.022 -0.071,0.046 -0.105,0.069 0.031,-0.014 0.064,-0.027 0.095,-0.041 0.003,-0.009 0.007,-0.019 0.01,-0.028 m 0.092,0.242 C -6.959,5.441 -6.966,5.445 -6.974,5.449 L -6.975,5.457 C -6.967,5.45 -6.959,5.444 -6.951,5.438 m 0.077,-0.295 c -0.007,0 -0.014,-10e-4 -0.021,-0.003 -0.002,0.006 -0.005,0.012 -0.008,0.017 0.01,-0.004 0.019,-0.009 0.029,-0.014 m -2.694,1.312 c -0.028,0.006 -0.056,0.013 -0.084,0.019 0.03,-0.004 0.06,-0.008 0.09,-0.012 0.009,-0.004 0.019,-0.007 0.029,-0.01 -0.012,0.001 -0.023,0.002 -0.035,0.003 m -0.572,0.192 0.13,-0.003 C -9.981,6.639 -9.951,6.636 -9.922,6.631 -9.92,6.629 -9.917,6.628 -9.915,6.626 -9.99,6.635 -10.065,6.64 -10.14,6.647 m -0.204,-0.485 c -0.015,0.003 -0.031,0.007 -0.046,0.011 -0.029,0.01 -0.059,0.021 -0.088,0.032 0.049,-0.016 0.099,-0.031 0.148,-0.045 -0.005,0 -0.009,10e-4 -0.014,0.002 m -0.235,0.24 0.007,0.002 c 0.007,-0.002 0.015,-0.004 0.023,-0.006 -0.01,0.002 -0.02,0.003 -0.03,0.004 m -0.142,-0.433 c -0.042,0.016 -0.084,0.03 -0.125,0.047 0.078,-0.02 0.157,-0.043 0.235,-0.064 -0.036,0.006 -0.073,0.011 -0.11,0.017 m -0.151,0.499 h 0.036 c 0.058,-0.016 0.117,-0.028 0.175,-0.042 l -0.084,0.002 c -0.01,0.002 -0.021,0.004 -0.032,0.006 -0.031,0.011 -0.063,0.022 -0.095,0.034 m -0.48,2.273 h -0.01 l -0.008,0.211 c 0.005,0.024 0.01,0.049 0.015,0.073 0.002,-0.082 0.004,-0.163 0.005,-0.245 0,-0.013 -0.001,-0.026 -0.002,-0.039 m -0.035,0.703 -0.05,1.357 c 10e-4,0.007 0.002,0.013 0.002,0.02 0.031,-0.429 0.052,-0.86 0.066,-1.291 -0.006,-0.029 -0.012,-0.057 -0.018,-0.086 m -0.048,-8.29 c 0.013,0.086 0.025,0.173 0.037,0.26 0.005,-0.284 0.005,-0.567 10e-4,-0.851 -0.01,0.198 -0.023,0.394 -0.038,0.591 m -0.1,7.697 c -0.002,-0.025 -0.005,-0.05 -0.008,-0.075 10e-4,0.069 0.002,0.137 0.003,0.205 V 9.11 c 0.002,0.046 0.004,0.091 0.006,0.137 0.001,-0.023 0.003,-0.046 0.004,-0.07 -0.001,-0.108 -0.002,-0.217 -0.005,-0.326 m -0.029,-18.129 c -0.01,-0.017 -0.02,-0.034 -0.028,-0.051 v 0.02 c 0.002,0.013 0.004,0.026 0.006,0.039 0.008,10e-4 0.016,0.002 0.024,0.003 -0.001,-0.004 -0.001,-0.008 -0.002,-0.011 m -0.073,-0.761 c 0,0.004 0.001,0.008 0.001,0.012 0.003,0.002 0.006,0.004 0.009,0.005 h 0.003 c 0.002,-0.004 0.003,-0.007 0.005,-0.01 -0.006,-0.002 -0.012,-0.005 -0.018,-0.007 m 0.298,1.972 -0.02,-0.04 -0.003,0.141 c 0.006,-0.034 0.015,-0.067 0.023,-0.101 m 0.384,-1.281 c 0.014,-0.042 0.019,-0.088 0.016,-0.134 -0.005,0.003 -0.009,0.006 -0.014,0.008 -0.001,0.04 -0.002,0.081 -0.005,0.121 10e-4,0.002 0.002,0.004 0.003,0.005 m 0.075,-0.514 c 0.03,0.04 0.057,0.081 0.084,0.123 0.002,-0.028 0.004,-0.055 0.004,-0.082 -0.002,-10e-4 -0.003,-0.002 -0.004,-0.004 -0.024,-0.019 -0.047,-0.037 -0.072,-0.055 -0.003,0.004 -0.008,0.007 -0.012,0.011 l -10e-4,0.006 c 10e-4,0 10e-4,10e-4 10e-4,10e-4 M -11.653,4.134 C -11.661,4.075 -11.67,4.016 -11.678,3.957 l -0.004,0.059 c 0.01,0.075 0.02,0.151 0.031,0.226 -10e-4,-0.036 -10e-4,-0.072 -0.002,-0.108 m -0.04,1.143 c -0.009,10e-4 -0.017,0.002 -0.025,0.003 v 0.009 c 0.009,-10e-4 0.017,-0.003 0.026,-0.004 -10e-4,-0.003 -10e-4,-0.005 -10e-4,-0.008 m -0.008,-15.342 c 0.002,10e-4 0.004,0.002 0.006,0.003 h 0.002 c -0.002,-0.001 -0.005,-0.002 -0.008,-0.003 m -0.145,3.487 c 10e-4,0.037 0.003,0.074 0.005,0.111 0.004,-0.059 0.01,-0.118 0.015,-0.176 z m -0.063,2.323 0.005,0.094 0.048,0.002 v -0.1 z m 0.032,-2.983 c 0.002,0.055 0.005,0.11 0.007,0.165 0.004,-0.015 0.007,-0.03 0.011,-0.045 -0.007,-0.04 -0.012,-0.08 -0.018,-0.12 m -0.139,14.311 c 0.012,0.066 0.025,0.131 0.035,0.196 l 0.014,-0.059 c 0.004,-0.043 0.01,-0.087 0.014,-0.13 -0.021,-0.002 -0.042,-0.004 -0.063,-0.007 M -12.012,-4.8 c -10e-4,0.057 -0.005,0.114 -0.006,0.171 h 0.028 c -0.007,-0.057 -0.015,-0.114 -0.022,-0.171 m -0.231,10.687 c 0,-0.003 0,-0.007 -10e-4,-0.01 -0.044,0.004 -0.088,0.008 -0.132,0.011 0.028,0.01 0.056,0.019 0.084,0.029 l 0.01,-0.004 c 0.023,-0.009 0.048,-0.018 0.071,-0.027 V 5.885 Z m -0.032,-13.536 c 0.003,0.041 0.005,0.081 0.007,0.122 0.003,-0.037 0.006,-0.074 0.009,-0.111 -0.005,-0.004 -0.011,-0.007 -0.016,-0.011 m -0.017,-0.291 v 0.008 c 0.005,0.008 0.009,0.014 0.014,0.021 z m 0.058,-0.128 c -0.019,-0.034 -0.034,-0.068 -0.049,-0.103 l 0.008,0.265 c 0.011,0.017 0.022,0.034 0.034,0.051 0.003,-0.031 0.004,-0.063 0.007,-0.094 v -0.119 m -0.084,-1.315 10e-4,0.033 c 0.012,0.014 0.025,0.027 0.037,0.042 0.005,-0.014 0.01,-0.028 0.016,-0.041 -0.019,-0.01 -0.036,-0.022 -0.054,-0.034 m 0.026,-0.221 c -0.011,-0.005 -0.022,-0.009 -0.033,-0.014 l 10e-4,0.04 c 0.014,0.01 0.028,0.019 0.043,0.029 -0.004,-0.018 -0.008,-0.037 -0.011,-0.055 m -0.055,5.051 0.027,-0.003 c -0.008,-0.08 -0.015,-0.16 -0.022,-0.241 z m 0.028,0.953 -0.008,-0.003 c 10e-4,0.019 0.003,0.038 0.004,0.057 0.001,-0.018 0.003,-0.036 0.004,-0.054 m -0.053,7.98 0.009,0.808 c 0.017,0.002 0.033,0.004 0.05,0.005 -0.024,-0.27 -0.044,-0.541 -0.059,-0.813 m -0.076,-11.924 c -0.004,0.034 -0.009,0.068 -0.014,0.102 l 0.018,-0.072 v -0.014 z m -0.027,1.108 -0.005,0.596 0.012,-0.582 c -0.002,-0.004 -0.004,-0.009 -0.007,-0.014 m -0.027,-3.778 c -0.002,0.007 -0.004,0.014 -0.005,0.02 0.002,0 0.003,-10e-4 0.005,-0.002 z m -0.157,5.544 c -0.004,-0.062 -0.006,-0.124 -0.01,-0.186 -10e-4,-0.013 -0.002,-0.026 -0.003,-0.039 -0.002,0.165 -0.005,0.33 -0.01,0.495 0.009,0.086 0.018,0.173 0.028,0.259 l 0.002,-0.191 c -0.003,-0.113 -0.004,-0.225 -0.007,-0.338 m -0.046,-4.836 c 0.002,0.034 0.004,0.067 0.006,0.1 l 0.018,-0.003 c -0.007,-0.033 -0.016,-0.064 -0.024,-0.097 m -0.026,7.233 0.051,0.369 c -0.014,-0.166 -0.025,-0.335 -0.037,-0.503 0.001,0.045 0.001,0.089 0.001,0.134 z m -0.219,-5.631 c -0.028,0.476 -0.036,0.954 -0.023,1.43 0.011,-0.331 0.03,-0.661 0.057,-0.991 0,-0.023 0.001,-0.046 0.002,-0.069 -0.013,-0.124 -0.026,-0.247 -0.036,-0.37 m -0.101,-2.39 c 0.005,0.017 0.01,0.033 0.015,0.05 l 0.014,-0.04 c -0.01,-0.004 -0.02,-0.007 -0.029,-0.01 m -0.11,-0.31 0.003,0.009 0.021,-0.003 c 0.005,0.021 0.011,0.042 0.017,0.064 0.012,0.021 0.03,0.039 0.052,0.054 -0.007,-0.029 -0.01,-0.059 -0.004,-0.091 10e-4,-0.005 0.004,-0.008 0.005,-0.012 z m 0.442,16.376 c 0.022,0.007 0.044,0.015 0.067,0.022 0.01,-0.003 0.02,-0.006 0.03,-0.009 -0.033,-0.005 -0.065,-0.009 -0.097,-0.013 m -0.39,0.365 c -0.026,-0.006 -0.053,-0.012 -0.08,-0.017 0.057,0.021 0.114,0.043 0.171,0.066 0.071,0.01 0.142,0.02 0.213,0.028 -0.101,-0.025 -0.203,-0.051 -0.304,-0.077 m -2.273,0.186 c 0.141,0.048 0.283,0.09 0.426,0.128 0.142,0.037 0.285,0.07 0.43,0.098 z m 0.286,-0.736 c -0.012,-0.003 -0.024,-0.007 -0.036,-0.01 0.012,0.003 0.023,0.007 0.035,0.01 0.002,0.001 0.003,0.001 0.005,0.001 -10e-4,0 -0.003,-0.001 -0.004,-0.001 m -0.527,-0.686 -0.292,-0.119 c -0.022,-0.009 -0.044,-0.018 -0.066,-0.028 0.111,0.062 0.223,0.123 0.335,0.184 0.012,0.004 0.023,0.008 0.035,0.012 l 0.012,-0.036 C -15.607,4.91 -15.615,4.905 -15.623,4.901 m -0.68,0.633 c 0.119,0.054 0.238,0.104 0.359,0.151 0.041,0.006 0.081,0.012 0.122,0.019 -0.026,-0.013 -0.051,-0.025 -0.077,-0.038 -0.026,-0.012 -0.051,-0.025 -0.076,-0.037 l -0.032,-0.008 c -0.099,-0.026 -0.197,-0.055 -0.296,-0.087 m -0.33,-0.633 C -16.639,4.899 -16.644,4.897 -16.65,4.895 l 0.031,0.023 0.034,0.008 c -0.016,-0.009 -0.032,-0.017 -0.048,-0.025 m 0.684,1.202 10e-4,-0.003 c -0.007,-0.003 -0.015,-0.005 -0.023,-0.008 0.008,0.003 0.015,0.007 0.022,0.011 m -1.529,-2.278 c 0.016,0.023 0.031,0.047 0.046,0.071 0.059,0.037 0.117,0.073 0.176,0.109 -0.076,-0.058 -0.15,-0.118 -0.222,-0.18 m -0.046,0.258 c -0.016,-0.013 -0.032,-0.026 -0.048,-0.039 0.026,0.027 0.053,0.051 0.08,0.077 -0.011,-0.013 -0.021,-0.025 -0.032,-0.038 m -0.18,0.33 -0.036,-0.022 c -0.015,-0.006 -0.03,-0.012 -0.044,-0.018 0.037,0.026 0.074,0.053 0.112,0.079 l 0.009,0.003 C -17.677,4.441 -17.69,4.427 -17.704,4.413 m -1.358,-0.407 c 0.005,0.006 0.009,0.011 0.013,0.017 0.077,0.071 0.152,0.143 0.227,0.217 0.287,0.263 0.575,0.529 0.862,0.798 l 0.111,0.092 z m 0.671,0.406 c 0.011,0.013 0.021,0.026 0.033,0.038 l 0.023,0.009 c -0.013,-0.014 -0.026,-0.027 -0.038,-0.041 l -0.006,-0.004 c -0.004,0 -0.008,-10e-4 -0.012,-0.002 m 0.153,-0.657 C -18.273,3.7 -18.307,3.644 -18.341,3.587 -18.37,3.551 -18.398,3.514 -18.426,3.478 c 0.058,0.095 0.121,0.188 0.188,0.277 M -18.402,2.83 c -0.042,-0.05 -0.082,-0.102 -0.119,-0.156 0.046,0.114 0.094,0.228 0.143,0.342 0.083,0.135 0.171,0.269 0.266,0.398 0.062,0.041 0.121,0.088 0.181,0.133 -0.166,-0.233 -0.324,-0.472 -0.471,-0.717 m -0.011,-2.434 c 0.075,-0.19 0.172,-0.371 0.284,-0.542 -0.044,0.049 -0.087,0.099 -0.13,0.149 -0.229,0.341 -0.401,0.721 -0.5,1.119 -0.04,0.33 -0.01,0.66 0.085,0.962 0.048,0.096 0.097,0.19 0.148,0.284 -0.169,-0.647 -0.133,-1.352 0.113,-1.972 m 0.656,-1.284 c -0.039,0.027 -0.076,0.054 -0.113,0.083 -0.004,0.01 -0.009,0.02 -0.013,0.03 0.041,-0.038 0.083,-0.076 0.126,-0.113 m 0.227,-0.273 c -0.06,0.021 -0.118,0.047 -0.175,0.076 -0.012,0.015 -0.023,0.03 -0.035,0.046 0.068,-0.043 0.138,-0.086 0.21,-0.122 m 0.276,0.284 c 0.228,-0.078 0.452,-0.168 0.54,-0.32 -0.01,0 -0.019,0.001 -0.029,0 -0.054,0.025 -0.108,0.052 -0.16,0.08 -0.112,0.093 -0.235,0.171 -0.366,0.232 -0.013,0.009 -0.026,0.018 -0.039,0.027 0.018,-0.006 0.036,-0.013 0.054,-0.019 m -1.636,3.694 v 0 m 0.043,-0.534 V 2.28 2.283 m 0.003,1.47 -0.053,0.005 c 0.012,0.019 0.022,0.038 0.035,0.057 0.096,0.147 0.205,0.287 0.319,0.424 0.012,0.007 0.024,0.012 0.036,0.018 -0.078,-0.099 -0.152,-0.2 -0.217,-0.308 z m 0.011,-0.001 0.017,0.011 C -18.82,3.755 -18.824,3.747 -18.828,3.739 l 10e-4,0.013 z m -0.194,-3.255 c 0.06,-0.093 0.125,-0.183 0.195,-0.27 0.018,-0.066 0.037,-0.133 0.053,-0.2 -0.091,0.152 -0.173,0.309 -0.248,0.47 m -0.013,2.456 0.008,0.025 -0.002,-0.012 C -19.036,2.961 -19.038,2.957 -19.04,2.953 m 0.035,0.627 c 0.015,0.026 0.032,0.052 0.047,0.078 l -0.015,-0.133 -0.023,0.008 c -0.009,-0.024 -0.016,-0.048 -0.023,-0.072 l -0.028,0.009 c 0.014,0.037 0.027,0.074 0.042,0.11 m -0.086,-2.24 0.017,0.156 c 0.001,-0.042 0.001,-0.084 0.004,-0.125 0.002,-0.036 0.007,-0.072 0.01,-0.108 -0.01,0.026 -0.02,0.051 -0.031,0.077 m -0.099,-0.264 0.013,-0.001 c 0.031,-0.085 0.066,-0.168 0.101,-0.252 -0.042,0.083 -0.08,0.167 -0.114,0.253 m 0.05,0.915 -0.016,-0.142 v 0.05 c 0.004,0.031 0.01,0.061 0.016,0.092 m -0.029,1.916 -0.003,0.004 c 0.009,0.008 0.018,0.017 0.027,0.025 l 0.004,-0.003 z M -20.22,3.701 c 0.434,0.412 0.878,0.819 1.333,1.222 -0.406,-0.37 -0.807,-0.745 -1.204,-1.124 z m -0.041,-0.567 0.043,0.04 0.04,0.033 c -0.028,-0.024 -0.055,-0.049 -0.083,-0.073 m -0.78,-0.231 c 0.031,0.03 0.061,0.061 0.092,0.091 l 0.053,0.04 z m -1.15,-1.013 -0.001,0.119 c 0.002,0.013 0.003,0.027 0.004,0.04 l 0.543,0.414 C -21.83,2.273 -22.011,2.081 -22.191,1.89 m -0.595,0.926 c -0.133,-0.41 -0.293,-0.813 -0.451,-1.207 -0.107,-0.269 -0.216,-0.542 -0.317,-0.819 0.133,0.482 0.326,0.95 0.515,1.409 0.087,0.21 0.174,0.423 0.257,0.638 -0.001,-0.007 -0.003,-0.014 -0.004,-0.021 m -0.093,-1.791 c -0.004,-0.006 -0.008,-0.011 -0.013,-0.016 0.005,0.02 0.01,0.039 0.015,0.059 z m -0.062,0.921 c -0.078,-0.164 -0.156,-0.329 -0.23,-0.495 0.015,0.038 0.031,0.075 0.045,0.113 0.071,0.176 0.141,0.355 0.21,0.535 -0.009,-0.051 -0.017,-0.102 -0.025,-0.153 m -0.192,-1.208 c -0.004,-0.003 -0.009,-0.007 -0.013,-0.011 0.006,0.015 0.012,0.03 0.017,0.045 C -23.13,0.761 -23.132,0.75 -23.133,0.738 M -23.51,0.26 c -0.006,-0.005 -0.012,-0.01 -0.018,-0.014 0.015,0.024 0.029,0.048 0.044,0.071 -0.009,-0.019 -0.017,-0.038 -0.026,-0.057 m 8.156,8.13 c -0.012,-0.022 -0.028,-0.042 -0.041,-0.064 -0.05,-0.066 -0.102,-0.131 -0.152,-0.197 l 0.016,-0.014 c -0.094,-0.141 -0.194,-0.278 -0.298,-0.411 -0.186,-0.183 -0.372,-0.367 -0.558,-0.549 0.351,0.401 0.7,0.811 1.033,1.235 m 0.165,0.624 0.1,0.07 c -0.163,-0.198 -0.326,-0.397 -0.486,-0.598 0.126,0.179 0.255,0.355 0.386,0.528 m -2.189,0.354 c 0.191,0.033 0.388,0.04 0.577,0.04 0.069,0 0.137,-10e-4 0.204,-0.002 l 1.513,-0.02 c -0.001,-10e-4 -0.001,-10e-4 -0.002,-10e-4 z m 2.458,-0.409 c 0.075,0.103 0.148,0.206 0.219,0.309 h 0.004 c -0.063,-0.106 -0.125,-0.212 -0.192,-0.316 -0.028,-0.031 -0.053,-0.064 -0.08,-0.096 0.016,0.034 0.033,0.068 0.049,0.103 m -0.022,-0.621 c 0.011,0.013 0.022,0.026 0.034,0.04 l 0.005,-0.006 z m -0.106,-0.294 -0.034,-0.032 -0.023,0.023 -1.132,-1.039 -0.014,0.015 c 0.029,0.031 0.059,0.061 0.088,0.091 0.306,0.279 0.617,0.551 0.923,0.818 l 0.639,0.557 c -0.147,-0.146 -0.296,-0.29 -0.447,-0.433 m 0.728,0.504 c 0.002,0.003 0.004,0.005 0.006,0.007 l 0.333,0.307 c -0.259,-0.309 -0.535,-0.602 -0.825,-0.881 0.103,0.112 0.204,0.227 0.302,0.344 0.062,0.073 0.123,0.148 0.184,0.223 m 0.126,0.604 c 0.038,0.04 0.077,0.08 0.115,0.12 l 0.1,10e-4 c -0.089,-0.066 -0.177,-0.135 -0.264,-0.204 0.018,0.026 0.032,0.056 0.049,0.083 m -1.361,-1.757 c 0.042,0.043 0.084,0.086 0.126,0.13 0.056,0.051 0.112,0.103 0.168,0.154 -0.097,-0.096 -0.195,-0.191 -0.294,-0.284 m 1.915,2.119 -0.027,-0.019 -0.207,0.007 -0.004,0.003 z m 0.143,-0.237 c -0.074,-0.107 -0.153,-0.21 -0.24,-0.306 0.079,0.099 0.155,0.202 0.23,0.306 z M -7.199,7.77 c -0.004,0.004 -0.007,0.008 -0.01,0.011 -0.014,0.018 -0.028,0.036 -0.043,0.054 -0.05,0.123 -0.109,0.242 -0.177,0.357 0.141,-0.2 0.277,-0.404 0.408,-0.61 z M -7.288,7.27 -7.364,7.366 C -7.356,7.361 -7.349,7.356 -7.341,7.351 -7.324,7.326 -7.307,7.3 -7.29,7.275 l 0.02,0.011 10e-4,-10e-4 z M -7.486,7.221 C -7.525,7.268 -7.564,7.317 -7.604,7.364 L -7.482,7.261 C -7.421,7.193 -7.358,7.123 -7.296,7.054 Z M -7.729,8.629 C -7.685,8.58 -7.642,8.53 -7.599,8.481 L -7.597,8.442 C -7.625,8.48 -7.657,8.515 -7.687,8.551 -7.7,8.577 -7.715,8.603 -7.729,8.629 M -8.209,8.032 C -8.328,8.155 -8.45,8.275 -8.574,8.393 -8.565,8.388 -8.558,8.382 -8.55,8.376 L -8.282,8.14 C -8.224,8.077 -8.168,8.012 -8.11,7.949 Z m 0.002,0.85 c 0.005,-0.003 0.009,-0.007 0.014,-0.01 0.016,-0.036 0.032,-0.071 0.049,-0.107 -0.047,0.041 -0.092,0.084 -0.139,0.123 l -0.006,0.005 z m -1.05,0.571 -0.009,0.002 C -9.28,9.471 -9.294,9.488 -9.308,9.503 l 0.472,-0.04 C -8.976,9.46 -9.117,9.457 -9.257,9.453 M -9.23,9.135 -9.231,9.136 c 0,-10e-4 10e-4,-10e-4 10e-4,-10e-4 m -0.093,0.012 -0.123,0.016 c -0.057,0.046 -0.113,0.095 -0.171,0.14 l -0.01,0.008 c 0.038,-0.003 0.075,-0.007 0.113,-0.01 0.019,-0.004 0.038,-0.008 0.057,-0.013 0.053,-0.04 0.107,-0.077 0.163,-0.113 z M -9.726,9.39 -9.747,9.406 -9.726,9.399 Z M 0.237,-0.216 0.187,0.029 0.229,-0.003 0.182,0.051 -0.007,0.979 -0.009,1.32 -0.077,1.323 -0.167,1.766 -0.285,3.478 -0.315,3.334 -0.326,3.518 -0.446,3.52 C -0.455,3.433 -0.463,3.345 -0.471,3.258 L -0.712,4.441 -0.726,3.918 C -0.738,3.478 -0.735,3.037 -0.717,2.597 L -0.864,3.035 -0.8,2.47 C -0.786,2.353 -0.768,2.236 -0.75,2.119 L -0.758,2.098 C -0.805,1.979 -0.842,1.856 -0.873,1.732 -1.164,2.029 -1.458,2.326 -1.754,2.621 -1.768,2.636 -1.782,2.652 -1.796,2.667 -2.177,3.143 -2.592,3.591 -3.038,4.011 -3.294,4.419 -3.58,4.806 -3.89,5.171 -3.935,5.228 -3.981,5.283 -4.028,5.338 l -0.274,0.59 0.028,-0.324 C -4.322,5.653 -4.37,5.702 -4.417,5.749 l -0.301,0.306 -0.025,0.034 0.002,-0.011 -0.724,0.735 c -0.019,0.036 -0.039,0.07 -0.059,0.104 1.002,-0.798 2.016,-1.581 3.034,-2.342 l 0.076,0.093 C -4.012,6.064 -5.696,7.41 -7.337,8.713 l -0.187,0.189 c 0.611,-0.07 1.226,-0.111 1.842,-0.089 l 0.581,-0.056 0.018,0.118 -0.039,0.008 -0.002,0.088 C -5.18,8.974 -5.235,8.976 -5.29,8.978 l 0.01,0.061 C -5.354,9.057 -5.427,9.075 -5.501,9.093 -5.35,9.1 -5.199,9.109 -5.048,9.121 L -5.05,9.24 -5.168,9.246 -5.166,9.272 -6.086,9.35 c 0.172,0 0.344,0.004 0.516,0.01 l -0.002,0.114 0.799,0.013 v 0.12 C -4.829,9.608 -4.884,9.609 -4.939,9.61 l 0.887,0.078 h 10e-4 L -4.062,9.807 -6.812,9.574 -8.014,9.555 C -8.02,9.563 -8.026,9.571 -8.032,9.579 L -8.057,9.612 -8.097,9.6 C -8.126,9.592 -8.148,9.574 -8.166,9.552 L -8.239,9.551 C -8.251,9.553 -8.263,9.554 -8.276,9.555 L -9.154,9.711 -9.171,9.623 C -9.275,9.629 -9.378,9.634 -9.482,9.638 L -9.489,9.519 -9.313,9.504 -9.348,9.474 -9.794,9.576 -9.643,9.442 C -9.67,9.441 -9.697,9.441 -9.725,9.44 L -9.726,9.409 H -9.751 L -9.874,9.506 -9.705,9.225 C -9.698,9.214 -9.69,9.204 -9.683,9.194 l -0.43,0.055 -0.025,-0.116 c 0.207,-0.065 0.42,-0.111 0.636,-0.145 0.057,-0.05 0.118,-0.095 0.184,-0.13 L -9.34,8.831 C -8.35,7.974 -7.507,6.945 -6.691,5.949 L -6.595,6.02 C -6.672,6.136 -6.75,6.25 -6.83,6.364 l 0.028,0.028 c -0.06,0.063 -0.112,0.132 -0.156,0.207 l 0.346,-0.304 c 0.252,-0.28 0.507,-0.562 0.76,-0.842 0.066,-0.073 0.132,-0.146 0.197,-0.219 -0.019,0.009 -0.039,0.017 -0.058,0.026 -0.165,0.106 -0.34,0.211 -0.53,0.316 -1.566,0.865 -3.239,1.337 -4.866,1.39 0.002,0.018 0.003,0.037 0.005,0.055 l 0.465,0.1 -0.214,10e-4 0.042,0.012 -0.146,-0.012 h -0.138 c 0.079,0.938 0.062,1.884 -0.055,2.817 0.01,0.292 0.025,0.584 0.043,0.874 l -0.119,0.008 c -0.017,-0.232 -0.032,-0.465 -0.047,-0.698 -0.023,0.466 -0.055,0.932 -0.101,1.395 h -0.089 l -0.019,0.537 -0.12,-0.002 c -0.003,-0.532 0.003,-1.066 0.019,-1.6 -0.018,-0.242 -0.033,-0.483 -0.047,-0.725 -0.006,0.111 -0.012,0.223 -0.018,0.334 l -0.12,-0.004 c 0.001,-0.24 0.001,-0.481 -10e-4,-0.723 l -0.019,-0.002 0.017,-0.181 c -0.002,-0.264 -0.007,-0.527 -0.014,-0.791 -0.042,-0.27 -0.071,-0.541 -0.086,-0.813 -0.013,0.216 -0.021,0.432 -0.025,0.647 0.004,0.13 0.003,0.259 -10e-4,0.389 l -0.119,-0.002 c -0.002,-0.128 -10e-4,-0.257 10e-4,-0.386 -0.005,-0.2 -0.019,-0.4 -0.042,-0.599 C -12.145,7.428 -12.2,7.242 -12.22,7.052 -12.548,7.006 -12.873,6.939 -13.194,6.849 -13.251,6.844 -13.309,6.838 -13.366,6.832 l -0.006,0.022 -0.146,-0.037 c -0.492,-0.053 -0.987,-0.124 -1.469,-0.25 -0.746,-0.197 -1.48,-0.533 -2.196,-1.006 l -0.027,-0.009 0.014,0.001 C -17.222,5.536 -17.248,5.518 -17.274,5.5 l 1.043,0.966 0.277,0.229 -0.013,0.016 1.801,1.669 c 0.282,0.262 0.593,0.551 0.818,0.898 l 0.154,10e-4 0.007,0.119 -0.007,10e-4 0.002,0.081 -0.039,0.002 c 0.008,0.015 0.015,0.032 0.023,0.048 l 0.254,0.009 -0.002,0.12 -0.195,-0.003 10e-4,0.002 c 0.147,0.009 0.294,0.017 0.44,0.026 l -0.004,0.12 C -12.853,9.802 -12.992,9.8 -13.132,9.799 l 0.013,0.017 -0.019,-0.017 c -0.265,-0.003 -0.53,-0.007 -0.796,-0.012 l 0.019,0.031 -0.029,-0.031 c -1.305,-0.023 -2.629,-0.076 -3.931,-0.25 -0.063,-0.003 -0.127,-0.006 -0.191,-0.008 l 0.005,-0.12 c 0.006,0 0.011,10e-4 0.017,10e-4 l 0.001,-0.017 0.327,0.01 C -17.751,9.39 -17.787,9.375 -17.821,9.359 l -0.256,-0.116 2.863,0.021 C -15.429,9.049 -15.61,8.799 -15.788,8.55 -16.322,7.808 -16.869,7.065 -17.423,6.33 -18.697,5.282 -19.903,4.197 -21.028,3.085 l -1.144,-0.873 c 0.019,0.199 0.032,0.398 0.041,0.594 l 0.027,0.584 0.147,1.552 -0.028,0.004 c 0.019,0.078 0.036,0.155 0.059,0.231 l 0.105,0.354 -0.197,-0.282 0.008,0.17 -0.039,-0.152 0.024,0.239 -0.119,0.013 C -22.177,5.26 -22.208,5 -22.237,4.739 c -0.026,-0.108 -0.045,-0.217 -0.064,-0.326 -0.055,-0.315 -0.115,-0.63 -0.176,-0.945 0.004,0.026 0.009,0.052 0.013,0.079 l -0.058,0.01 c 0.012,0.063 0.025,0.126 0.037,0.189 0.027,0.106 0.053,0.212 0.073,0.319 l 0.044,0.229 -0.011,-0.013 c 0.063,0.311 0.126,0.62 0.188,0.928 l -0.117,0.023 C -22.385,4.853 -22.463,4.471 -22.54,4.086 l -0.079,-0.095 0.052,-0.043 C -22.58,3.884 -22.593,3.82 -22.605,3.756 -22.74,3.239 -22.947,2.735 -23.149,2.245 -23.445,1.526 -23.751,0.783 -23.828,-0.001 l -0.139,-0.213 0.143,0.1 0.105,-0.016 c 0.009,0.036 0.019,0.073 0.029,0.11 0.028,0.019 0.055,0.039 0.082,0.058 V 0.037 l 0.051,-0.023 -0.029,-0.068 0.105,-0.056 c 0.05,0.076 0.105,0.149 0.159,0.224 l 0.038,-0.039 c 0.067,0.062 0.134,0.125 0.201,0.187 l 0.003,-0.001 c 0,0.002 10e-4,0.003 10e-4,0.005 0.009,0.008 0.017,0.016 0.026,0.024 l 0.073,-0.078 3.976,3.684 0.009,-0.008 c -0.01,-0.017 -0.02,-0.035 -0.028,-0.053 -0.031,-0.063 -0.058,-0.128 -0.085,-0.193 -0.136,-0.242 -0.239,-0.484 -0.306,-0.721 -0.058,-0.209 -0.09,-0.426 -0.098,-0.646 l -0.121,0.262 0.03,-0.342 c 0.031,-0.351 0.097,-0.696 0.196,-1.032 0.011,-0.098 0.024,-0.196 0.039,-0.294 l 0.08,-0.486 0.028,0.353 c 0.146,-0.371 0.334,-0.726 0.562,-1.057 l 0.164,-0.238 -0.035,0.179 c 0.164,-0.335 0.44,-0.614 0.77,-0.789 0.01,-0.009 0.019,-0.018 0.029,-0.027 l 0.419,-0.352 -0.21,0.275 c 0.089,-0.032 0.18,-0.058 0.273,-0.072 l 0.135,-0.021 -0.04,0.06 c 0.192,-0.122 0.392,-0.229 0.598,-0.32 l 0.043,0.078 0.043,-0.023 c 0.117,-0.082 0.246,-0.149 0.381,-0.198 l 0.048,0.11 c -0.105,0.052 -0.208,0.105 -0.311,0.16 l -0.062,0.13 c -0.025,0.054 -0.067,0.096 -0.117,0.126 -0.069,0.279 -0.411,0.399 -0.645,0.48 -0.133,0.045 -0.262,0.099 -0.387,0.16 -0.302,0.296 -0.545,0.653 -0.7,1.043 -0.282,0.711 -0.277,1.54 0.007,2.251 0.167,0.21 0.329,0.425 0.484,0.644 l 0.024,-0.031 1.608,1.145 0.295,0.106 c 0.311,0.108 0.626,0.207 0.943,0.296 l 0.002,-0.006 c 0.797,0.128 1.606,0.237 2.413,0.326 -0.018,-0.531 -0.025,-1.066 -0.015,-1.595 l -0.03,-2.558 c -0.039,-0.415 -0.068,-0.837 -0.085,-1.254 l 0.034,-0.002 c -0.002,-0.03 -0.004,-0.06 -0.005,-0.091 l -0.017,-0.12 c -0.132,-0.798 -0.242,-1.609 -0.328,-2.413 l 0.086,-0.01 c -0.007,-0.36 -0.016,-0.719 -0.019,-1.08 -0.001,-0.016 -0.003,-0.032 -0.004,-0.048 -0.009,-0.105 -0.016,-0.21 -0.023,-0.315 -0.22,-1.393 -0.265,-2.802 -0.132,-4.204 l -0.028,-0.163 c -0.019,-0.111 -0.037,-0.222 -0.053,-0.334 l -0.129,0.006 c -0.046,-0.508 -0.056,-1.023 -0.03,-1.53 l 0.004,-0.094 -0.79,-0.172 0.696,-0.01 h 0.104 l 0.01,-0.213 0.06,0.214 c 0.087,10e-4 0.174,0.005 0.26,0.011 l -0.002,-0.039 0.011,0.003 0.015,-0.142 0.031,0.155 0.121,0.035 c 0.076,-0.017 0.153,-0.028 0.234,-0.027 0.244,0 0.511,0.079 0.805,0.238 0.136,0.041 0.269,0.088 0.401,0.139 l 0.023,-0.047 0.047,0.075 c 0.046,0.019 0.092,0.039 0.139,0.059 l 0.057,-0.43 0.072,0.482 c 0.018,0.005 0.036,0.01 0.053,0.017 l 0.045,0.009 0.026,-0.201 0.066,0.222 0.107,0.023 0.049,0.001 c 0.034,0 0.066,0.011 0.092,0.03 l 0.488,0.106 -0.251,0.095 c -0.049,0.019 -0.106,0.031 -0.163,0.033 -0.003,0.03 -0.01,0.06 -0.019,0.086 l -0.025,0.078 c 10e-4,0.002 0.003,0.003 0.004,0.004 l 0.512,0.534 -0.568,-0.381 -0.095,0.29 c -0.089,0.603 -0.23,1.198 -0.419,1.778 l -0.27,1.785 c -0.025,0.29 -0.048,0.581 -0.069,0.871 l -0.038,1.453 c -10e-4,0.197 -0.002,0.393 -0.004,0.59 l 0.018,0.192 c 0.03,0.317 0.054,0.637 0.07,0.962 h 0.022 c 0.148,1.405 0.18,2.832 0.093,4.242 0.059,0.789 0.067,1.589 0.024,2.378 l 0.009,0.153 c 0.132,-0.007 0.264,-0.015 0.395,-0.025 0.083,-0.012 0.166,-0.027 0.249,-0.04 0.421,-0.085 0.836,-0.186 1.24,-0.291 0.893,-0.233 1.789,-0.513 2.583,-0.932 0.235,-0.268 0.496,-0.511 0.783,-0.722 0.108,-0.124 0.211,-0.252 0.314,-0.38 0.1,-0.279 0.207,-0.556 0.321,-0.83 0.055,-0.229 0.113,-0.457 0.176,-0.683 h 0.002 C -5.172,1.062 -5.158,0.979 -5.149,0.896 -5.162,0.854 -5.174,0.813 -5.187,0.771 -5.194,0.764 -5.2,0.755 -5.204,0.745 -5.212,0.727 -5.214,0.705 -5.211,0.684 -5.257,0.516 -5.294,0.346 -5.323,0.175 l -0.045,-0.276 c -0.09,-0.166 -0.174,-0.335 -0.252,-0.507 -0.126,-0.153 -0.254,-0.305 -0.382,-0.456 -0.136,-0.124 -0.279,-0.243 -0.429,-0.355 l -0.176,-0.126 0.046,-0.066 c -0.032,-0.031 -0.064,-0.063 -0.095,-0.096 l -0.343,-0.352 0.302,0.188 -0.067,-0.078 0.258,0.197 c 0.514,0.328 0.992,0.715 1.421,1.152 l -0.077,0.09 -0.15,-0.107 c 0.126,0.157 0.246,0.319 0.361,0.485 0.082,0.096 0.165,0.19 0.25,0.284 -0.131,-0.2 -0.267,-0.396 -0.407,-0.589 l 0.094,-0.073 c 0.382,0.475 0.75,0.969 1.095,1.47 L -3.587,1.443 -4.01,1.037 C -4.025,1.023 -4.04,1.009 -4.054,0.994 -3.92,1.238 -3.793,1.485 -3.673,1.735 L -3.775,1.797 -3.868,1.672 c 0.023,0.076 0.043,0.153 0.058,0.231 0.028,0.14 0.038,0.283 0.039,0.427 L -3.595,2.194 -3.773,2.491 C -3.791,2.788 -3.865,3.089 -3.988,3.383 -3.35,2.671 -2.765,2.012 -2.305,1.479 l 0.092,0.076 C -2.428,1.83 -2.678,2.14 -2.953,2.476 -2.745,2.239 -2.532,2.007 -2.312,1.782 -2.059,1.494 -1.802,1.208 -1.544,0.926 -1.415,0.779 -1.285,0.633 -1.156,0.487 -1.02,0.289 -0.884,0.09 -0.75,-0.109 l 0.08,0.052 c 0.101,-0.113 0.203,-0.226 0.304,-0.339 0.008,-0.043 0.017,-0.086 0.025,-0.128 l 0.077,0.014 c 0.049,-0.055 0.097,-0.109 0.146,-0.163 l 0.003,-0.047 0.038,0.002 c 0.014,-0.016 0.028,-0.031 0.042,-0.047 l 0.13,-0.145 -0.015,0.108 0.015,-0.017 -0.017,0.032 -0.009,0.07 c -0.02,0.144 -0.044,0.288 -0.067,0.431 l -0.001,0.15 C 0.047,-0.157 0.093,-0.177 0.143,-0.19"
       style="fill:#231f20;fill-opacity:1;fill-rule:nonzero;stroke:none"
       transform="matrix(0.35277776,0,0,-0.35277776,20.637299,37.074836)"
       clip-path="url(#clipPath1805)" />
    <path
       id="path1806"
       d="m 120.79966,40.329659 c 0.0909,0.06201 0.26459,0.107487 0.42582,0.107487 0.39274,0 0.5829,-0.223242 0.5829,-0.479557 0,-0.243913 -0.14469,-0.380339 -0.42581,-0.487826 -0.23151,-0.09095 -0.33072,-0.165364 -0.33072,-0.322461 0,-0.111621 0.0868,-0.248047 0.31418,-0.248047 0.14883,0 0.26045,0.04961 0.3142,0.07855 l 0.062,-0.173633 c -0.0744,-0.04134 -0.19844,-0.08268 -0.36794,-0.08268 -0.32659,0 -0.54156,0.194304 -0.54156,0.450619 0,0.235644 0.1695,0.376204 0.44235,0.471289 0.22324,0.08682 0.31419,0.177767 0.31419,0.330729 0,0.169499 -0.13229,0.285254 -0.3514,0.285254 -0.14469,0 -0.28939,-0.04961 -0.38447,-0.107487 z m 1.32705,0.08268 h 0.21498 V 39.77982 l 0.16123,-0.186035 0.5457,0.818554 h 0.25631 l -0.64905,-0.959114 0.59944,-0.7028 h -0.26458 l -0.50849,0.624252 c -0.0413,0.05374 -0.0868,0.111621 -0.1323,0.177766 h -0.008 v -0.802018 h -0.21498 z m 1.36529,-1.661914 v 1.661914 h 0.21498 v -1.661914 z m 0.80305,1.661914 v -0.711067 c 0,-0.276986 -0.004,-0.475424 -0.0165,-0.686263 h 0.008 c 0.0827,0.177767 0.1943,0.367936 0.31006,0.553971 l 0.52916,0.843359 h 0.21498 v -1.661914 h -0.19844 v 0.694531 c 0,0.26045 0.004,0.463021 0.0207,0.682129 l -0.004,0.0041 c -0.0786,-0.169498 -0.17364,-0.347265 -0.29766,-0.541569 l -0.5333,-0.839225 h -0.23557 v 1.661914 z m 0,0"
       style="fill:#231f20;fill-opacity:1;fill-rule:nonzero;stroke:none;stroke-width:0.352778"
       aria-label="SKIN" />
    <path
       id="path1807"
       d="m 102.93925,45.503085 6.66433,0.498475 -6.66433,0.498475 -6.663264,-0.498475 z m 39.88928,1.867958 6.66398,0.498475 6.66467,-0.498475 -6.66467,-0.498475 z m 32.75224,-4.868686 6.38634,-0.477661 -7.8747,-0.588786 12.04983,-0.900641 -10.7315,-0.80257 14.86605,-1.11125 -25.31427,-1.893358 6.80191,-0.508353 -12.41884,-0.928864 -11.03418,0.825148 -4.96253,-0.645936 12.17577,-0.909814 -9.75783,-0.729898 -6.79979,0.508353 -7.89481,-0.59055 -7.37906,0.552097 7.49724,0.56127 -8.26065,0.617714 -8.25958,-0.617714 4.78755,-0.35807 -5.71994,-0.427919 -18.287647,1.367014 6.480177,0.484716 -20.54966,1.535995 12.102041,0.904875 -6.386335,0.477308 7.874352,0.589139 -12.049124,0.900289 10.730441,0.802922 -14.866055,1.11125 20.430066,1.52788 -9.354256,0.699911 9.874955,0.738012 2.553755,-0.190853 7.42668,0.555625 11.03418,-0.8255 4.95723,0.645583 -12.85839,0.961672 17.65158,1.319389 3.85975,-0.288572 -6.94831,-0.519642 9.92222,-0.742244 6.95431,0.519994 4.5526,-0.340077 6.48264,0.484363 18.288,-1.367013 -6.47982,-0.484364 20.5493,-1.535995"
       style="fill:#deddde;fill-opacity:1;fill-rule:nonzero;stroke:none;stroke-width:0.352778" />
    <path
       id="path1808"
       d="m 135.67109,24.969971 5.82366,0.435681 -5.82366,0.435327 -5.8226,-0.435327 z m 34.85726,1.632303 5.82295,0.43568 5.82401,-0.43568 -5.82401,-0.435681 z m 28.62051,-4.2545 5.58095,-0.417336 -6.88129,-0.51435 10.52901,-0.7874 -9.37683,-0.701322 12.99033,-0.970845 -22.12093,-1.65488 5.9436,-0.443795 -10.8518,-0.812094 -9.64247,0.721431 -4.33634,-0.564798 10.63942,-0.794808 -8.52629,-0.637822 -5.94218,0.444147 -6.89893,-0.515761 -6.44842,0.482247 6.55143,0.490361 -7.21818,0.540103 -7.21783,-0.540103 4.18359,-0.312914 -4.99816,-0.373591 -15.98083,1.194505 5.66244,0.423334 -17.95709,1.342319 10.57521,0.790575 -5.58059,0.417336 6.88093,0.514703 -10.529,0.786694 9.37683,0.701675 -12.99069,0.970844 17.85302,1.335264 -8.17492,0.611717 8.6293,0.644878 2.23203,-0.166864 6.4897,0.485775 9.64247,-0.721431 4.33176,0.564092 -11.23633,0.840317 15.42451,1.152877 3.37326,-0.251883 -6.07201,-0.454378 8.67057,-0.648758 6.07695,0.45473 3.97863,-0.297391 5.6649,0.423333 15.98048,-1.194505 -5.66208,-0.423334 17.95709,-1.341966"
       style="fill:#deddde;fill-opacity:1;fill-rule:nonzero;stroke:none;stroke-width:0.352778" />
    <path
       id="path1809"
       d="m 0,0 c 3.139,-4.567 11.173,-17.443 12.826,-31.604 h -147.551 c 0,0 -10.06,0.692 -13.187,-3.217 0,0 -1.761,12.502 -7.134,19.019 5.373,6.518 7.134,19.02 7.134,19.02 C -144.785,-0.691 -134.725,0 -134.725,0 Z m 398.916,2.626 c -7.211,10.743 -10.555,26.373 -11.658,32.595 l -0.303,1.713 -0.453,-1.68 c -2.643,-9.821 2.324,-20.171 3.909,-23.108 l 0.381,-0.709 0.1,0.229 V 5.727 l 0.05,-0.09 c 1.204,-2.104 2.489,-3.991 3.819,-5.612 l 0.138,-0.168 -0.139,-0.166 c -1.327,-1.618 -2.612,-3.506 -3.818,-5.612 l -0.05,-0.09 v -5.925 l -0.098,0.229 -0.383,-0.713 c -1.585,-2.937 -6.554,-13.29 -3.909,-23.108 l 0.453,-1.679 0.303,1.712 c 0.486,2.744 1.586,8.271 3.501,14.471 2.273,7.353 5.018,13.451 8.163,18.137 0.038,0.05 0.075,0.1 0.103,0.142 0.351,0.56 1.385,2.599 -0.109,5.371 M 14.333,19.674 c -1.368,-4.506 -3.205,-7.752 -3.56,-8.358 L 10.72,11.226 V 6.143 l 0.732,1.41 c 4.666,8.997 7.276,19.851 8.416,25.519 l 0.062,0.313 -0.293,0.123 c -0.881,0.365 -1.696,0.767 -2.423,1.194 l -0.582,0.343 -0.001,-0.676 C 16.62,30.146 15.995,26.379 15.472,23.962 14.906,21.344 14.343,19.705 14.333,19.674 m 375.568,-12.121 0.731,-1.41 v 5.083 l -0.053,0.09 c -0.353,0.607 -2.194,3.861 -3.559,8.321 l -0.029,0.096 c -0.376,1.153 -2.251,7.271 -2.279,14.636 l -0.002,0.68 -0.583,-0.348 c -0.71,-0.423 -1.521,-0.824 -2.411,-1.193 l -0.294,-0.123 0.064,-0.313 c 1.139,-5.668 3.748,-16.522 8.415,-25.519 m 4.321,-7.696 -0.192,0.243 c -7.561,9.473 -11.405,24.522 -13.024,32.65 l -0.088,0.438 -0.421,-0.149 c -5.208,-1.826 -11.486,-2.21 -15.836,-2.21 -1.755,0 -3.003,0.066 -3.5,0.093 -1.074,-0.055 -2.218,-0.082 -3.401,-0.082 -2.038,0 -2.972,0.012 -3.534,0.093 L 47.058,30.929 C 46.524,30.846 45.34,30.84 43.594,30.84 c -1.201,0 -2.313,0.027 -3.444,0.082 -0.455,-0.027 -1.703,-0.093 -3.458,-0.093 -4.35,0 -10.628,0.383 -15.837,2.21 l -0.42,0.149 -0.087,-0.438 C 18.729,24.622 14.882,9.571 7.313,0.1 L 7.12,-0.143 7.313,-0.385 c 7.569,-9.47 11.416,-24.52 13.035,-32.649 l 0.087,-0.438 0.42,0.149 c 5.216,1.829 11.526,2.214 15.9,2.214 1.512,0 2.682,-0.048 3.434,-0.087 1.326,0.055 2.439,0.083 3.405,0.083 2.07,0 3.367,-0.088 3.523,-0.105 l 307.162,0.004 c 0.101,0.012 1.414,0.101 3.481,0.101 0.951,0 2.097,-0.028 3.441,-0.082 0.586,0.031 1.805,0.086 3.396,0.086 4.375,0 10.685,-0.385 15.9,-2.214 l 0.421,-0.149 0.088,0.438 c 1.619,8.128 5.463,23.177 13.024,32.649 z m -3.642,-11.445 0.052,0.09 v 5.07 l -0.731,-1.41 c -4.666,-8.996 -7.276,-19.849 -8.415,-25.518 l -0.064,-0.313 0.294,-0.123 c 0.885,-0.367 1.696,-0.769 2.411,-1.193 l 0.583,-0.346 0.002,0.678 c 0.028,7.472 1.909,13.519 2.297,14.694 1.305,4.276 3.064,7.489 3.571,8.371 m -379.128,3.75 -0.732,1.41 v -5.07 l 0.052,-0.09 c 0.507,-0.88 2.263,-4.085 3.566,-8.375 0.022,-0.065 2.272,-6.614 2.293,-14.69 l 0.001,-0.674 0.582,0.341 c 0.732,0.428 1.548,0.831 2.423,1.194 l 0.293,0.123 -0.062,0.313 c -1.14,5.669 -3.75,16.522 -8.416,25.518 m -0.908,-3.866 -0.082,-0.196 v 5.889 l -0.051,0.09 c -1.205,2.106 -2.49,3.993 -3.819,5.613 l -0.137,0.165 0.138,0.168 c 1.33,1.621 2.615,3.509 3.818,5.612 l 0.051,0.09 v 5.905 l 0.083,-0.2 0.387,0.713 c 1.59,2.926 6.573,13.246 3.919,23.109 l -0.452,1.68 -0.304,-1.713 C 12.991,28.999 9.646,13.367 2.419,2.595 0.937,-0.137 1.975,-2.183 2.353,-2.782 L 2.428,-2.9 c 7.218,-10.746 10.564,-26.374 11.667,-32.595 l 0.303,-1.711 0.453,1.678 c 2.656,9.859 -2.329,20.181 -3.919,23.11"
       style="fill:#ffffff;fill-opacity:1;fill-rule:nonzero;stroke:none"
       transform="matrix(0.35277776,0,0,-0.35277776,68.119001,32.402612)"
       clip-path="url(#clipPath1810)" />
    <path
       id="path1811"
       d="m 0,0 c 0.527,2.977 1.633,8.432 3.514,14.518 1.881,6.085 4.547,12.781 8.203,18.225 0,0 0.012,0.011 0.02,0.031 0.033,0.042 0.063,0.083 0.083,0.115 0.331,0.527 1.272,2.396 -0.103,4.949 C 4.401,48.738 1.055,64.64 0,70.581 -2.613,60.869 2.325,50.63 3.875,47.757 l 0.526,1.24 v -7.739 c 1.148,-2.005 2.41,-3.885 3.784,-5.559 l 0.34,-0.414 -0.34,-0.412 C 6.811,33.198 5.549,31.317 4.401,29.313 v -7.739 l -0.526,1.25 C 2.325,19.952 -2.613,9.702 0,0 m -6.509,69.394 c -0.155,0.868 -0.29,1.611 -0.383,2.179 -1.912,-1.829 -4.608,-3.079 -7.552,-3.936 2.675,0.33 5.456,0.868 7.935,1.757 m 3.957,0.402 c -0.763,-0.455 -1.59,-0.858 -2.46,-1.219 1.189,-5.911 3.783,-16.553 8.38,-25.419 v 3.39 c -0.391,0.671 -2.231,3.947 -3.606,8.441 -0.01,0.052 -2.283,6.614 -2.314,14.807 M -5.012,1.994 c 0.87,-0.361 1.697,-0.765 2.46,-1.219 0.031,8.204 2.304,14.766 2.314,14.807 1.375,4.504 3.215,7.77 3.606,8.451 v 3.379 C -1.229,18.547 -3.823,7.904 -5.012,1.994 M -6.509,1.178 c -2.479,0.888 -5.26,1.426 -7.935,1.757 2.944,-0.858 5.64,-2.108 7.552,-3.938 0.093,0.569 0.228,1.314 0.383,2.181 m -359.392,0 c 0.165,-0.867 0.3,-1.612 0.393,-2.181 1.911,1.83 4.608,3.08 7.553,3.938 -2.676,-0.331 -5.466,-0.869 -7.946,-1.757 m 7.935,66.459 c -2.944,0.857 -5.631,2.107 -7.542,3.936 -0.093,-0.568 -0.228,-1.311 -0.393,-2.179 2.48,-0.889 5.27,-1.427 7.935,-1.757 M -387.31,35.699 c 10.416,12.626 13.97,37.134 14.011,37.383 l 0.207,1.488 0.929,-1.168 c 1.209,-1.508 2.977,-2.655 5.033,-3.523 0.361,1.963 0.537,3.151 0.547,3.203 l 0.207,1.488 0.94,-1.168 c 3.689,-4.619 12.771,-5.858 18.764,-6.148 0.051,0 0.103,0.011 0.103,0.011 l 0.011,-0.021 c 1.25,-0.053 2.376,-0.072 3.275,-0.072 2.077,0 3.431,0.093 3.44,0.093 h 307.286 c 0.01,0 1.364,-0.093 3.441,-0.093 0.888,0 2.014,0.019 3.275,0.072 v 0.021 c 0.01,0 0.052,-0.011 0.113,-0.011 5.994,0.29 15.065,1.529 18.764,6.148 l 0.942,1.168 0.207,-1.488 c 0,-0.052 0.173,-1.24 0.546,-3.203 2.055,0.868 3.824,2.015 5.021,3.523 L 0.693,74.57 0.9,73.082 C 0.941,72.833 4.494,48.325 14.9,35.699 L 15.24,35.285 14.9,34.873 C 4.494,22.245 0.941,-2.263 0.9,-2.511 l -0.207,-1.487 -0.941,1.167 c -1.197,1.509 -2.966,2.656 -5.021,3.523 -0.373,-1.963 -0.546,-3.151 -0.546,-3.203 l -0.207,-1.487 -0.942,1.167 c -3.699,4.618 -12.77,5.858 -18.764,6.148 h -0.113 v 0.01 c -1.261,0.052 -2.387,0.083 -3.275,0.083 -2.077,0 -3.431,-0.093 -3.492,-0.104 h -307.193 c -0.051,0.011 -1.405,0.104 -3.482,0.104 -0.899,0 -2.025,-0.031 -3.275,-0.083 l -0.011,-0.01 h -0.103 c -5.993,-0.29 -15.075,-1.53 -18.764,-6.148 l -0.94,-1.167 -0.207,1.487 c -0.01,0.052 -0.186,1.24 -0.547,3.203 -2.056,-0.867 -3.824,-2.014 -5.033,-3.523 l -0.929,-1.167 -0.207,1.487 c -0.041,0.248 -3.595,24.756 -14.011,37.384 l -0.341,0.412 z m 8.049,-0.414 c 7.687,-9.619 11.562,-25.035 13.112,-32.815 7.687,2.697 17.752,2.242 19.446,2.149 1.229,0.051 2.387,0.082 3.42,0.082 2.118,0 3.472,-0.093 3.523,-0.103 h 307.11 c 0.061,0.01 1.405,0.103 3.534,0.103 1.022,0 2.189,-0.031 3.421,-0.082 1.692,0.093 11.757,0.548 19.444,-2.149 1.55,7.78 5.425,23.196 13.103,32.815 -7.678,9.62 -11.553,25.036 -13.103,32.817 -7.687,-2.698 -17.752,-2.243 -19.444,-2.139 -1.232,-0.063 -2.399,-0.083 -3.421,-0.083 -1.964,0 -2.987,0.011 -3.534,0.093 h -307.11 c -0.537,-0.082 -1.57,-0.093 -3.523,-0.093 -1.033,0 -2.191,0.02 -3.42,0.083 -1.694,-0.104 -11.759,-0.559 -19.446,2.139 -1.55,-7.781 -5.425,-23.197 -13.112,-32.817 m 2.976,12.472 c 1.56,2.873 6.499,13.112 3.885,22.824 -1.054,-5.941 -4.402,-21.843 -11.717,-32.743 -1.385,-2.553 -0.434,-4.422 -0.103,-4.949 0.02,-0.032 0.051,-0.073 0.072,-0.115 0.01,-0.009 0.01,-0.009 0.021,-0.031 7.315,-10.889 10.673,-26.802 11.727,-32.743 2.614,9.702 -2.325,19.952 -3.885,22.824 l -0.517,-1.25 v 7.739 c -1.147,2.004 -2.407,3.885 -3.781,5.56 l -0.341,0.412 0.341,0.414 c 1.374,1.674 2.634,3.554 3.781,5.559 v 7.739 z m 0.517,-23.724 c 0.393,-0.681 2.231,-3.947 3.595,-8.441 0,0 2.294,-6.582 2.315,-14.817 0.775,0.454 1.601,0.858 2.469,1.219 -1.188,5.91 -3.781,16.553 -8.379,25.418 z m 0,19.125 c 4.598,8.866 7.191,19.508 8.379,25.419 -0.868,0.361 -1.694,0.764 -2.469,1.219 -0.011,-4.112 -0.589,-7.812 -1.168,-10.487 -0.578,-2.676 -1.147,-4.32 -1.147,-4.32 -1.364,-4.494 -3.202,-7.77 -3.595,-8.441"
       style="fill:#231f20;fill-opacity:1;fill-rule:nonzero;stroke:none"
       transform="matrix(0.35277776,0,0,-0.35277776,204.60023,44.900893)"
       clip-path="url(#clipPath1812)" />
    <path
       id="path1813"
       d="m 0,0 -147.434,-0.001 c 0,0 -0.704,0.049 -1.801,0.049 -1.326,0 -3.058,-0.08 -4.821,-0.344 -2.118,0.344 -4.326,1.26 -5.519,3.424 l 3.709,-1.334 -1.868,1.473 c -0.06,0.048 -6.026,4.838 -5.862,11.813 h 0.002 c -0.001,0.008 -0.001,0.015 -0.001,0.023 0,0.014 0.001,0.028 0.001,0.043 h -0.002 v 0.007 l 0.002,10e-4 h -0.002 c -0.159,6.959 5.802,11.755 5.862,11.804 l 1.86,1.47 -3.702,-1.33 c 1.255,2.27 3.632,3.16 5.847,3.463 1.649,-0.226 3.251,-0.296 4.494,-0.296 1.063,0 1.757,0.047 1.757,0.047 h 135.163 c -0.34,0.505 -0.638,0.938 -0.887,1.292 l -134.32,-10e-4 c -0.011,-0.001 -0.679,-0.047 -1.713,-0.047 -2.558,0 -8.743,0.295 -10.925,3.023 l -0.935,1.169 -0.209,-1.482 c -0.018,-0.123 -1.8,-12.4 -6.994,-18.699 l -0.338,-0.411 0.338,-0.41 c 5.194,-6.3 6.976,-18.575 6.994,-18.698 l 0.209,-1.483 0.935,1.168 c 2.182,2.729 8.367,3.024 10.925,3.024 1.035,0 1.701,-0.046 1.757,-0.048 H 0.146 C 0.102,-0.86 0.056,-0.429 0,0 m -160.228,-2.534 c -0.582,3.275 -2.491,12.205 -6.745,17.69 4.254,5.486 6.163,14.415 6.745,17.691 1.198,-0.944 2.817,-1.537 4.512,-1.924 -2.067,-0.623 -4.018,-1.892 -4.961,-4.364 l -0.3,-0.788 1.363,0.49 c -1.861,-1.943 -4.891,-5.925 -4.756,-11.159 -0.126,-5.224 2.897,-9.198 4.756,-11.137 l -1.363,0.489 0.301,-0.787 c 0.917,-2.409 2.792,-3.672 4.798,-4.313 -1.636,-0.387 -3.19,-0.975 -4.35,-1.888"
       style="fill:#231f20;fill-opacity:1;fill-rule:nonzero;stroke:none"
       transform="matrix(0.35277776,0,0,-0.35277776,72.618108,43.323905)"
       clip-path="url(#clipPath1814)" />
    <path
       id="path1816"
       d="m 0,0 c 0,0 -6.42,5.81 -19.091,1.64 0,0 2.981,-0.08 2.471,-1.35 -0.5,-1.26 -13.03,-1.13 -17.191,-13.04 0.121,0.15 1.281,1.53 2.191,0.91 0.96,-0.65 -8.601,-10.59 -3.13,-23.22 0.041,-0.092 0.087,-0.177 0.128,-0.268 0.094,-0.014 0.187,-0.023 0.281,-0.044 0.207,-0.009 0.409,-0.041 0.608,-0.083 0.082,-0.015 0.158,-0.038 0.235,-0.058 0.053,-0.015 0.107,-0.028 0.159,-0.045 0.032,-0.011 0.068,-0.016 0.1,-0.028 0.279,-0.107 0.56,-0.21 0.839,-0.321 0.173,0.022 0.346,0.054 0.519,0.062 0.376,0.016 0.767,-0.037 1.155,-0.136 0.743,0.196 1.573,0.223 2.487,0.001 0.932,-0.228 1.914,-0.378 2.909,-0.505 0.309,-0.015 0.604,-0.05 0.881,-0.11 0.082,-0.009 0.16,-0.023 0.242,-0.031 0.296,0.057 0.594,0.093 0.889,0.093 h 0.062 c 0.207,0 0.402,-0.037 0.601,-0.062 h 0.024 c 0.287,0 0.564,-0.038 0.837,-0.087 0.062,0.003 0.115,0.017 0.178,0.019 0.324,0.057 0.653,0.1 0.985,0.13 0.43,0.039 0.858,-0.021 1.275,-0.14 0.078,-0.01 0.157,-0.018 0.236,-0.025 0.285,0.045 0.574,0.076 0.864,0.103 0.069,0.006 0.137,10e-4 0.205,0.002 0.03,0.006 0.058,0.016 0.087,0.021 0.747,0.219 1.541,0.255 2.314,0.137 0.235,0.04 0.47,0.079 0.707,0.09 0.216,0.01 0.439,-0.009 0.663,-0.04 0.56,0.029 1.126,-0.016 1.666,-0.139 0.022,-0.005 0.044,-0.015 0.067,-0.02 0.136,-0.004 0.273,-0.004 0.412,-0.022 0.316,0.059 0.648,0.096 1.004,0.096 0.308,0 0.596,-0.03 0.874,-0.073 0.667,0.306 1.404,0.465 2.132,0.503 -2.998,1.568 -5.537,3.681 -7.045,6.57 0,0 -3.04,5.09 0.369,8.35 0,0 -2.519,2.66 -8.849,0.58 0,0 0.389,3.12 5.679,5.63 5.301,2.51 10.181,3 1,9.01 0,0 3.031,1.25 7.88,0.19 0,0 -2.01,3.93 1.101,7.27 0,0 0.28,-0.63 0.759,-1.48 0.701,-1.23 1.831,-2.9 3.161,-3.65 2.24,-1.27 4.29,-2.77 4.29,-2.77 0,0 -0.651,3.54 -0.22,6.34"
       style="fill:#231f20;fill-opacity:1;fill-rule:nonzero;stroke:none"
       transform="matrix(0.35277776,0,0,-0.35277776,28.981675,19.574447)"
       clip-path="url(#clipPath1817)" />
    <path
       id="path1818"
       d="m 0,0 c -1.468,3.207 -5.223,8.093 -10.547,9.827 -4.399,1.427 -7.588,0.076 -7.902,1.256 -0.407,1.5 3.968,2.107 3.968,2.107 -5.254,1.473 -11.03,-3.405 -12.351,-2.136 -0.783,0.762 2.519,2.942 2.519,2.942 -5.653,-1.205 -11.535,-5.757 -13.526,-9.044 6.116,3.926 15.85,5.006 21.102,2.403 -2.089,0.567 -4.246,0.753 -6.385,0.648 -7.966,-0.386 -15.837,-4.769 -20.386,-8.163 -5.245,-3.387 -8.897,-7.358 -8.897,-7.358 -3.232,-3.154 -9.706,-6.966 -14.953,-6.154 l 0.002,-0.011 c 0,0 10.537,-10.492 18.573,-3.894 0.576,0.541 1.12,1.087 1.628,1.615 4.298,3.955 8.176,9.723 8.176,9.723 1.437,1.658 5.924,6.507 11.895,10.088 1.332,0.792 2.771,1.25 4.209,1.4 3.729,0.418 7.452,-1.101 9.179,-3.604 C -11.035,2.831 -3.393,2.277 0,0"
       style="fill:#231f20;fill-opacity:1;fill-rule:nonzero;stroke:none"
       transform="matrix(0.35277776,0,0,-0.35277776,81.465272,38.913124)"
       clip-path="url(#clipPath1819)" />
    <path
       id="path1820"
       d="M 0,0 C 0,0 -0.899,3.29 -4.29,4.66 -3.689,2.28 -2.85,0.08 0,0 m -10.92,-8.8 c -0.79,4.26 -6.67,4.99 -9.699,3.03 1.05,2.82 4,5.38 6.279,6.19 -1.3,0.5 -2.83,0.93 -4.479,1.29 1.939,1.48 6.71,2.6 9.13,2.39 -0.441,0.13 -0.92,0.23 -1.441,0.3 l 0.46,2.77 c -0.269,2.32 -2.37,4.98 -4.87,6.58 -1.239,3.55 -0.029,10.01 1.681,11.73 C -14.72,16.19 -1.6,10.45 0.95,3.6 -0.489,9.45 -6.56,13.31 -9.399,16.87 -10.3,19.21 -9.43,23.08 -8.34,24.39 -8.84,18.16 -2.26,13.08 1.23,9.48 5.351,5.25 6.44,1.58 5.771,-1.37 6.69,-1.65 7.94,-2.59 7.681,-4.11 c 1.359,0.27 2.79,1.78 3.149,2.73 0.53,-4.66 -2.35,-9.47 -5.439,-10.84 0,0 0.889,2.18 -0.46,3.92 -1.321,1.71 -5.21,1.85 -6.531,1.8 0,0 1.691,2.34 1.08,3.57 -0.74,1.53 -8.379,1.1 -11.83,-0.03 1.17,0.09 3.911,-0.3 4.85,-0.73 -0.56,-0.78 -2.06,-4.09 -1.079,-5.13 0.829,-0.89 2,0.43 2.149,0.6 -0.11,-0.32 -1.259,-3.66 -0.469,-4.5 0.82,-0.88 2.67,-0.33 2.67,-0.33 -1.231,-2.84 -5.72,-4.69 -8.821,-4.59 1.12,0.31 3.01,2.22 3.321,3.4 -0.831,-0.38 -2.951,-0.55 -3.76,-0.37 1.01,0.38 3.099,2.89 2.569,5.81"
       style="fill:#231f20;fill-opacity:1;fill-rule:nonzero;stroke:none"
       transform="matrix(0.35277776,0,0,-0.35277776,34.83283,26.771607)"
       clip-path="url(#clipPath1821)" />
    <path
       id="path1822"
       d="M 0,0 C 0.51,1.8 -2.99,5.01 -4.311,5.63 0.63,5.68 3.06,4.68 3.06,4.68 1.83,6.61 1.5,9.53 2.31,11.81 4.8,5.28 14.39,3.94 16.609,-1.49 l -0.46,-2.77 C 12.359,-3.77 6.77,-4.9 3.95,-8.03 4.93,-8.06 7.46,-8.61 8.439,-8.96 4.17,-9.6 -1.71,-13.36 -3.471,-15.17 c 0.521,2.44 1.271,4.49 0.741,5.98 -0.75,2.1 -3.25,3.06 -8.3,2.17 C -7.54,-3.73 -0.53,-1.84 0,0"
       style="fill:#231f20;fill-opacity:1;fill-rule:nonzero;stroke:none"
       transform="matrix(0.35277776,0,0,-0.35277776,25.220332,23.716658)"
       clip-path="url(#clipPath1823)" />
    <path
       id="path1824"
       d="M 0,0 2.323,-0.757 C 1.563,-1.919 4.495,-6.72 4.495,-6.72 0.643,-7.915 -2.11,-1.373 -2.11,-1.373 Z"
       style="fill:#231f20;fill-opacity:1;fill-rule:nonzero;stroke:none"
       transform="matrix(0.35277776,0,0,-0.35277776,14.537066,32.406914)"
       clip-path="url(#clipPath1825)" />
    <path
       id="path1826"
       d="M 0,0 C 0,0 0.271,2.226 0.746,3.094 L 2.86,3.306 2.488,2.534 c 0,0 2.638,-4.514 4.579,-5.463 l 2.809,-1.232 c 0,0 -2.689,-1.955 -3.946,-1.475 0,0 -4.849,3.047 -5.93,5.636"
       style="fill:#231f20;fill-opacity:1;fill-rule:nonzero;stroke:none"
       transform="matrix(0.35277776,0,0,-0.35277776,12.475539,34.162337)"
       clip-path="url(#clipPath1827)" />
    <path
       id="path1828"
       d="m 0,0 c 0,0 4.861,-4.2 5.727,-4.102 l 2.398,1.081 1.657,-1.434 c 0,0 -3.936,-2.246 -5.393,-1.391 -1.457,0.854 -4.66,3.429 -4.66,3.429 0,0 -0.298,1.254 0.271,2.417"
       style="fill:#231f20;fill-opacity:1;fill-rule:nonzero;stroke:none"
       transform="matrix(0.35277776,0,0,-0.35277776,12.584759,35.146447)"
       clip-path="url(#clipPath1829)" />
    <path
       id="path1830"
       d="m 0,0 c -6.208,2.821 -6.919,-1.079 -10.536,-1.501 -0.022,-0.282 -0.043,-0.563 -0.043,-0.85 0,-3.408 1.575,-6.445 4.033,-8.434 h 13.63 c 2.458,1.989 4.033,5.026 4.033,8.434 0,1.043 -0.156,2.048 -0.43,3.002 C 6.46,2.037 3.589,-1.362 0,0"
       style="fill:#231f20;fill-opacity:1;fill-rule:nonzero;stroke:none"
       transform="matrix(0.35277776,0,0,-0.35277776,65.130717,27.984422)"
       clip-path="url(#clipPath1831)" />
    <path
       id="path1832"
       d="M 0,0 -0.116,7.104 -8.578,7.127 V 0 c -3.857,-1.663 -6.559,-5.496 -6.559,-9.963 0,-3.409 1.575,-6.446 4.033,-8.434 h 13.63 c 2.458,1.988 4.033,5.025 4.033,8.434 0,4.467 -2.702,8.3 -6.559,9.963 z"
       style="fill:none;stroke:#231f20;stroke-width:1;stroke-linecap:butt;stroke-linejoin:miter;stroke-miterlimit:10;stroke-dasharray:none;stroke-opacity:1"
       transform="matrix(0.35277776,0,0,-0.35277776,66.738722,25.298972)"
       clip-path="url(#clipPath1833)" />
    <path
       id="path1834"
       d="m 0,0 h -8.567 c -0.808,0 -1.469,0.661 -1.469,1.469 v 0.275 c 0,0.807 0.661,1.468 1.469,1.468 H 0 c 0.808,0 1.469,-0.661 1.469,-1.468 V 1.469 C 1.469,0.661 0.808,0 0,0 Z"
       style="fill:none;stroke:#231f20;stroke-width:1;stroke-linecap:butt;stroke-linejoin:miter;stroke-miterlimit:10;stroke-dasharray:none;stroke-opacity:1"
       transform="matrix(0.35277776,0,0,-0.35277776,66.686017,22.78476)"
       clip-path="url(#clipPath1835)" />
    <path
       id="path1836"
       d="m 0,0 c -0.457,0 -0.828,0.371 -0.828,0.828 0,0.457 0.371,0.827 0.828,0.827 0.457,0 0.828,-0.37 0.828,-0.827 C 0.828,0.371 0.457,0 0,0 m -0.001,1.912 c -0.603,0 -1.091,-0.488 -1.091,-1.091 0,-0.603 0.488,-1.092 1.091,-1.092 0.603,0 1.091,0.489 1.091,1.092 0,0.603 -0.488,1.091 -1.091,1.091"
       style="fill:#231f20;fill-opacity:1;fill-rule:nonzero;stroke:none"
       transform="matrix(0.35277776,0,0,-0.35277776,64.332496,20.814143)"
       clip-path="url(#clipPath1837)" />
    <path
       id="path1838"
       d="m 0,0 c -0.303,0 -0.548,0.245 -0.548,0.548 0,0.303 0.245,0.549 0.548,0.549 0.303,0 0.548,-0.246 0.548,-0.549 C 0.548,0.245 0.303,0 0,0 m 0,1.267 c -0.4,0 -0.724,-0.324 -0.724,-0.724 0,-0.398 0.324,-0.723 0.724,-0.723 0.398,0 0.722,0.325 0.722,0.723 0,0.4 -0.324,0.724 -0.722,0.724"
       style="fill:#231f20;fill-opacity:1;fill-rule:nonzero;stroke:none"
       transform="matrix(0.35277776,0,0,-0.35277776,65.397867,18.988589)"
       clip-path="url(#clipPath1839)" />
    <path
       id="path1840"
       d="m 0,0 c -0.457,0 -0.828,0.37 -0.828,0.827 0,0.458 0.371,0.828 0.828,0.828 0.457,0 0.828,-0.37 0.828,-0.828 C 0.828,0.37 0.457,0 0,0 m -0.001,1.912 c -0.603,0 -1.091,-0.489 -1.091,-1.091 0,-0.603 0.488,-1.092 1.091,-1.092 0.603,0 1.091,0.489 1.091,1.092 0,0.602 -0.488,1.091 -1.091,1.091"
       style="fill:#231f20;fill-opacity:1;fill-rule:nonzero;stroke:none"
       transform="matrix(0.35277776,0,0,-0.35277776,65.527936,21.875934)"
       clip-path="url(#clipPath1841)" />
    <path
       id="path1842"
       d="m 0,0 c -0.457,0 -0.828,0.371 -0.828,0.828 0,0.457 0.371,0.827 0.828,0.827 0.457,0 0.827,-0.37 0.827,-0.827 C 0.827,0.371 0.457,0 0,0 m -0.001,1.912 c -0.603,0 -1.091,-0.488 -1.091,-1.091 0,-0.603 0.488,-1.092 1.091,-1.092 0.603,0 1.091,0.489 1.091,1.092 0,0.603 -0.488,1.091 -1.091,1.091"
       style="fill:#231f20;fill-opacity:1;fill-rule:nonzero;stroke:none"
       transform="matrix(0.35277776,0,0,-0.35277776,64.624808,24.358995)"
       clip-path="url(#clipPath1843)" />
    <path
       id="path1844"
       d="m 0,0 c -0.457,0 -0.827,0.371 -0.827,0.828 0,0.457 0.37,0.827 0.827,0.827 0.457,0 0.828,-0.37 0.828,-0.827 C 0.828,0.371 0.457,0 0,0 m -0.001,1.912 c -0.603,0 -1.091,-0.488 -1.091,-1.091 0,-0.603 0.488,-1.092 1.091,-1.092 0.603,0 1.091,0.489 1.091,1.092 0,0.603 -0.488,1.091 -1.091,1.091"
       style="fill:#231f20;fill-opacity:1;fill-rule:nonzero;stroke:none"
       transform="matrix(0.35277776,0,0,-0.35277776,66.239665,26.306329)"
       clip-path="url(#clipPath1845)" />
    <path
       id="path1846"
       d="m 0,0 c -0.634,0 -1.148,0.514 -1.148,1.148 0,0.634 0.514,1.148 1.148,1.148 0.634,0 1.148,-0.514 1.148,-1.148 C 1.148,0.514 0.634,0 0,0 m -0.001,2.653 c -0.836,0 -1.515,-0.678 -1.515,-1.514 0,-0.836 0.679,-1.514 1.515,-1.514 0.836,0 1.514,0.678 1.514,1.514 0,0.836 -0.678,1.514 -1.514,1.514"
       style="fill:#231f20;fill-opacity:1;fill-rule:nonzero;stroke:none"
       transform="matrix(0.35277776,0,0,-0.35277776,63.612459,27.892629)"
       clip-path="url(#clipPath1847)" />
    <path
       id="path1848"
       d="M 0,0 C -0.391,0 -0.708,0.317 -0.708,0.708 -0.708,1.1 -0.391,1.417 0,1.417 0.392,1.417 0.709,1.1 0.709,0.708 0.709,0.317 0.392,0 0,0 m 0,1.637 c -0.517,0 -0.935,-0.418 -0.935,-0.934 0,-0.516 0.418,-0.934 0.935,-0.934 0.516,0 0.934,0.418 0.934,0.934 0,0.516 -0.418,0.934 -0.934,0.934"
       style="fill:#deddde;fill-opacity:1;fill-rule:nonzero;stroke:none"
       transform="matrix(0.35277776,0,0,-0.35277776,65.422182,30.685395)"
       clip-path="url(#clipPath1849)" />
    <path
       id="path1850"
       d="m 0,0 c -0.634,0 -1.148,0.514 -1.148,1.148 0,0.634 0.514,1.148 1.148,1.148 0.634,0 1.148,-0.514 1.148,-1.148 C 1.148,0.514 0.634,0 0,0 m -0.001,2.653 c -0.836,0 -1.515,-0.678 -1.515,-1.514 0,-0.836 0.679,-1.514 1.515,-1.514 0.836,0 1.514,0.678 1.514,1.514 0,0.836 -0.678,1.514 -1.514,1.514"
       style="fill:#deddde;fill-opacity:1;fill-rule:nonzero;stroke:none"
       transform="matrix(0.35277776,0,0,-0.35277776,62.825429,29.977581)"
       clip-path="url(#clipPath1851)" />
    <path
       id="path1852"
       d="m 0,0 c -0.484,0 -0.877,0.393 -0.877,0.877 0,0.485 0.393,0.878 0.877,0.878 0.485,0 0.877,-0.393 0.877,-0.878 C 0.877,0.393 0.485,0 0,0 m -0.001,2.027 c -0.639,0 -1.157,-0.518 -1.157,-1.157 0,-0.639 0.518,-1.157 1.157,-1.157 0.639,0 1.157,0.518 1.157,1.157 0,0.639 -0.518,1.157 -1.157,1.157"
       style="fill:#deddde;fill-opacity:1;fill-rule:nonzero;stroke:none"
       transform="matrix(0.35277776,0,0,-0.35277776,67.637036,28.94045)"
       clip-path="url(#clipPath1853)" />
    <path
       id="path1854"
       d="m 0,0 h 18.562 c 1.36,0.55 1.855,2.804 1.392,6.946 0.6,1.102 0.315,2.889 -1.16,5.599 0.166,1.154 -0.28,2.807 -2.735,6.089 C 15.91,19.874 14.922,20.77 13.535,21.5 11.653,22.163 7.186,20.549 5.746,19.954 3.219,18.952 1.767,17.959 1.547,16.19 -0.628,13.737 -1.642,10.318 -1.083,8.728 -2.346,4.977 -2.51,1.665 0,0"
       style="fill:#231f20;fill-opacity:1;fill-rule:nonzero;stroke:none"
       transform="matrix(0.35277776,0,0,-0.35277776,39.717991,31.788001)"
       clip-path="url(#clipPath1855)" />
    <path
       id="path1856"
       d="m 0,0 6.816,-1.827 5.22,1.597 -0.648,4.436 C 10.557,5.511 8.411,5.743 7.795,3.547 5.605,5.419 5.394,3.762 5.047,3.249 3.624,3.295 2.317,3.205 2.378,1.711 0.839,2.229 1.089,0.832 0,0"
       style="fill:#231f20;fill-opacity:1;fill-rule:nonzero;stroke:none"
       transform="matrix(0.35277776,0,0,-0.35277776,39.195174,23.870998)"
       clip-path="url(#clipPath1857)" />
    <path
       id="path1858"
       d="M 0,0 -4.126,1.856 -8.253,0 V 6.656 H 0 Z m -12.077,9.557 c 1.151,-3.872 1.151,-7.745 0,-11.617 H 13.499 V 9.557 Z"
       style="fill:#231f20;fill-opacity:1;fill-rule:nonzero;stroke:none"
       transform="matrix(0.35277776,0,0,-0.35277776,56.062706,30.757749)"
       clip-path="url(#clipPath1859)" />
    <path
       id="path1860"
       d="M 0,0 H 5.859 C 3.963,4.437 3.99,8.884 5.945,13.338 H 0.073 C -2.341,8.884 -2.362,4.437 0,0"
       style="fill:#231f20;fill-opacity:1;fill-rule:nonzero;stroke:none"
       transform="matrix(0.35277776,0,0,-0.35277776,48.561689,31.788001)"
       clip-path="url(#clipPath1861)" />
    <path
       id="path1862"
       d="m 0,0 v 0.485 h -26.219 -0.46 -1.52 c -1.939,-4.455 -1.961,-8.901 -0.073,-13.339 h 1.523 0.53 26.15 v 0.485 h -26.265 c -1.83,4.373 -1.606,8.372 0.007,12.369 z"
       style="fill:#231f20;fill-opacity:1;fill-rule:nonzero;stroke:none"
       transform="matrix(0.35277776,0,0,-0.35277776,61.056028,27.253572)"
       clip-path="url(#clipPath1863)" />
    <path
       id="path1864"
       d="m 0,0 h -0.854 c -2.2,-4.391 -2.224,-9.581 0,-13.338 h 0.769 C -2.273,-8.901 -2.247,-4.455 0,0"
       style="fill:#231f20;fill-opacity:1;fill-rule:nonzero;stroke:none"
       transform="matrix(0.35277776,0,0,-0.35277776,48.138461,27.08251)"
       clip-path="url(#clipPath1865)" />
    <path
       id="path1866"
       d="m 0,0 c -0.5,-0.953 -1.744,-2.329 -2.998,-2.329 -2.224,0 -3.324,3.211 -0.687,5.76 -0.136,0.059 -0.298,0.09 -0.469,0.09 -0.716,0 -1.263,-0.62 -1.263,-0.62 0.026,0.649 0.232,1.106 0.466,1.42 -0.754,-0.267 -2.102,-1.214 -2.445,-1.686 0.038,1.224 0.366,1.623 0.149,1.932 -0.012,0.016 -0.027,0.03 -0.038,0.043 0,0 -1.82,-1.198 -1.998,-3.168 0,0 0.24,0.338 0.449,0.417 0.135,0.053 0.255,-0.016 0.124,-0.417 -0.048,-0.156 -1.242,-3.381 1.1,-5.612 0,0 -0.255,0.656 -0.101,0.854 0.077,0.098 0.174,0.105 0.311,-0.067 0.1,-0.134 0.205,-0.264 0.317,-0.391 l 0.002,-0.002 v 0.002 c 0.193,-0.221 0.406,-0.427 0.641,-0.607 0.699,-0.492 1.651,-0.886 2.733,-0.886 3.008,0 4.551,2.147 5.382,3.858 -0.03,0.033 -0.063,0.061 -0.094,0.091 C 1.144,-0.936 0.485,-0.388 0,0 m -6.298,7.728 c -0.206,0.705 -0.054,1.463 0.228,2.031 0.222,-0.659 0.559,-1.39 1.633,-1.953 -0.104,0.522 -0.058,1.203 0.094,1.73 -0.3,1.19 0.457,2.148 1.385,2.148 1.476,0 1.818,-1.893 1.005,-3.102 C -1.526,7.989 -0.868,7.47 -0.425,7.04 -0.381,7 -0.339,6.955 -0.297,6.912 c 0.67,0.823 1.163,2.075 1.163,2.994 0,1.79 -1.163,3.45 -3.582,3.58 -1.534,0.084 -2.572,-0.391 -3.343,-1.177 -0.351,-0.358 -1.128,-1.261 -0.979,-2.892 0.104,-1.14 0.74,-1.689 0.74,-1.689 M 9.784,-1.823 C 9.784,-0.425 8.431,0.655 6.89,0.51 7.33,0.437 7.946,-0.033 7.946,-0.701 7.946,-1.789 6.587,-2.125 5.835,-1.957 6.632,-1.401 6.527,0.19 5.567,0.759 5.892,-0.132 4.917,-1.02 3.97,-0.242 3.446,0.191 2.223,1.207 1.682,1.644 1.139,2.08 0.503,1.827 0.25,2.017 -0.036,2.233 0.146,2.846 -0.244,3.072 -0.57,3.262 -0.891,3.157 -1.271,3.283 -1.62,3.396 -1.876,3.665 -1.833,4.028 -1.977,3.769 -1.986,3.318 -1.726,3.014 -1.465,2.714 -1.031,2.528 -0.854,2.196 -0.62,1.769 -1.013,1.174 0.021,0.365 0.513,-0.021 1.277,-0.654 1.776,-1.093 2.615,-1.829 2.171,-2.748 2.279,-3.551 2.406,-4.487 3.161,-5.008 3.663,-5.138 3.229,-4.746 3.064,-3.756 3.672,-3.148 3.705,-3.931 4.27,-5.157 5.558,-5.5 c 1.369,-0.365 2.824,0.411 3.129,0.958 -0.53,-0.239 -1.523,0.019 -1.933,0.403 1.606,-0.229 3.03,0.888 3.03,2.316 M -1.724,5.811 c 0.137,-0.482 0.319,-0.923 0.9,-0.923 0,0 -0.202,0.665 -0.9,0.923 m -5.618,1.787 c 1.007,0.041 1.509,-0.148 1.509,-0.148 -0.266,0.386 -0.35,0.979 -0.2,1.447 0.549,-1.314 2.509,-1.525 2.992,-2.615 -0.069,0.469 -0.513,0.999 -1.03,1.306 -0.275,0.717 -0.069,2.037 0.269,2.399 -0.118,-1.896 2.59,-2.983 3.152,-4.361 -0.332,1.182 -1.592,1.93 -2.192,2.637 -0.196,0.468 -0.046,1.264 0.17,1.535 -0.065,-1.27 1.307,-2.26 2.039,-2.972 C 0.233,5.99 0.478,5.25 0.359,4.646 0.548,4.597 0.81,4.412 0.766,4.101 1.042,4.165 1.323,4.482 1.392,4.677 1.525,3.732 0.971,2.734 0.352,2.436 c 0,0 0.165,0.45 -0.118,0.795 -0.279,0.339 -1.072,0.343 -1.341,0.324 0,0 0.329,0.487 0.199,0.735 C -1.07,4.597 -2.623,4.461 -3.315,4.21 -3.079,4.235 -2.52,4.171 -2.328,4.091 -2.434,3.929 -2.719,3.243 -2.514,3.04 c 0.186,-0.188 0.434,0.139 0.434,0.139 0,0 -0.241,-0.749 -0.067,-0.921 C -1.974,2.083 -1.602,2.207 -1.602,2.207 -1.833,1.621 -2.737,1.216 -3.366,1.216 -3.141,1.288 -2.769,1.69 -2.714,1.93 -2.879,1.847 -3.31,1.8 -3.476,1.831 c 0.202,0.083 0.613,0.608 0.486,1.199 -0.187,0.862 -1.388,0.973 -1.991,0.556 0.194,0.579 0.78,1.119 1.238,1.297 -0.268,0.095 -0.582,0.174 -0.919,0.234 0.384,0.316 1.35,0.572 1.842,0.545 -0.751,0.193 -2.124,-0.047 -2.754,-0.79 0.201,0 0.719,-0.098 0.917,-0.162 -0.862,-0.158 -2.035,-0.961 -2.383,-1.338 0.093,0.499 0.232,0.921 0.114,1.221 -0.167,0.423 -0.68,0.6 -1.704,0.388 0.691,0.692 2.105,1.121 2.201,1.497 0.094,0.371 -0.639,1.002 -0.913,1.12 M 1.36,2.142 C 1.529,2.092 1.7,2.011 1.868,1.878 2.076,1.708 2.39,1.453 2.722,1.181 2.909,1.625 3.517,2.946 4.524,4.098 5.331,5.021 6.737,5.11 7.473,4.547 7.947,4.978 9.584,5.38 10.447,5.134 9.921,5.706 8.806,6.472 7.573,6.472 6.557,6.472 5.98,5.973 5.836,6.196 5.646,6.485 6.523,6.91 6.523,6.91 5.323,6.859 4.447,5.446 4.083,5.623 3.868,5.728 4.412,6.41 4.412,6.41 3.31,5.772 2.392,4.42 2.201,3.597 3.211,4.834 5.174,5.722 6.447,5.535 4.198,5.425 2.275,3.437 1.36,2.142 m 12.473,8.153 c -1.048,0.55 -2.115,0.816 -3.571,0.874 v 0.012 H 7.344 c -2.309,0 -3.404,0.03 -4.205,0.214 -0.691,0.159 -1.31,0.561 -1.319,0.565 L 1.645,12.075 1.662,11.866 C 1.669,11.798 1.826,10.233 3.7,8.867 4.058,8.607 4.314,8.352 4.314,7.433 V 6.826 c 0.4,0.246 0.843,0.465 1.33,0.651 C 5.394,7.259 5.054,6.884 4.883,6.52 5.105,6.771 6.506,7.626 8.032,7.288 7.683,7.189 7.156,7.027 6.721,6.652 6.822,6.692 7.293,6.777 7.658,6.777 7.9,6.777 8.134,6.751 8.36,6.706 v 0.945 h 1.631 c 2.139,0 3.365,-1.366 3.365,-3.748 0,-2.366 -1.226,-3.721 -3.365,-3.721 H 9.087 c 0.613,-0.49 1.001,-1.209 1.001,-2.005 0,-0.568 -0.199,-1.095 -0.535,-1.526 h 0.058 c 2.127,0 3.453,0.356 4.892,1.317 0.612,0.415 1.135,0.894 1.562,1.427 0.96,1.201 1.513,2.859 1.513,4.549 0,2.748 -1.401,5.123 -3.745,6.351 M -11.184,3.903 c 0,2.382 -1.226,3.748 -3.363,3.748 h -1.634 V 0.182 h 1.634 c 2.137,0 3.363,1.355 3.363,3.721 M -9.116,1.15 c -0.148,-0.553 -0.332,-1.532 -0.182,-2.613 -0.231,-0.201 -0.477,-0.391 -0.737,-0.569 -1.443,-0.961 -2.768,-1.317 -4.895,-1.317 h -7.591 l 0.324,0.189 c 0,0.001 0.939,0.551 1.376,0.814 0.418,0.253 0.593,0.502 0.593,1.399 v 8.38 c 0,0.919 -0.253,1.174 -0.612,1.434 -1.874,1.366 -2.032,2.931 -2.038,2.999 l -0.017,0.209 0.176,-0.115 c 0.005,-0.004 0.626,-0.406 1.318,-0.565 0.802,-0.184 1.895,-0.214 4.206,-0.214 h 2.919 v -0.012 c 1.454,-0.058 2.522,-0.324 3.569,-0.874 C -9.036,9.418 -7.848,7.959 -7.3,6.195 -7.353,6.168 -7.405,6.141 -7.452,6.116 -7.928,5.862 -9.218,4.99 -9.564,4.479 c 0.859,0.31 1.497,0.289 1.693,0.289 0.1,0 0.184,-0.007 0.256,-0.02 -1.533,-0.95 -1.908,-2.693 -1.971,-3.279 -0.064,-0.587 -0.107,-0.924 -0.1,-1.13 0.195,0.442 0.57,0.811 0.57,0.811 M 8.36,0.604 V 4.582 C 8.091,4.484 7.875,4.375 7.759,4.271 L 7.573,4.101 7.372,4.253 C 7.121,4.446 6.765,4.552 6.373,4.552 5.752,4.552 5.149,4.283 4.757,3.835 4.598,3.653 4.451,3.465 4.314,3.279 v -3.39 c 0.133,-0.08 0.272,-0.124 0.402,-0.124 0.199,0 0.376,0.094 0.492,0.258 0.14,0.198 0.309,0.826 -0.234,1.418 0.322,-0.089 0.999,-0.592 1.107,-0.702 0,0 0.579,0.08 1.086,0.089 C 7.593,0.835 7.996,0.753 8.36,0.604 M 6.463,-1.679 c 0.145,0.28 0.222,0.621 0.207,0.986 -0.012,0.35 -0.104,0.685 -0.255,0.974 L 6.839,0.208 c 0.286,-0.047 0.802,-0.392 0.802,-0.909 0,-0.635 -0.64,-0.916 -1.178,-0.978"
       style="fill:#231f20;fill-opacity:1;fill-rule:nonzero;stroke:none"
       transform="matrix(0.35277776,0,0,-0.35277776,55.62998,24.978755)"
       clip-path="url(#clipPath1867)" />
  </g>
</svg>
