<?xml version="1.0" encoding="UTF-8" standalone="no"?>
<!-- Created with Inkscape (http://www.inkscape.org/) -->

<svg
   width="57.214207mm"
   height="10.121895mm"
   viewBox="0 0 57.214207 10.121895"
   version="1.1"
   id="svg1"
   xmlns:inkscape="http://www.inkscape.org/namespaces/inkscape"
   xmlns:sodipodi="http://sodipodi.sourceforge.net/DTD/sodipodi-0.dtd"
   xmlns="http://www.w3.org/2000/svg"
   xmlns:svg="http://www.w3.org/2000/svg">
  <sodipodi:namedview
     id="namedview1"
     pagecolor="#ffffff"
     bordercolor="#000000"
     borderopacity="0.25"
     inkscape:showpageshadow="2"
     inkscape:pageopacity="0.0"
     inkscape:pagecheckerboard="0"
     inkscape:deskcolor="#d1d1d1"
     inkscape:document-units="mm"
     inkscape:zoom="1.4627806"
     inkscape:cx="378.73076"
     inkscape:cy="223.88867"
     inkscape:window-width="1920"
     inkscape:window-height="1017"
     inkscape:window-x="1912"
     inkscape:window-y="455"
     inkscape:window-maximized="1"
     inkscape:current-layer="layer1" />
  <defs
     id="defs1">
    <clipPath
       clipPathUnits="userSpaceOnUse"
       id="clipPath2001">
      <path
         d="M 0,793.2 H 613.2 V 0 H 0 Z"
         transform="translate(-230.30963,-743.23392)"
         id="path2001" />
    </clipPath>
  </defs>
  <g
     inkscape:label="Layer 1"
     inkscape:groupmode="layer"
     id="layer1"
     transform="translate(-74.990801,-109.00988)">
    <path
       id="path2000"
       d="m 0,0 c -4.254,-2.854 -6.794,-7.611 -6.794,-12.725 0,-5.114 2.461,-12.79 6.717,-15.643 l 0.24,-0.162 h 34.895 l 0.239,0.162 c 0.894,0.599 1.787,4.205 2.521,4.958 h 113.343 l 0.191,0.32 c 0.546,0.917 2.268,3.441 3.66,4.095 l 0.376,0.177 -0.001,12.186 -0.376,0.176 c -1.392,0.654 -3.115,3.18 -3.661,4.097 l -0.191,0.318 H 37.82 C 37.084,-1.288 36.272,-0.599 35.377,0 L 35.138,0.162 H 0.241 Z m -4.892,-12.725 c 0,4.383 2.132,8.468 5.717,10.984 h 26.02 c 3.533,-1.562 8.321,-2.439 10.667,-2.876 1.756,-2.301 2.758,-5.128 2.758,-8.106 v -0.005 c 0,-2.978 0.099,-7.639 -2.759,-8.106 -5.404,-0.884 -6.931,-1.989 -10.746,-5.793 H 0.747 c -3.585,2.516 -5.639,9.518 -5.639,13.902 M 144.4,-3.349 c 2.285,-0.848 8.279,-3.382 9.678,-7.024 l 0.001,-4.702 c -1.398,-3.641 -7.395,-6.178 -9.679,-7.027 H 46.582 c -0.594,0.531 -1.88,1.357 -4.271,1.575 0.689,1.167 2.214,4.158 2.214,7.802 0,3.643 -1.525,6.635 -2.214,7.801 2.391,0.218 3.677,1.045 4.271,1.575 z M 41.501,-4.97 c 0.47,-0.745 2.311,-3.918 2.311,-7.755 0,-3.838 -1.841,-7.01 -2.311,-7.755 -0.452,0.012 -0.938,0.003 -1.459,-0.031 1.373,2.325 2.131,5 2.131,7.786 v 0.002 c 0,2.784 -0.758,5.459 -2.131,7.783 0.521,-0.034 1.007,-0.043 1.459,-0.03 m -7.027,-21.657 h -3.973 c 0.417,1.444 0.914,3.631 6.291,4.909 -0.966,-0.229 -1.489,-4.327 -2.318,-4.909 m 5.08,5.346 c 2.942,0.266 4.733,-0.281 5.743,-0.821 H 38.96 c 0.207,0.267 0.404,0.541 0.594,0.821 m 110.872,-0.821 h -4.089 c 2.465,1.06 6.019,2.936 7.742,5.5 v -1.413 c -1.578,-0.967 -3.116,-3.241 -3.653,-4.087 m 3.652,14.667 v -1.412 c -1.724,2.564 -5.276,4.439 -7.741,5.498 h 4.087 c 0.537,-0.845 2.076,-3.12 3.654,-4.086 M 45.297,-3.349 c -1.01,-0.54 -2.801,-1.087 -5.743,-0.82 -0.189,0.279 -0.386,0.553 -0.593,0.82 z m -8.504,-0.384 c -1.76,0.384 -3.816,1.018 -6.213,1.992 h 3.974 c 0.83,-0.582 1.572,-1.257 2.239,-1.992"
       style="fill:#231f20;fill-opacity:1;fill-rule:nonzero;stroke:none"
       transform="matrix(0.35277776,0,0,-0.35277776,77.387578,109.06703)"
       clip-path="url(#clipPath2001)" />
  </g>
</svg>
