<?xml version="1.0" encoding="UTF-8" standalone="no"?>
<!-- Created with Inkscape (http://www.inkscape.org/) -->

<svg
   width="19.165722mm"
   height="7.895174mm"
   viewBox="0 0 19.165722 7.895174"
   version="1.1"
   id="svg1"
   xmlns:inkscape="http://www.inkscape.org/namespaces/inkscape"
   xmlns:sodipodi="http://sodipodi.sourceforge.net/DTD/sodipodi-0.dtd"
   xmlns="http://www.w3.org/2000/svg"
   xmlns:svg="http://www.w3.org/2000/svg">
  <sodipodi:namedview
     id="namedview1"
     pagecolor="#ffffff"
     bordercolor="#000000"
     borderopacity="0.25"
     inkscape:showpageshadow="2"
     inkscape:pageopacity="0.0"
     inkscape:pagecheckerboard="0"
     inkscape:deskcolor="#d1d1d1"
     inkscape:document-units="mm"
     inkscape:zoom="1.4627806"
     inkscape:cx="378.73076"
     inkscape:cy="223.88867"
     inkscape:window-width="1920"
     inkscape:window-height="1017"
     inkscape:window-x="1912"
     inkscape:window-y="455"
     inkscape:window-maximized="1"
     inkscape:current-layer="layer1" />
  <defs
     id="defs1">
    <clipPath
       clipPathUnits="userSpaceOnUse"
       id="clipPath1901">
      <path
         d="M 0,793.2 H 613.2 V 0 H 0 Z"
         transform="translate(-361.92968,-566.19241)"
         id="path1901" />
    </clipPath>
    <clipPath
       clipPathUnits="userSpaceOnUse"
       id="clipPath1903">
      <path
         d="M 0,793.2 H 613.2 V 0 H 0 Z"
         transform="translate(-402.47274,-562.36672)"
         id="path1903" />
    </clipPath>
    <clipPath
       clipPathUnits="userSpaceOnUse"
       id="clipPath1909">
      <path
         d="M 0,793.2 H 613.2 V 0 H 0 Z"
         transform="translate(-368.36431,-568.85501)"
         id="path1909" />
    </clipPath>
    <clipPath
       clipPathUnits="userSpaceOnUse"
       id="clipPath1911">
      <path
         d="M 0,793.2 H 613.2 V 0 H 0 Z"
         transform="translate(-406.56744,-568.85501)"
         id="path1911" />
    </clipPath>
    <clipPath
       clipPathUnits="userSpaceOnUse"
       id="clipPath1913">
      <path
         d="M 0,793.2 H 613.2 V 0 H 0 Z"
         transform="translate(-369.60451,-572.34281)"
         id="path1913" />
    </clipPath>
    <clipPath
       clipPathUnits="userSpaceOnUse"
       id="clipPath1915">
      <path
         d="M 0,793.2 H 613.2 V 0 H 0 Z"
         transform="translate(-405.32709,-572.34281)"
         id="path1915" />
    </clipPath>
    <clipPath
       clipPathUnits="userSpaceOnUse"
       id="clipPath1917">
      <path
         d="M 0,793.2 H 613.2 V 0 H 0 Z"
         transform="translate(-406.35939,-574.08691)"
         id="path1917" />
    </clipPath>
    <clipPath
       clipPathUnits="userSpaceOnUse"
       id="clipPath1919">
      <path
         d="M 0,793.2 H 613.2 V 0 H 0 Z"
         transform="translate(-405.78909,-576.36232)"
         id="path1919" />
    </clipPath>
    <clipPath
       clipPathUnits="userSpaceOnUse"
       id="clipPath1921">
      <path
         d="M 0,793.2 H 613.2 V 0 H 0 Z"
         transform="translate(-407.97564,-570.36871)"
         id="path1921" />
    </clipPath>
    <clipPath
       clipPathUnits="userSpaceOnUse"
       id="clipPath1923">
      <path
         d="M 0,793.2 H 613.2 V 0 H 0 Z"
         transform="translate(-397.43851,-562.85842)"
         id="path1923" />
    </clipPath>
    <clipPath
       clipPathUnits="userSpaceOnUse"
       id="clipPath1925">
      <path
         d="M 0,793.2 H 613.2 V 0 H 0 Z"
         transform="translate(-368.61818,-574.08691)"
         id="path1925" />
    </clipPath>
    <clipPath
       clipPathUnits="userSpaceOnUse"
       id="clipPath1927">
      <path
         d="M 0,793.2 H 613.2 V 0 H 0 Z"
         transform="translate(-369.18953,-576.36232)"
         id="path1927" />
    </clipPath>
    <clipPath
       clipPathUnits="userSpaceOnUse"
       id="clipPath1929">
      <path
         d="M 0,793.2 H 613.2 V 0 H 0 Z"
         transform="translate(-367.00201,-570.36871)"
         id="path1929" />
    </clipPath>
    <clipPath
       clipPathUnits="userSpaceOnUse"
       id="clipPath1931">
      <path
         d="M 0,793.2 H 613.2 V 0 H 0 Z"
         transform="translate(-377.53913,-562.85842)"
         id="path1931" />
    </clipPath>
    <clipPath
       clipPathUnits="userSpaceOnUse"
       id="clipPath1933">
      <path
         d="M 0,793.2 H 613.2 V 0 H 0 Z"
         transform="translate(-406.13574,-573.55762)"
         id="path1933" />
    </clipPath>
  </defs>
  <g
     inkscape:label="Layer 1"
     inkscape:groupmode="layer"
     id="layer1"
     transform="translate(-138.6417,-191.49807)">
    <path
       id="path1900"
       d="M 0,0 H 8.045 C 7.822,0.311 7.631,0.646 7.474,0.997 H 1.194 C 1.183,1.59 0.946,2.164 0.522,2.585 -0.242,3.354 -1.521,3.47 -2.403,2.882 l -3.574,3.016 v 2.931 l 3.574,3.017 c 0.883,-0.588 2.163,-0.471 2.924,0.296 0.432,0.429 0.667,0.997 0.676,1.589 h 6.094 c 0.197,0.341 0.438,0.673 0.726,0.997 H 0 l 0.157,-0.621 c 0.117,-0.461 -0.011,-0.931 -0.342,-1.261 -0.498,-0.5 -1.373,-0.501 -1.874,-10e-4 L -2.382,13.169 -6.974,9.292 V 5.435 l 4.592,-3.877 0.323,0.325 c 0.501,0.5 1.372,0.504 1.876,-0.003 0.329,-0.327 0.457,-0.798 0.34,-1.259 z"
       style="fill:#231f20;fill-opacity:1;fill-rule:nonzero;stroke:none"
       transform="matrix(0.35277776,0,0,-0.35277776,141.10197,198.04362)"
       clip-path="url(#clipPath1901)" />
    <path
       id="path1902"
       d="m 0,0 h -29.969 l -6.81,8.572 0.002,5.24 6.806,8.568 H 0.004 L 6.81,13.812 6.811,8.572 Z m -29.427,1.122 h 28.886 l 6.23,7.84 -0.001,4.459 -6.225,7.837 h -28.892 l -6.227,-7.837 -10e-4,-4.459"
       style="fill:#231f20;fill-opacity:1;fill-rule:nonzero;stroke:none"
       transform="matrix(0.35277776,0,0,-0.35277776,155.40465,199.39324)"
       clip-path="url(#clipPath1903)" />
    <path
       id="path1908"
       d="m 0,0 -0.483,0.341 c 0.893,1.271 1.368,2.768 1.368,4.329 0,1.576 -0.483,3.086 -1.392,4.367 L -0.024,9.38 C 0.957,7.999 1.476,6.37 1.476,4.67 1.476,2.986 0.966,1.372 0,0"
       style="fill:#231f20;fill-opacity:1;fill-rule:nonzero;stroke:none"
       transform="matrix(0.35277776,0,0,-0.35277776,143.37196,197.10431)"
       clip-path="url(#clipPath1909)" />
    <path
       id="path1910"
       d="m 0,0 c -0.965,1.371 -1.475,2.985 -1.475,4.67 0,1.701 0.518,3.329 1.499,4.71 L 0.507,9.037 C -0.401,7.756 -0.884,6.246 -0.884,4.67 c 0,-1.562 0.474,-3.059 1.367,-4.329"
       style="fill:#231f20;fill-opacity:1;fill-rule:nonzero;stroke:none"
       transform="matrix(0.35277776,0,0,-0.35277776,156.84917,197.10431)"
       clip-path="url(#clipPath1911)" />
    <path
       id="path1912"
       d="m 0,0 c -0.67,0 -1.214,0.545 -1.214,1.215 0,0.322 0.124,0.626 0.354,0.856 0.229,0.23 0.535,0.358 0.86,0.358 0.669,0 1.213,-0.545 1.215,-1.213 C 1.215,0.545 0.67,0 0,0 m 0.004,1.935 c -0.197,0 -0.379,-0.075 -0.515,-0.213 -0.135,-0.137 -0.21,-0.316 -0.21,-0.506 0,-0.398 0.325,-0.722 0.721,-0.722 0.397,0 0.722,0.324 0.722,0.721 -0.001,0.397 -0.325,0.72 -0.718,0.72"
       style="fill:#231f20;fill-opacity:1;fill-rule:nonzero;stroke:none"
       transform="matrix(0.35277776,0,0,-0.35277776,143.80947,195.87389)"
       clip-path="url(#clipPath1913)" />
    <path
       id="path1914"
       d="m 0,0 c -0.67,0 -1.214,0.545 -1.214,1.215 0.002,0.669 0.545,1.214 1.21,1.214 0.329,0 0.635,-0.128 0.864,-0.358 C 1.09,1.841 1.214,1.537 1.214,1.214 1.214,0.545 0.67,0 0,0 m 0,1.935 c -0.397,0 -0.72,-0.323 -0.721,-0.721 0,-0.396 0.325,-0.72 0.721,-0.72 0.396,0 0.721,0.324 0.721,0.721 0,0.191 -0.075,0.37 -0.21,0.507 C 0.375,1.86 0.193,1.935 0,1.935"
       style="fill:#231f20;fill-opacity:1;fill-rule:nonzero;stroke:none"
       transform="matrix(0.35277776,0,0,-0.35277776,156.4116,195.87389)"
       clip-path="url(#clipPath1915)" />
    <path
       id="path1916"
       d="m 0,0 -0.487,0.069 c 0.01,0.077 0.286,1.891 2.103,2.589 L 1.793,2.198 C 0.244,1.603 0.003,0.017 0,0"
       style="fill:#231f20;fill-opacity:1;fill-rule:nonzero;stroke:none"
       transform="matrix(0.35277776,0,0,-0.35277776,156.77578,195.25861)"
       clip-path="url(#clipPath1917)" />
    <path
       id="path1918"
       d="M 0,0 -3.87,4.933 C -3.89,4.948 -4.675,5.732 -5.939,4.88 l -0.175,-0.118 -2.598,2.795 0.361,0.336 2.316,-2.489 c 1.521,0.894 2.528,-0.137 2.538,-0.15 L 0.388,0.305"
       style="fill:#231f20;fill-opacity:1;fill-rule:nonzero;stroke:none"
       transform="matrix(0.35277776,0,0,-0.35277776,156.57459,194.4559)"
       clip-path="url(#clipPath1919)" />
    <path
       id="path1920"
       d="m 0,0 c -1.817,0.698 -2.093,2.512 -2.104,2.589 l 0.488,0.07 c 0.01,-0.065 0.253,-1.607 1.794,-2.198"
       style="fill:#231f20;fill-opacity:1;fill-rule:nonzero;stroke:none"
       transform="matrix(0.35277776,0,0,-0.35277776,157.34595,196.57031)"
       clip-path="url(#clipPath1921)" />
    <path
       id="path1922"
       d="M 0,0 -0.361,0.336 2.236,3.13 2.411,3.012 C 3.688,2.152 4.463,2.942 4.495,2.978 L 8.351,7.893 8.738,7.588 4.868,2.655 C 4.845,2.627 3.837,1.592 2.315,2.49"
       style="fill:#231f20;fill-opacity:1;fill-rule:nonzero;stroke:none"
       transform="matrix(0.35277776,0,0,-0.35277776,153.62869,199.21978)"
       clip-path="url(#clipPath1923)" />
    <path
       id="path1924"
       d="m 0,0 c -0.01,0.064 -0.253,1.607 -1.792,2.198 l 0.177,0.46 C 0.202,1.96 0.478,0.146 0.488,0.069"
       style="fill:#231f20;fill-opacity:1;fill-rule:nonzero;stroke:none"
       transform="matrix(0.35277776,0,0,-0.35277776,143.46152,195.25861)"
       clip-path="url(#clipPath1925)" />
    <path
       id="path1926"
       d="m 0,0 -0.389,0.305 3.87,4.933 C 3.506,5.266 4.514,6.3 6.035,5.404 L 8.351,7.893 8.711,7.557 6.113,4.762 5.938,4.88 C 4.663,5.739 3.889,4.948 3.855,4.916"
       style="fill:#231f20;fill-opacity:1;fill-rule:nonzero;stroke:none"
       transform="matrix(0.35277776,0,0,-0.35277776,143.66308,194.4559)"
       clip-path="url(#clipPath1927)" />
    <path
       id="path1928"
       d="m 0,0 -0.178,0.461 c 1.55,0.595 1.79,2.182 1.793,2.198 L 2.104,2.589 C 2.093,2.512 1.817,0.698 0,0"
       style="fill:#231f20;fill-opacity:1;fill-rule:nonzero;stroke:none"
       transform="matrix(0.35277776,0,0,-0.35277776,142.89137,196.57031)"
       clip-path="url(#clipPath1929)" />
    <path
       id="path1930"
       d="M 0,0 -2.315,2.49 C -3.838,1.594 -4.844,2.626 -4.854,2.638 l -3.885,4.95 0.388,0.305 3.871,-4.933 c 0.016,-0.015 0.803,-0.8 2.068,0.052 L -2.237,3.13 0.36,0.336"
       style="fill:#231f20;fill-opacity:1;fill-rule:nonzero;stroke:none"
       transform="matrix(0.35277776,0,0,-0.35277776,146.60863,199.21978)"
       clip-path="url(#clipPath1931)" />
    <path
       id="path1932"
       d="M 0,0 C 0.002,0.445 -0.362,0.808 -0.809,0.808 -1.256,0.809 -1.616,0.445 -1.617,0 c 0,-0.447 0.361,-0.81 0.808,-0.81 C -0.362,-0.81 0,-0.447 0,0"
       style="fill:#ffffff;fill-opacity:1;fill-rule:nonzero;stroke:none"
       transform="matrix(0.35277776,0,0,-0.35277776,156.69688,195.44534)"
       clip-path="url(#clipPath1933)" />
  </g>
</svg>
