<?xml version="1.0" encoding="UTF-8" standalone="no"?>
<!-- Created with Inkscape (http://www.inkscape.org/) -->

<svg
   width="67.071861mm"
   height="229.69888mm"
   viewBox="0 0 67.071861 229.69888"
   version="1.1"
   id="svg1"
   inkscape:export-filename="spelllist frame.svg"
   inkscape:export-xdpi="96"
   inkscape:export-ydpi="96"
   xmlns:inkscape="http://www.inkscape.org/namespaces/inkscape"
   xmlns:sodipodi="http://sodipodi.sourceforge.net/DTD/sodipodi-0.dtd"
   xmlns="http://www.w3.org/2000/svg"
   xmlns:svg="http://www.w3.org/2000/svg">
  <sodipodi:namedview
     id="namedview1"
     pagecolor="#ffffff"
     bordercolor="#000000"
     borderopacity="0.25"
     inkscape:showpageshadow="2"
     inkscape:pageopacity="0.0"
     inkscape:pagecheckerboard="0"
     inkscape:deskcolor="#d1d1d1"
     inkscape:document-units="mm" />
  <defs
     id="defs1">
    <clipPath
       clipPathUnits="userSpaceOnUse"
       id="clipPath3300">
      <path
         d="M 0,0 H 612 V 792 H 0 Z"
         transform="translate(-205.58311,-656.84351)"
         id="path3300" />
    </clipPath>
  </defs>
  <g
     inkscape:label="Layer 1"
     inkscape:groupmode="layer"
     id="layer1"
     transform="translate(-48.825502,-16.017267)">
    <path
       id="path3299"
       d="m 0,0 c -2.097,2.648 -4.057,6.123 -4.057,9.912 v 0.729 h -65.045 c -6.136,1.753 -12.622,2.657 -19.294,2.657 -6.671,0 -13.157,-0.904 -19.295,-2.657 h -65.418 V 9.912 c 0,-3.789 -1.96,-7.264 -4.057,-9.912 h 1.85 c 0.463,0.639 0.915,1.305 1.33,2.019 h 1.448 l 0.225,0.002 0.076,0.21 c 0.069,0.194 1.789,4.766 9.402,4.766 h 45.4 c -2.72,-1.275 -5.344,-2.73 -7.846,-4.376 l 0.35,-0.532 c 1.166,0.767 2.362,1.486 3.578,2.172 h 65.916 c 1.225,-0.69 2.43,-1.417 3.604,-2.19 l 0.35,0.533 c -2.51,1.652 -5.144,3.114 -7.874,4.393 h 45.129 c 7.613,0 9.333,-4.572 9.403,-4.766 L -4.749,2.019 H -3.18 C -2.766,1.305 -2.313,0.639 -1.85,0 Z m -171.999,6.997 h 4.633 c -3.71,-1.168 -5.054,-3.599 -5.385,-4.342 h -0.892 c 0.721,1.345 1.301,2.801 1.644,4.342 m 59.82,2.186 c -0.981,-0.358 -1.95,-0.739 -2.909,-1.143 -0.206,0.242 -0.502,0.402 -0.845,0.402 -0.511,0 -0.925,-0.346 -1.064,-0.81 h -54.856 c 0.089,0.509 0.151,1.025 0.181,1.551 z m 40.61,1.458 h -33.653 c 5.396,1.335 11.041,2.021 16.826,2.021 5.786,0 11.431,-0.686 16.827,-2.021 m 5.032,-1.458 c 1.551,-0.517 3.076,-1.093 4.575,-1.723 -0.007,-0.049 -0.03,-0.094 -0.03,-0.146 0,-0.622 0.504,-1.127 1.127,-1.127 0.351,0 0.65,0.167 0.857,0.417 1.157,-0.532 2.291,-1.106 3.41,-1.707 h -63.595 c 1.118,0.6 2.251,1.172 3.406,1.704 0.207,-0.248 0.506,-0.414 0.854,-0.414 0.623,0 1.128,0.505 1.128,1.127 0,0.051 -0.023,0.095 -0.029,0.143 1.5,0.631 3.028,1.207 4.582,1.726 z M -5.313,7.632 h -54.488 c -0.14,0.464 -0.553,0.81 -1.064,0.81 -0.341,0 -0.636,-0.159 -0.843,-0.399 -0.957,0.403 -1.926,0.782 -2.905,1.14 h 59.118 c 0.031,-0.526 0.093,-1.042 0.182,-1.551 m 1.789,-4.977 h -0.788 c -0.331,0.743 -1.674,3.174 -5.385,4.342 h 4.53 C -4.824,5.456 -4.245,4 -3.524,2.655 m -173.579,-627.254 c 2.073,-2.637 3.994,-6.081 3.994,-9.831 v -0.729 h 65.419 c 6.137,-1.754 12.623,-2.658 19.294,-2.658 6.672,0 13.158,0.904 19.297,2.658 h 65.042 v 0.729 c 0,3.75 1.921,7.194 3.994,9.831 h -1.848 c -0.442,-0.615 -0.872,-1.256 -1.269,-1.939 l -1.673,-10e-4 -0.076,-0.21 c -0.069,-0.195 -1.79,-4.766 -9.402,-4.766 h -45.026 c 2.721,1.275 5.345,2.73 7.847,4.375 l -0.35,0.533 c -1.166,-0.768 -2.362,-1.487 -3.578,-2.173 h -65.916 c -1.225,0.691 -2.43,1.418 -3.604,2.19 l -0.35,-0.532 c 2.51,-1.653 5.144,-3.114 7.873,-4.393 h -45.504 c -7.612,0 -9.332,4.571 -9.402,4.766 l -0.076,0.211 h -1.569 c -0.397,0.683 -0.827,1.324 -1.27,1.939 z m 171.936,-6.916 H -9.8 c 3.71,1.167 5.053,3.599 5.385,4.341 h 0.891 c -0.721,-1.344 -1.3,-2.8 -1.643,-4.341 m -59.445,-2.186 c 0.98,0.357 1.95,0.738 2.909,1.142 0.206,-0.241 0.502,-0.402 0.845,-0.402 0.51,0 0.924,0.346 1.063,0.81 h 54.482 c -0.089,-0.508 -0.151,-1.025 -0.182,-1.55 z m -40.61,-1.458 h 33.653 c -5.396,-1.335 -11.041,-2.022 -16.827,-2.022 -5.785,0 -11.43,0.687 -16.826,2.022 m -5.032,1.458 c -1.551,0.516 -3.077,1.092 -4.574,1.722 0.006,0.05 0.029,0.094 0.029,0.146 0,0.622 -0.504,1.128 -1.128,1.128 -0.349,0 -0.649,-0.168 -0.856,-0.418 -1.157,0.533 -2.291,1.106 -3.41,1.707 h 63.595 c -1.118,-0.6 -2.251,-1.171 -3.406,-1.704 -0.207,0.248 -0.506,0.415 -0.854,0.415 -0.624,0 -1.128,-0.506 -1.128,-1.128 0,-0.051 0.022,-0.094 0.029,-0.143 -1.501,-0.631 -3.029,-1.206 -4.582,-1.725 z m -61.599,1.55 h 54.863 c 0.138,-0.464 0.553,-0.81 1.063,-0.81 0.342,0 0.637,0.16 0.844,0.399 0.957,-0.403 1.926,-0.782 2.905,-1.139 h -59.494 c -0.03,0.525 -0.092,1.042 -0.181,1.55 m -1.79,4.977 h 0.789 c 0.331,-0.742 1.674,-3.174 5.385,-4.341 h -4.53 c -0.343,1.541 -0.923,2.997 -1.644,4.341"
       style="fill:#e0e1e1;fill-opacity:1;fill-rule:nonzero;stroke:none"
       transform="matrix(0.35277776,0,0,-0.35277776,113.61159,20.708505)"
       clip-path="url(#clipPath3300)" />
    <path
       id="path3301"
       d="m 115.72098,21.49735 -1.68486,-1.684867 H 50.686758 l -1.684867,1.684867 v 218.7388 l 1.684867,1.68486 h 63.349362 l 1.68486,-1.68486 z"
       style="fill:#ffffff;fill-opacity:1;fill-rule:nonzero;stroke:#dedfdf;stroke-width:0.352778;stroke-linecap:butt;stroke-linejoin:miter;stroke-miterlimit:10;stroke-dasharray:none;stroke-opacity:1" />
  </g>
</svg>
