<?xml version="1.0" encoding="utf-8"?>
<!-- Generator: Adobe Illustrator 28.3.0, SVG Export Plug-In . SVG Version: 6.00 Build 0)  -->
<svg version="1.1" id="Layer_2_00000046329851479968223920000014826160365808369811_"
	 xmlns="http://www.w3.org/2000/svg" xmlns:xlink="http://www.w3.org/1999/xlink" x="0px" y="0px" viewBox="0 0 23.1 23.8"
	 style="enable-background:new 0 0 23.1 23.8;" xml:space="preserve">
<style type="text/css">
	.st0{clip-path:url(#SVGID_00000105398769866644191690000011889633828191167661_);}
</style>
<g id="Layer_2-2">
	<g id="Layer_1-2">
		<g>
			<defs>
				<rect id="SVGID_1_" width="23.1" height="23.8"/>
			</defs>
			<clipPath id="SVGID_00000140722341711682986820000016553389351239845795_">
				<use xlink:href="#SVGID_1_"  style="overflow:visible;"/>
			</clipPath>
			<g style="clip-path:url(#SVGID_00000140722341711682986820000016553389351239845795_);">
				<path d="M13.1,625.7H8.3c4.1-1.6,7-4.2,9.1-7.1h0.1v-0.1c1.5-2.1,2.5-4.2,3.2-6.3v6.5L13.1,625.7L13.1,625.7z M-296.9,618.6
					v-6.5c0.7,2,1.8,4.2,3.2,6.3v0.1h0.1c2.1,2.9,5,5.5,9.1,7.1h-4.9L-296.9,618.6L-296.9,618.6L-296.9,618.6z M-289.4-19.2h4.9
					c-4.1,1.6-7,4.2-9.1,7.1h-0.1v0.1c-1.5,2.1-2.5,4.2-3.2,6.3v-6.5L-289.4-19.2L-289.4-19.2L-289.4-19.2z M17.4-10.1
					c0.3,0.5,0.6,1,0.9,1.5c1.2,2.3,1.9,4.7,2.3,6.6v610.2c-0.5,2.4-1.5,5.3-3.2,8.2L17.4-10.1L17.4-10.1z M-296.9-1.9
					c0.5-2.4,1.5-5.3,3.2-8.2v626.5c-0.3-0.5-0.6-1-0.9-1.5c-1.2-2.3-1.9-4.7-2.3-6.6V-1.9z M4.8,625.7h-285.9
					c-4.7-1.1-8.4-3.5-11.2-7.2V-12c2.5-3.2,6-6,11.3-7.2H4.9c4.7,1.1,8.4,3.5,11.2,7.2v630.5C13.7,621.7,10.1,624.5,4.8,625.7
					 M20.7-12.2v6.5c-0.7-2.1-1.8-4.2-3.2-6.3v-0.1h-0.1c-2.1-2.9-5-5.5-9.1-7.1h4.9L20.7-12.2L20.7-12.2z M14.1-21.5h-304.5l-9,8.4
					v632.7l9,8.4H14.1l9-8.4V-13.1C23.1-13.1,14.1-21.5,14.1-21.5z"/>
			</g>
		</g>
	</g>
</g>
</svg>
