<?xml version="1.0" encoding="utf-8"?>
<!-- Generator: Adobe Illustrator 28.3.0, SVG Export Plug-In . SVG Version: 6.00 Build 0)  -->
<svg version="1.1" id="Layer_2_00000051355152745143060630000005580695292591544229_"
	 xmlns="http://www.w3.org/2000/svg" xmlns:xlink="http://www.w3.org/1999/xlink" x="0px" y="0px" viewBox="0 0 23.1 23.8"
	 style="enable-background:new 0 0 23.1 23.8;" xml:space="preserve">
<style type="text/css">
	.st0{clip-path:url(#SVGID_00000036222729362755508560000000044322090499507331_);}
</style>
<g id="Layer_2-2">
	<g id="Layer_1-2">
		<g>
			<defs>
				<rect id="SVGID_1_" width="23.1" height="23.8"/>
			</defs>
			<clipPath id="SVGID_00000046320485687013735440000016842372531123711637_">
				<use xlink:href="#SVGID_1_"  style="overflow:visible;"/>
			</clipPath>
			<g style="clip-path:url(#SVGID_00000046320485687013735440000016842372531123711637_);">
				<path d="M34.1,647.2h-4.8c4.1-1.6,7-4.2,9.1-7.1h0.1v-0.1c1.5-2.1,2.5-4.2,3.2-6.3v6.5L34.1,647.2L34.1,647.2z M-275.9,640.1
					v-6.5c0.7,2,1.8,4.2,3.2,6.3v0.1h0.1c2.1,2.9,5,5.5,9.1,7.1h-4.9L-275.9,640.1L-275.9,640.1L-275.9,640.1z M-268.4,2.3h4.9
					c-4.1,1.6-7,4.2-9.1,7.1h-0.1v0.1c-1.5,2.1-2.5,4.2-3.2,6.3V9.4L-268.4,2.3L-268.4,2.3L-268.4,2.3z M38.4,11.5
					c0.3,0.5,0.6,1,0.9,1.5c1.2,2.3,1.9,4.7,2.3,6.6v610.2c-0.5,2.4-1.5,5.3-3.2,8.2L38.4,11.5L38.4,11.5z M-275.9,19.7
					c0.5-2.4,1.5-5.3,3.2-8.2V638c-0.3-0.5-0.6-1-0.9-1.5c-1.2-2.3-1.9-4.7-2.3-6.6V19.7z M25.8,647.2h-285.9
					c-4.7-1.1-8.4-3.5-11.2-7.2V9.5c2.5-3.2,6-6,11.3-7.2H25.8c4.7,1.1,8.4,3.5,11.2,7.2V640C34.6,643.2,31.1,646,25.8,647.2
					 M41.7,9.4v6.5c-0.7-2.1-1.8-4.2-3.2-6.3V9.5h-0.1c-2.1-2.9-5-5.5-9.1-7.1h4.8L41.7,9.4L41.7,9.4z M35.1,0h-304.5l-9,8.4v632.7
					l9,8.4H35.1l9-8.4V8.4L35.1,0z"/>
			</g>
		</g>
	</g>
</g>
</svg>
