<?xml version="1.0" encoding="UTF-8" standalone="no"?>
<!-- Created with Inkscape (http://www.inkscape.org/) -->

<svg
   width="57.213852mm"
   height="9.4241018mm"
   viewBox="0 0 57.213852 9.4241018"
   version="1.1"
   id="svg1"
   xmlns:inkscape="http://www.inkscape.org/namespaces/inkscape"
   xmlns:sodipodi="http://sodipodi.sourceforge.net/DTD/sodipodi-0.dtd"
   xmlns="http://www.w3.org/2000/svg"
   xmlns:svg="http://www.w3.org/2000/svg">
  <sodipodi:namedview
     id="namedview1"
     pagecolor="#ffffff"
     bordercolor="#000000"
     borderopacity="0.25"
     inkscape:showpageshadow="2"
     inkscape:pageopacity="0.0"
     inkscape:pagecheckerboard="0"
     inkscape:deskcolor="#d1d1d1"
     inkscape:document-units="mm"
     inkscape:zoom="1.4627806"
     inkscape:cx="378.73076"
     inkscape:cy="223.88867"
     inkscape:window-width="1920"
     inkscape:window-height="1017"
     inkscape:window-x="1912"
     inkscape:window-y="455"
     inkscape:window-maximized="1"
     inkscape:current-layer="layer1" />
  <defs
     id="defs1">
    <clipPath
       clipPathUnits="userSpaceOnUse"
       id="clipPath2004">
      <path
         d="M 0,793.2 H 613.2 V 0 H 0 Z"
         transform="translate(-230.55623,-687.13922)"
         id="path2004" />
    </clipPath>
  </defs>
  <g
     inkscape:label="Layer 1"
     inkscape:groupmode="layer"
     id="layer1"
     transform="translate(-75.077799,-119.4848)">
    <path
       id="path2003"
       d="m 0,0 c -4.254,2.657 -6.794,7.087 -6.794,11.849 0,4.762 2.461,11.908 6.716,14.565 l 0.24,0.15 h 34.896 l 0.239,-0.15 c 0.894,-0.558 1.787,-3.916 2.521,-4.617 h 113.343 l 0.19,-0.297 c 0.547,-0.854 2.269,-3.205 3.66,-3.813 l 0.376,-0.165 -0.001,-11.346 -0.376,-0.165 c -1.391,-0.609 -3.114,-2.96 -3.661,-3.814 L 151.159,1.9 H 37.82 C 37.084,1.2 36.271,0.558 35.377,0 L 35.138,-0.15 H 0.241 Z m -4.892,11.849 c 0,-4.081 2.132,-7.885 5.717,-10.228 h 26.019 c 3.534,1.455 8.321,2.271 10.668,2.678 1.755,2.143 2.758,4.775 2.758,7.547 v 0.006 c 0,2.772 0.099,7.112 -2.759,7.547 -5.404,0.823 -6.931,1.852 -10.746,5.394 H 0.746 C -2.838,22.45 -4.892,15.93 -4.892,11.849 M 144.4,3.118 c 2.284,0.79 8.278,3.15 9.679,6.54 l 0.001,4.379 c -1.4,3.39 -7.397,5.753 -9.68,6.543 H 46.582 C 45.988,20.085 44.702,19.316 42.311,19.113 43,18.027 44.525,15.241 44.525,11.849 44.525,8.457 43,5.671 42.311,4.585 44.702,4.382 45.988,3.612 46.582,3.118 Z M 41.501,4.628 c 0.47,0.694 2.311,3.648 2.311,7.221 0,3.573 -1.841,6.527 -2.311,7.22 -0.452,-0.011 -0.938,-0.003 -1.459,0.029 1.372,-2.165 2.13,-4.656 2.13,-7.249 v -0.003 c 0,-2.592 -0.758,-5.082 -2.13,-7.246 0.521,0.032 1.007,0.04 1.459,0.028 M 34.473,24.793 H 30.5 c 0.417,-1.345 0.915,-3.381 6.292,-4.571 -0.966,0.214 -1.489,4.029 -2.319,4.571 m 5.081,-4.978 c 2.942,-0.248 4.732,0.262 5.742,0.765 H 38.96 c 0.207,-0.249 0.404,-0.504 0.594,-0.765 m 110.871,0.765 h -4.089 c 2.465,-0.987 6.021,-2.735 7.744,-5.122 v 1.315 c -1.579,0.901 -3.118,3.019 -3.655,3.807 m 3.654,-13.657 v 1.315 c -1.724,-2.387 -5.278,-4.133 -7.743,-5.12 h 4.087 c 0.538,0.787 2.077,2.905 3.656,3.805 M 45.296,3.118 C 44.286,3.621 42.496,4.13 39.554,3.882 39.365,3.622 39.168,3.367 38.961,3.118 Z M 36.793,3.476 C 35.033,3.118 32.976,2.528 30.58,1.621 h 3.974 c 0.83,0.542 1.572,1.17 2.239,1.855"
       style="fill:#231f20;fill-opacity:1;fill-rule:nonzero;stroke:none"
       transform="matrix(0.35277776,0,0,-0.35277776,77.474573,128.85599)"
       clip-path="url(#clipPath2004)" />
  </g>
</svg>
