<?xml version="1.0" encoding="UTF-8"?>
<svg id="Layer_2" data-name="Layer 2" xmlns="http://www.w3.org/2000/svg" xmlns:xlink="http://www.w3.org/1999/xlink" viewBox="32 193 167 62">
  <defs>
    <style>
      .cls-1 {
        fill: #000;
      }

      .cls-1, .cls-2, .cls-3, .cls-4 {
        stroke-width: 0px;
      }

      .cls-2 {
        fill: #dedfdf;
      }

      .cls-3 {
        fill: none;
      }

      .cls-5 {
        clip-path: url(#clippath);
      }

      .cls-4 {
        fill: #fff;
      }
    </style>
    <clipPath id="clippath">
      <rect class="cls-3" width="612" height="792"/>
    </clipPath>
  </defs>
  <g id="Layer_1-2" data-name="Layer 1">
    <polygon class="cls-4" points="87.32 200.47 83.11 200.47 78.33 195.39 47.48 195.39 42.7 200.47 38.49 200.47 33.88 205.08 33.88 247.75 38.49 252.36 87.32 252.36 91.93 247.75 91.93 205.08 87.32 200.47"/>
    <path class="cls-2" d="M78.33,195.39h-30.85l-4.78,5.08,12.46,14.36h15.5l12.46-14.36-4.78-5.08ZM77.04,198.39l2.03,2.16-9.79,11.28h-12.76l-9.79-11.28,2.03-2.16h28.26Z"/>
    <g class="cls-5">
      <path class="cls-1" d="M100.32,196.93c.31-.51.6-1.08.87-1.71h2.66c-1.3.51-2.51,1.13-3.53,1.71M91.24,205.37v2.71c-.96-2.29-2.53-3.92-4.26-5.07v-.05h-.07c-1.16-.77-2.39-1.32-3.55-1.73l.06-.07h3.61l4.21,4.21ZM91.24,242.84c-.63,2.62-2.07,4.71-4.28,6.28h-48.1c-1.92-1.37-3.58-3.37-4.3-6.3v-32.84c.63-2.61,2.07-4.71,4.28-6.28h5.75l10.25,11.82h16.12l10.25-11.82h5.75c2.21,1.57,3.65,3.67,4.28,6.28v32.85ZM91.24,247.47l-4.21,4.21h-3.88c1.22-.41,2.53-.99,3.76-1.8h.07v-.05c1.73-1.15,3.29-2.78,4.26-5.07v2.71ZM44.92,251.68c-1.42-.3-3.18-.84-4.88-1.8h45.73c-.3.17-.58.34-.9.49-1.39.66-2.78,1.06-3.94,1.3h-36.01ZM38.77,251.68l-4.21-4.21v-2.71c.96,2.29,2.53,3.91,4.26,5.07v.05h.07c1.23.81,2.54,1.39,3.76,1.8h-3.88ZM34.57,205.37l4.21-4.21h3.61l.07.08c-1.16.4-2.39.96-3.55,1.72h-.07v.05c-1.73,1.15-3.29,2.78-4.26,5.07v-2.71ZM43.94,202.96h-3.91c.3-.17.58-.34.9-.49.65-.31,1.3-.54,1.93-.75l1.08,1.24ZM47.77,196.08h30.26l4.15,4.41-11.85,13.66h-14.87l-11.85-13.66,4.15-4.41ZM82.95,201.71c.63.2,1.28.44,1.93.75.32.15.6.33.9.49h-3.91l1.08-1.24ZM196.26,193.24c-.46,0-.84.25-1.07.6h-94.93l-.17.44c-1.6,4.11-4.26,5.3-4.79,5.5h-11.89l-4.78-5.08h-31.45l-4.78,5.08h-4.2l-5.01,5.01v43.24l5.01,5.01h49.4l5.01-5.01v-43.24l-3.64-3.64h6.54l.1-.03c.1-.03,1.85-.61,3.58-2.64,1.57-1,4.38-2.6,7.12-3.26h88.87c.23.36.61.61,1.07.61.71,0,1.29-.58,1.29-1.29s-.58-1.29-1.29-1.29"/>
    </g>
  </g>
</svg>