<?xml version="1.0" encoding="UTF-8" standalone="no"?>
<svg
   width="228.8125"
   height="40.3125"
   viewBox="0 0 228.8125 40.3125"
   fill="none"
   version="1.1"
   id="svg1"
   sodipodi:docname="equipment wip.svg"
   xml:space="preserve"
   xmlns:inkscape="http://www.inkscape.org/namespaces/inkscape"
   xmlns:sodipodi="http://sodipodi.sourceforge.net/DTD/sodipodi-0.dtd"
   xmlns="http://www.w3.org/2000/svg"
   xmlns:svg="http://www.w3.org/2000/svg"><defs
     id="defs1" /><sodipodi:namedview
     id="namedview1"
     pagecolor="#ffffff"
     bordercolor="#000000"
     borderopacity="0.25"
     inkscape:showpageshadow="2"
     inkscape:pageopacity="0.0"
     inkscape:pagecheckerboard="0"
     inkscape:deskcolor="#d1d1d1" /><path
     style="fill:#ffffff;fill-rule:evenodd"
     d="m 220.125,40.1875 8.4375,-9.3125 0.25,-22.125 -7.625,-7.9375 L 13.1875,0 0.5625,15.25 0,24.625 13.0625,40.3125 Z"
     id="path177" /><path
     id="path176"
     style="fill:#000000;fill-rule:evenodd"
     d="M 12.121209,-0.99207251 9.457147,2.500115 6.8399587,5.9298025 6.7872243,6.000115 h -0.00781 L 4.5040212,8.6602712 C 4.2246244,9.026321 2.9943376,10.578874 1.7227712,12.168084 l -2.33593746,2.919922 v 5.023438 5.023437 l 0.0351563,0.04102 -0.0195313,-0.05859 2.11718746,2.572266 c 0.010128,0.01213 0.017264,0.02114 0.027344,0.0332 0.349188,0.417733 0.6721739,0.798103 0.9609376,1.138672 0.4330412,0.510857 0.7393659,0.895895 0.9941406,1.234375 l 3.2050781,3.894531 h 0.041016 l 2.8710935,3.748047 2.724609,3.554687 0.121094,0.152344 37.179688,0.04102 h 19.492187 l 1.199219,-1.51172 12.035156,-15.185547 -0.03125,-9.5625 -7.892578,-10.0644617 -4.810547,-6.11718744 -28.755859,-0.0214844 -20.914063,-0.015625 z M 17.037225,1.000115 h 23.90039 c 19.646443,0 23.970331,0.1217424 24.298828,0.6816406 0.22,0.3742991 1.222519,1.6689035 2.228516,2.8749999 0.4164,0.4992985 0.811147,0.9713232 1.185547,1.419922 5.738082,6.8762795 6.660806,7.9841035 6.628906,9.0625005 -0.0061,0.2069 -0.0465,0.412803 -0.0957,0.658203 -0.0167,0.0835 -0.03523,0.171325 -0.05273,0.265625 -0.182,0.980697 -0.64761,2.137966 -1.03711,2.572266 -0.897997,1.001197 -0.897997,1.918725 0,2.919922 0.3895,0.434297 0.85275,1.576865 1.03125,2.539062 0.3065,1.655894 0.03531,2.101612 -5.076172,8.371094 l -5.398437,6.623047 H 40.841912 17.033318 l -5.324218,-6.5 C 5.9636165,25.474118 5.4798394,24.280831 7.3868337,21.857537 8.5573301,20.370043 8.6665651,19.204944 7.6895681,18.644647 7.3065693,18.424747 6.7644422,17.41475 6.4864431,16.398553 5.9809446,14.550659 5.9818975,14.549785 11.509881,7.7755056 Z m -2.746094,0.029297 c 0.788997,-0.019 1.038062,0.1689043 0.789062,0.5957031 -0.351997,0.6032982 -4.156362,5.3642484 -4.693359,5.8730469 -0.145,0.1374994 -1.2391917,1.4320048 -2.4296878,2.875 -1.1904964,1.443097 -2.3676881,2.625 -2.6171875,2.625 -1.1824964,0 -0.1131136,-1.963296 3.671875,-6.7382814 C 12.060824,2.4130924 13.437634,1.049412 14.291131,1.029412 Z m 52.695312,0.025391 c 0.127046,-0.00259 0.27111,0.0063 0.427735,0.029297 0.738497,0.1078997 2.613087,1.9855007 5.330078,5.3378905 3.898488,4.8094855 4.553825,6.0560855 3.361328,6.3964855 -0.4105,0.117 -9.175391,-10.2889356 -9.650391,-11.4570323 -0.07462,-0.1832994 0.150115,-0.2988564 0.53125,-0.3066407 z M 3.9395681,12.998162 c 0.2009994,0 0.7335952,1.106841 1.1835937,2.460938 0.6809979,2.049794 0.7094204,2.63425 0.1699219,3.498047 -0.5249985,0.840697 -0.5281704,1.23099 -0.013672,2.054687 0.4744988,0.759297 0.5055926,1.487006 0.1210938,2.875 -0.9079973,3.275991 -1.3312386,3.562816 -2.7402344,1.857422 -1.0939967,-1.324097 -1.2398594,-1.985743 -1.2558594,-5.644531 -0.015,-3.496391 0.1531746,-4.37545 1.0761719,-5.623047 0.6014982,-0.813797 1.257485,-1.478516 1.4589845,-1.478516 z m 73.8632819,0.002 c 0.183497,0.002 0.839987,0.74755 1.458984,1.65625 0.914997,1.344594 1.125,2.337299 1.125,5.33789 0,3.001091 -0.210003,3.995347 -1.125,5.339844 -0.618997,0.908297 -1.33625,1.581947 -1.59375,1.498047 -0.258,-0.084 -0.790594,-1.114872 -1.183594,-2.292969 -0.588497,-1.764994 -0.601765,-2.354653 -0.07227,-3.34375 0.525497,-0.981197 0.521919,-1.424444 -0.01758,-2.431641 -0.561,-1.048197 -0.529969,-1.570106 0.207031,-3.5 0.476497,-1.247094 1.017672,-2.265671 1.201172,-2.263671 z M 5.4649587,27.2091 c 0.5092719,-0.09308 1.5951675,1.185159 5.0039063,5.435547 2.247494,2.801691 4.300003,5.37575 4.5625,5.71875 0.3495,0.458997 0.162013,0.622281 -0.708984,0.613281 -0.901497,-0.009 -2.188338,-1.269824 -5.3613285,-5.257812 C 6.2825603,30.351475 4.8926468,28.193634 5.0821462,27.699334 5.1882709,27.423037 5.2952015,27.240128 5.4649587,27.2091 Z m 71.1210943,0.154297 c 0.206445,0.03638 0.300781,0.266906 0.300781,0.675781 0,0.2679 -1.856006,2.828815 -4.125,5.691406 -2.990491,3.771988 -4.434503,5.210469 -5.25,5.230469 -0.618497,0.015 -1.125,-0.097 -1.125,-0.25 0,-0.153 2.146946,-2.858128 4.773437,-6.011719 3.170616,-3.807288 4.806446,-5.445086 5.425782,-5.335937 z" /><g
     style="fill:none"
     id="g177"
     transform="matrix(1.0024338,0,0,0.99305338,68.618349,-0.95090116)"><path
       id="path1"
       d="M 0.49957576,-2.7260871e-4 V 2.7492964 L 70.374436,2.7787984 140.2493,2.8102674 142.74907,3.9883731 145.2508,5.164512 72.874212,5.207781 5.0958113,5.247117 6.2687379,6.7477759 H 76.28583 148.57084 l 2.34001,1.5714632 c 3.059,2.0533089 5.99274,4.8378019 6.87974,6.5258019 0.974,1.855897 0.975,10.94252 0,12.795918 -0.869,1.652499 -4.34572,5.006085 -7.03172,6.781484 l -1.99124,1.315781 H 76.383249 6.0271384 l -1.1807201,1.502626 68.0277937,0.03737 72.376588,0.03934 -2.50173,1.203674 -2.49977,1.203674 -69.874864,0.0059 -69.87486024,0.0059 v 2.99935 H 76.430011 152.36239 l 2.87582,-3.754598 c 1.582,-2.064898 3.52656,-4.137317 4.31956,-4.606216 l 1.44181,-0.851619 -0.0195,-12.26292 L 160.96058,8.9977848 159.39213,7.99669 C 158.52913,7.4468605 156.7026,5.5353571 155.3356,3.7484289 L 152.85144,0.49929142 76.800203,0.24950941 0.75091717,-2.7260871e-4 Z M 151.37846,2.7492964 l 2.13738,2.76727 c 1.175,1.5225185 2.77569,3.3077211 3.55969,3.9670104 0.904,0.7602792 1.42427,1.6817552 1.42427,2.5194552 v 1.319714 l -1.27229,-1.51246 c -1.723,-2.0468675 -5.68445,-4.8972852 -9.94845,-7.1610729 l -3.52852,-1.8743485 3.81299,-0.011801 z m 6.6927,27.2773766 c 0.214,-0.05699 0.26671,0.216931 0.35071,0.77098 0.11799,0.773799 -0.24207,1.437996 -1.13007,2.084795 -0.718,0.5223 -2.32823,2.278108 -3.57723,3.902106 l -2.27376,2.952149 h -3.84416 l -3.84611,-0.002 3.34927,-1.687504 c 3.805,-1.915898 7.45134,-4.48632 9.65034,-6.803118 0.732,-0.771499 1.10701,-1.160454 1.32101,-1.217441 z"
       style="fill:#000000" /></g></svg>
