<?xml version="1.0" encoding="UTF-8" standalone="no"?>
<!-- Created with Inkscape (http://www.inkscape.org/) -->

<svg
   width="61.441521mm"
   height="13.095816mm"
   viewBox="0 0 61.441521 13.095816"
   version="1.1"
   id="svg1"
   inkscape:export-filename="spelllist frame.svg"
   inkscape:export-xdpi="96"
   inkscape:export-ydpi="96"
   sodipodi:docname="spellbar cantrip.svg"
   xmlns:inkscape="http://www.inkscape.org/namespaces/inkscape"
   xmlns:sodipodi="http://sodipodi.sourceforge.net/DTD/sodipodi-0.dtd"
   xmlns="http://www.w3.org/2000/svg"
   xmlns:svg="http://www.w3.org/2000/svg">
  <sodipodi:namedview
     id="namedview1"
     pagecolor="#ffffff"
     bordercolor="#000000"
     borderopacity="0.25"
     inkscape:showpageshadow="2"
     inkscape:pageopacity="0.0"
     inkscape:pagecheckerboard="0"
     inkscape:deskcolor="#d1d1d1"
     inkscape:document-units="mm" />
  <defs
     id="defs1">
    <clipPath
       clipPathUnits="userSpaceOnUse"
       id="clipPath3928">
      <path
         d="M 0,0 H 612 V 792 H 0 Z"
         transform="translate(-205.19033,-628.09792)"
         id="path3928" />
    </clipPath>
  </defs>
  <g
     inkscape:label="Layer 1"
     inkscape:groupmode="layer"
     id="layer1"
     transform="translate(-22.754148,-13.758333)">
    <path
       id="path3361"
       d="m 82.24918,24.917152 1.703917,-2.056694 V 17.75153 L 82.24918,15.694836 H 26.443619 v 9.222316 z"
       style="fill:#ffffff;fill-opacity:1;fill-rule:nonzero;stroke:none;stroke-width:0.352778" />
    <path
       id="path3389"
       d="m 23.812485,24.530967 v -8.450438 l 0.9525,-0.896056 3.603978,3.125964 v 3.991327 l -3.603978,3.125964 z"
       style="fill:#ffffff;fill-opacity:1;fill-rule:nonzero;stroke:none;stroke-width:0.352778" />
    <path
       id="path3390"
       d="m 24.779511,15.897226 3.060347,2.654653 v 3.508374 l -3.060347,2.6543 -0.437797,-0.412044 V 16.30927 Z m -0.02893,-1.425928 -1.467202,1.38042 v 8.907991 l 1.467202,1.381125 4.147608,-3.597628 v -4.47428 z"
       style="fill:#dedfdf;fill-opacity:1;fill-rule:nonzero;stroke:none;stroke-width:0.352778" />
    <path
       id="path3927"
       d="m 0,0 v 15.052 l -6.232,6.232 h -105.371 -53.696 l 1.585,-1.375 h 6.945 l 7.034,-8.572 c -0.239,-0.792 -0.406,-1.676 -0.484,-2.657 -0.542,-0.117 -0.958,-0.576 -0.958,-1.154 0,-0.577 0.416,-1.037 0.959,-1.152 0.077,-0.979 0.244,-1.862 0.483,-2.653 l -7.039,-8.578 h -6.94 l -1.586,-1.375 h 53.698 105.37 z m -152.628,-4.857 1.624,2.044 H -9.08 c -2.197,-1.155 -4.388,-1.745 -6.058,-2.044 z m 5.902,15.125 V 4.781 l -1.882,-2.368 c -0.514,1.077 -0.89,2.39 -1.013,3.983 0.487,0.154 0.848,0.593 0.848,1.13 0,0.538 -0.362,0.978 -0.849,1.131 0.123,1.593 0.499,2.905 1.013,3.981 z m -3.804,6.999 h 5.56 c -0.938,-0.511 -2.207,-1.404 -3.275,-2.877 z m 2.287,-16.605 c 1.067,-1.474 2.336,-2.366 3.274,-2.876 h -5.559 z m -1.264,2.392 c 0.152,-0.405 0.32,-0.783 0.504,-1.138 l -5.382,-6.773 h -1.614 z m -4.88,16.855 5.382,-6.773 c -0.182,-0.354 -0.349,-0.731 -0.501,-1.133 l -6.488,7.906 z m 138.654,0 c 1.678,-0.255 4.055,-0.815 6.46,-2.043 h -141.734 l -1.623,2.043 z m 14.358,-8.826 c -2.686,5.266 -7.272,7.701 -10.965,8.826 h 5.537 l 5.428,-5.428 z m 0,-5.357 C -2.91,1.853 -5.448,-0.646 -8.094,-2.253 v 0.039 h -135.417 c -0.291,0.086 -2.642,0.858 -4.36,3.344 l 2.52,3.171 v 6.447 l -2.522,3.174 c 1.718,2.486 4.07,3.259 4.36,3.345 H -8.195 c 2.682,-1.606 5.265,-4.12 6.82,-8.041 z m 0,-5.156 -5.428,-5.427 h -5.223 c 3.634,1.165 8.04,3.607 10.651,8.722 z"
       style="fill:#000000;fill-opacity:1;fill-rule:nonzero;stroke:none"
       transform="matrix(0.35277776,0,0,-0.35277776,84.195666,22.961035)"
       clip-path="url(#clipPath3928)" />
    <path
       id="path3929"
       d="m 24.750513,14.471297 4.147608,3.597628 v 4.47428 l -4.147608,3.597628 -1.467203,-1.381125 v -8.907992 z m -0.01446,-0.712964 -0.347839,0.327378 -1.467555,1.380419 -0.166511,0.156986 v 0.2286 8.907992 0.2286 l 0.166511,0.156986 1.467202,1.380772 0.348192,0.328083 0.360892,-0.313619 4.147961,-3.597628 0.182386,-0.158397 v -0.2413 -4.47428 -0.2413 L 29.244902,17.669227 25.096941,14.0716 Z"
       style="fill:#000000;fill-opacity:1;fill-rule:nonzero;stroke:none;stroke-width:0.352778" />
  </g>
</svg>
